<svg width="553" height="328" viewBox="0 0 553 328" fill="none" xmlns="http://www.w3.org/2000/svg">
<rect width="552" height="83" fill="#C5C5C5"/>
<rect y="83" width="552" height="245" fill="#6DB04D"/>
<path d="M264.066 49.39V56.59H261.276V52H243.996L243.966 56.59H241.176L241.206 49.39H242.226C243.546 49.31 244.476 48.27 245.016 46.27C245.556 44.25 245.886 41.41 246.006 37.75L246.216 31H260.976V49.39H264.066ZM248.646 38.02C248.546 40.98 248.306 43.43 247.926 45.37C247.566 47.31 246.976 48.65 246.156 49.39H258.006V33.61H248.796L248.646 38.02ZM277.617 52.24C275.497 52.24 273.587 51.78 271.887 50.86C270.187 49.92 268.847 48.63 267.867 46.99C266.907 45.35 266.427 43.52 266.427 41.5C266.427 39.48 266.907 37.65 267.867 36.01C268.847 34.37 270.187 33.09 271.887 32.17C273.587 31.23 275.497 30.76 277.617 30.76C279.717 30.76 281.617 31.23 283.317 32.17C285.017 33.09 286.347 34.37 287.307 36.01C288.267 37.63 288.747 39.46 288.747 41.5C288.747 43.54 288.267 45.38 287.307 47.02C286.347 48.64 285.017 49.92 283.317 50.86C281.617 51.78 279.717 52.24 277.617 52.24ZM277.617 49.57C279.157 49.57 280.537 49.22 281.757 48.52C282.997 47.82 283.967 46.86 284.667 45.64C285.387 44.4 285.747 43.02 285.747 41.5C285.747 39.98 285.387 38.61 284.667 37.39C283.967 36.15 282.997 35.18 281.757 34.48C280.537 33.78 279.157 33.43 277.617 33.43C276.077 33.43 274.677 33.78 273.417 34.48C272.177 35.18 271.197 36.15 270.477 37.39C269.777 38.61 269.427 39.98 269.427 41.5C269.427 43.02 269.777 44.4 270.477 45.64C271.197 46.86 272.177 47.82 273.417 48.52C274.677 49.22 276.077 49.57 277.617 49.57ZM313.067 52L313.037 36.7L305.447 49.45H304.067L296.477 36.79V52H293.597V31H296.057L304.817 45.76L313.457 31H315.917L315.947 52H313.067Z" fill="white"/>
<rect x="139" y="83" width="273" height="188" fill="#4B5760"/>
<rect x="183" y="83" width="186" height="144" fill="#666F7C"/>
<path d="M248.341 143L242.121 154.54C241.628 155.46 241.048 156.147 240.381 156.6C239.715 157.053 238.988 157.28 238.201 157.28C237.588 157.28 236.961 157.14 236.321 156.86L236.841 155.26C237.335 155.433 237.775 155.52 238.161 155.52C239.041 155.52 239.768 155.053 240.341 154.12L240.661 153.62L235.021 143H237.161L241.701 151.88L246.361 143H248.341ZM258.205 146.4V157H256.285V152.72C255.138 153.253 253.998 153.52 252.865 153.52C251.545 153.52 250.525 153.213 249.805 152.6C249.085 151.987 248.725 151.067 248.725 149.84V146.4H250.645V149.72C250.645 150.453 250.871 151.007 251.325 151.38C251.791 151.753 252.438 151.94 253.265 151.94C254.198 151.94 255.205 151.707 256.285 151.24V146.4H258.205ZM265.712 146.3C267.179 146.3 268.299 146.66 269.072 147.38C269.859 148.1 270.252 149.173 270.252 150.6V157H268.432V155.6C268.112 156.093 267.652 156.473 267.052 156.74C266.466 156.993 265.766 157.12 264.952 157.12C263.766 157.12 262.812 156.833 262.092 156.26C261.386 155.687 261.032 154.933 261.032 154C261.032 153.067 261.372 152.32 262.052 151.76C262.732 151.187 263.812 150.9 265.292 150.9H268.332V150.52C268.332 149.693 268.092 149.06 267.612 148.62C267.132 148.18 266.426 147.96 265.492 147.96C264.866 147.96 264.252 148.067 263.652 148.28C263.052 148.48 262.546 148.753 262.132 149.1L261.332 147.66C261.879 147.22 262.532 146.887 263.292 146.66C264.052 146.42 264.859 146.3 265.712 146.3ZM265.272 155.64C266.006 155.64 266.639 155.48 267.172 155.16C267.706 154.827 268.092 154.36 268.332 153.76V152.28H265.372C263.746 152.28 262.932 152.827 262.932 153.92C262.932 154.453 263.139 154.873 263.552 155.18C263.966 155.487 264.539 155.64 265.272 155.64ZM278.33 157.12C277.25 157.12 276.283 156.887 275.43 156.42C274.59 155.953 273.93 155.313 273.45 154.5C272.97 153.673 272.73 152.74 272.73 151.7C272.73 150.66 272.97 149.733 273.45 148.92C273.93 148.093 274.59 147.453 275.43 147C276.283 146.533 277.25 146.3 278.33 146.3C279.29 146.3 280.143 146.493 280.89 146.88C281.65 147.267 282.236 147.827 282.65 148.56L281.19 149.5C280.856 148.993 280.443 148.613 279.95 148.36C279.456 148.107 278.91 147.98 278.31 147.98C277.616 147.98 276.99 148.133 276.43 148.44C275.883 148.747 275.45 149.187 275.13 149.76C274.823 150.32 274.67 150.967 274.67 151.7C274.67 152.447 274.823 153.107 275.13 153.68C275.45 154.24 275.883 154.673 276.43 154.98C276.99 155.287 277.616 155.44 278.31 155.44C278.91 155.44 279.456 155.313 279.95 155.06C280.443 154.807 280.856 154.427 281.19 153.92L282.65 154.84C282.236 155.573 281.65 156.14 280.89 156.54C280.143 156.927 279.29 157.12 278.33 157.12ZM292.899 148.08H289.019V157H287.099V148.08H283.219V146.4H292.899V148.08ZM298.933 157.12C297.88 157.12 296.933 156.887 296.093 156.42C295.253 155.953 294.593 155.313 294.113 154.5C293.647 153.673 293.413 152.74 293.413 151.7C293.413 150.66 293.647 149.733 294.113 148.92C294.593 148.093 295.253 147.453 296.093 147C296.933 146.533 297.88 146.3 298.933 146.3C299.987 146.3 300.927 146.533 301.753 147C302.593 147.453 303.247 148.093 303.713 148.92C304.193 149.733 304.433 150.66 304.433 151.7C304.433 152.74 304.193 153.673 303.713 154.5C303.247 155.313 302.593 155.953 301.753 156.42C300.927 156.887 299.987 157.12 298.933 157.12ZM298.933 155.44C299.613 155.44 300.22 155.287 300.753 154.98C301.3 154.66 301.727 154.22 302.033 153.66C302.34 153.087 302.493 152.433 302.493 151.7C302.493 150.967 302.34 150.32 302.033 149.76C301.727 149.187 301.3 148.747 300.753 148.44C300.22 148.133 299.613 147.98 298.933 147.98C298.253 147.98 297.64 148.133 297.093 148.44C296.56 148.747 296.133 149.187 295.813 149.76C295.507 150.32 295.353 150.967 295.353 151.7C295.353 152.433 295.507 153.087 295.813 153.66C296.133 154.22 296.56 154.66 297.093 154.98C297.64 155.287 298.253 155.44 298.933 155.44ZM311.326 152.52H309.126V157H307.206V146.4H309.126V150.88H311.366L314.806 146.4H316.866L312.846 151.5L317.146 157H314.886L311.326 152.52ZM240.129 167.4V178H238.389V170.26L234.429 176.8H233.589L229.669 170.24V178H227.909V167.4H229.889L234.049 174.56L238.329 167.4H240.129ZM248.406 178.12C247.353 178.12 246.406 177.887 245.566 177.42C244.726 176.953 244.066 176.313 243.586 175.5C243.119 174.673 242.886 173.74 242.886 172.7C242.886 171.66 243.119 170.733 243.586 169.92C244.066 169.093 244.726 168.453 245.566 168C246.406 167.533 247.353 167.3 248.406 167.3C249.459 167.3 250.399 167.533 251.226 168C252.066 168.453 252.719 169.093 253.186 169.92C253.666 170.733 253.906 171.66 253.906 172.7C253.906 173.74 253.666 174.673 253.186 175.5C252.719 176.313 252.066 176.953 251.226 177.42C250.399 177.887 249.459 178.12 248.406 178.12ZM248.406 176.44C249.086 176.44 249.693 176.287 250.226 175.98C250.773 175.66 251.199 175.22 251.506 174.66C251.813 174.087 251.966 173.433 251.966 172.7C251.966 171.967 251.813 171.32 251.506 170.76C251.199 170.187 250.773 169.747 250.226 169.44C249.693 169.133 249.086 168.98 248.406 168.98C247.726 168.98 247.113 169.133 246.566 169.44C246.033 169.747 245.606 170.187 245.286 170.76C244.979 171.32 244.826 171.967 244.826 172.7C244.826 173.433 244.979 174.087 245.286 174.66C245.606 175.22 246.033 175.66 246.566 175.98C247.113 176.287 247.726 176.44 248.406 176.44ZM271.778 167.4V178H256.678V167.4H258.598V176.32H263.278V167.4H265.198V176.32H269.858V167.4H271.778ZM273.358 176.32V180.26H271.558V178H269.778V176.32H273.358ZM285.086 172.76C285.086 172.907 285.073 173.1 285.046 173.34H276.446C276.566 174.273 276.973 175.027 277.666 175.6C278.373 176.16 279.246 176.44 280.286 176.44C281.553 176.44 282.573 176.013 283.346 175.16L284.406 176.4C283.926 176.96 283.326 177.387 282.606 177.68C281.9 177.973 281.106 178.12 280.226 178.12C279.106 178.12 278.113 177.893 277.246 177.44C276.38 176.973 275.706 176.327 275.226 175.5C274.76 174.673 274.526 173.74 274.526 172.7C274.526 171.673 274.753 170.747 275.206 169.92C275.673 169.093 276.306 168.453 277.106 168C277.92 167.533 278.833 167.3 279.846 167.3C280.86 167.3 281.76 167.533 282.546 168C283.346 168.453 283.966 169.093 284.406 169.92C284.86 170.747 285.086 171.693 285.086 172.76ZM279.846 168.92C278.926 168.92 278.153 169.2 277.526 169.76C276.913 170.32 276.553 171.053 276.446 171.96H283.246C283.14 171.067 282.773 170.34 282.146 169.78C281.533 169.207 280.766 168.92 279.846 168.92ZM288.065 167.4H289.985V171.9H296.025V167.4H297.945V178H296.025V173.56H289.985V178H288.065V167.4ZM301.678 167.4H303.598V175.12L310.098 167.4H311.838V178H309.918V170.28L303.438 178H301.678V167.4ZM324.065 167.4V178H322.345V174.64H319.265H319.045L316.725 178H314.665L317.245 174.38C316.445 174.14 315.832 173.747 315.405 173.2C314.978 172.64 314.765 171.947 314.765 171.12C314.765 169.907 315.178 168.987 316.005 168.36C316.832 167.72 317.972 167.4 319.425 167.4H324.065ZM316.725 171.18C316.725 171.887 316.945 172.413 317.385 172.76C317.838 173.093 318.512 173.26 319.405 173.26H322.345V169.08H319.485C317.645 169.08 316.725 169.78 316.725 171.18Z" fill="white"/>
<path d="M38.8184 162.2V172H37.4324V163.418H35.2204V162.2H38.8184ZM43.762 166.106C45.162 166.106 46.1887 166.372 46.842 166.904C47.5047 167.427 47.836 168.145 47.836 169.06C47.836 169.639 47.696 170.161 47.416 170.628C47.1454 171.085 46.73 171.449 46.17 171.72C45.6194 171.981 44.938 172.112 44.126 172.112C43.4354 172.112 42.768 172.009 42.124 171.804C41.48 171.589 40.948 171.295 40.528 170.922L41.172 169.816C41.508 170.133 41.9374 170.39 42.46 170.586C42.9827 170.773 43.5334 170.866 44.112 170.866C44.8494 170.866 45.4187 170.712 45.82 170.404C46.2307 170.087 46.436 169.657 46.436 169.116C46.436 168.528 46.212 168.085 45.764 167.786C45.316 167.478 44.5507 167.324 43.468 167.324H41.242L41.76 162.2H47.29V163.418H42.936L42.67 166.106H43.762ZM53.0051 172.112C52.2304 172.112 51.5398 171.916 50.9331 171.524C50.3358 171.123 49.8644 170.544 49.5191 169.788C49.1738 169.032 49.0011 168.136 49.0011 167.1C49.0011 166.064 49.1738 165.168 49.5191 164.412C49.8644 163.656 50.3358 163.082 50.9331 162.69C51.5398 162.289 52.2304 162.088 53.0051 162.088C53.7704 162.088 54.4518 162.289 55.0491 162.69C55.6558 163.082 56.1318 163.656 56.4771 164.412C56.8224 165.168 56.9951 166.064 56.9951 167.1C56.9951 168.136 56.8224 169.032 56.4771 169.788C56.1318 170.544 55.6558 171.123 55.0491 171.524C54.4518 171.916 53.7704 172.112 53.0051 172.112ZM53.0051 170.866C53.7891 170.866 54.4144 170.544 54.8811 169.9C55.3571 169.256 55.5951 168.323 55.5951 167.1C55.5951 165.877 55.3571 164.944 54.8811 164.3C54.4144 163.656 53.7891 163.334 53.0051 163.334C52.2118 163.334 51.5771 163.656 51.1011 164.3C50.6344 164.944 50.4011 165.877 50.4011 167.1C50.4011 168.323 50.6344 169.256 51.1011 169.9C51.5771 170.544 52.2118 170.866 53.0051 170.866ZM63.4663 172L61.3243 169.158L59.1543 172H57.6563L60.5823 168.206L57.7963 164.58H59.2943L61.3383 167.254L63.3683 164.58H64.8383L62.0383 168.206L64.9923 172H63.4663ZM72.6782 170.782V172H65.6362V171.048L69.6262 167.198C70.1115 166.731 70.4382 166.33 70.6062 165.994C70.7742 165.649 70.8582 165.303 70.8582 164.958C70.8582 164.445 70.6762 164.048 70.3122 163.768C69.9575 163.479 69.4442 163.334 68.7722 163.334C67.6895 163.334 66.8542 163.689 66.2662 164.398L65.3142 163.572C65.6968 163.105 66.1962 162.741 66.8122 162.48C67.4375 162.219 68.1328 162.088 68.8982 162.088C69.9248 162.088 70.7415 162.335 71.3482 162.83C71.9548 163.315 72.2582 163.978 72.2582 164.818C72.2582 165.341 72.1462 165.835 71.9222 166.302C71.6982 166.769 71.2735 167.301 70.6482 167.898L67.6522 170.782H72.6782ZM77.7922 172.112C77.0175 172.112 76.3269 171.916 75.7202 171.524C75.1229 171.123 74.6515 170.544 74.3062 169.788C73.9609 169.032 73.7882 168.136 73.7882 167.1C73.7882 166.064 73.9609 165.168 74.3062 164.412C74.6515 163.656 75.1229 163.082 75.7202 162.69C76.3269 162.289 77.0175 162.088 77.7922 162.088C78.5575 162.088 79.2389 162.289 79.8362 162.69C80.4429 163.082 80.9189 163.656 81.2642 164.412C81.6095 165.168 81.7822 166.064 81.7822 167.1C81.7822 168.136 81.6095 169.032 81.2642 169.788C80.9189 170.544 80.4429 171.123 79.8362 171.524C79.2389 171.916 78.5575 172.112 77.7922 172.112ZM77.7922 170.866C78.5762 170.866 79.2015 170.544 79.6682 169.9C80.1442 169.256 80.3822 168.323 80.3822 167.1C80.3822 165.877 80.1442 164.944 79.6682 164.3C79.2015 163.656 78.5762 163.334 77.7922 163.334C76.9989 163.334 76.3642 163.656 75.8882 164.3C75.4215 164.944 75.1882 165.877 75.1882 167.1C75.1882 168.323 75.4215 169.256 75.8882 169.9C76.3642 170.544 76.9989 170.866 77.7922 170.866ZM87.1301 172.112C86.3554 172.112 85.6648 171.916 85.0581 171.524C84.4608 171.123 83.9894 170.544 83.6441 169.788C83.2988 169.032 83.1261 168.136 83.1261 167.1C83.1261 166.064 83.2988 165.168 83.6441 164.412C83.9894 163.656 84.4608 163.082 85.0581 162.69C85.6648 162.289 86.3554 162.088 87.1301 162.088C87.8954 162.088 88.5768 162.289 89.1741 162.69C89.7808 163.082 90.2568 163.656 90.6021 164.412C90.9474 165.168 91.1201 166.064 91.1201 167.1C91.1201 168.136 90.9474 169.032 90.6021 169.788C90.2568 170.544 89.7808 171.123 89.1741 171.524C88.5768 171.916 87.8954 172.112 87.1301 172.112ZM87.1301 170.866C87.9141 170.866 88.5394 170.544 89.0061 169.9C89.4821 169.256 89.7201 168.323 89.7201 167.1C89.7201 165.877 89.4821 164.944 89.0061 164.3C88.5394 163.656 87.9141 163.334 87.1301 163.334C86.3368 163.334 85.7021 163.656 85.2261 164.3C84.7594 164.944 84.5261 165.877 84.5261 167.1C84.5261 168.323 84.7594 169.256 85.2261 169.9C85.7021 170.544 86.3368 170.866 87.1301 170.866ZM105.408 164.58V172H104.19V166.582L101.418 171.16H100.83L98.0858 166.568V172H96.8538V164.58H98.2398L101.152 169.592L104.148 164.58H105.408ZM116.578 164.58V172H115.36V166.582L112.588 171.16H112L109.256 166.568V172H108.024V164.58H109.41L112.322 169.592L115.318 164.58H116.578Z" fill="white"/>
<path d="M438.818 163.2V173H437.432V164.418H435.22V163.2H438.818ZM443.762 167.106C445.162 167.106 446.189 167.372 446.842 167.904C447.505 168.427 447.836 169.145 447.836 170.06C447.836 170.639 447.696 171.161 447.416 171.628C447.145 172.085 446.73 172.449 446.17 172.72C445.619 172.981 444.938 173.112 444.126 173.112C443.435 173.112 442.768 173.009 442.124 172.804C441.48 172.589 440.948 172.295 440.528 171.922L441.172 170.816C441.508 171.133 441.937 171.39 442.46 171.586C442.983 171.773 443.533 171.866 444.112 171.866C444.849 171.866 445.419 171.712 445.82 171.404C446.231 171.087 446.436 170.657 446.436 170.116C446.436 169.528 446.212 169.085 445.764 168.786C445.316 168.478 444.551 168.324 443.468 168.324H441.242L441.76 163.2H447.29V164.418H442.936L442.67 167.106H443.762ZM453.005 173.112C452.23 173.112 451.54 172.916 450.933 172.524C450.336 172.123 449.864 171.544 449.519 170.788C449.174 170.032 449.001 169.136 449.001 168.1C449.001 167.064 449.174 166.168 449.519 165.412C449.864 164.656 450.336 164.082 450.933 163.69C451.54 163.289 452.23 163.088 453.005 163.088C453.77 163.088 454.452 163.289 455.049 163.69C455.656 164.082 456.132 164.656 456.477 165.412C456.822 166.168 456.995 167.064 456.995 168.1C456.995 169.136 456.822 170.032 456.477 170.788C456.132 171.544 455.656 172.123 455.049 172.524C454.452 172.916 453.77 173.112 453.005 173.112ZM453.005 171.866C453.789 171.866 454.414 171.544 454.881 170.9C455.357 170.256 455.595 169.323 455.595 168.1C455.595 166.877 455.357 165.944 454.881 165.3C454.414 164.656 453.789 164.334 453.005 164.334C452.212 164.334 451.577 164.656 451.101 165.3C450.634 165.944 450.401 166.877 450.401 168.1C450.401 169.323 450.634 170.256 451.101 170.9C451.577 171.544 452.212 171.866 453.005 171.866ZM463.466 173L461.324 170.158L459.154 173H457.656L460.582 169.206L457.796 165.58H459.294L461.338 168.254L463.368 165.58H464.838L462.038 169.206L464.992 173H463.466ZM472.678 171.782V173H465.636V172.048L469.626 168.198C470.111 167.731 470.438 167.33 470.606 166.994C470.774 166.649 470.858 166.303 470.858 165.958C470.858 165.445 470.676 165.048 470.312 164.768C469.957 164.479 469.444 164.334 468.772 164.334C467.689 164.334 466.854 164.689 466.266 165.398L465.314 164.572C465.697 164.105 466.196 163.741 466.812 163.48C467.437 163.219 468.133 163.088 468.898 163.088C469.925 163.088 470.741 163.335 471.348 163.83C471.955 164.315 472.258 164.978 472.258 165.818C472.258 166.341 472.146 166.835 471.922 167.302C471.698 167.769 471.273 168.301 470.648 168.898L467.652 171.782H472.678ZM477.792 173.112C477.018 173.112 476.327 172.916 475.72 172.524C475.123 172.123 474.652 171.544 474.306 170.788C473.961 170.032 473.788 169.136 473.788 168.1C473.788 167.064 473.961 166.168 474.306 165.412C474.652 164.656 475.123 164.082 475.72 163.69C476.327 163.289 477.018 163.088 477.792 163.088C478.558 163.088 479.239 163.289 479.836 163.69C480.443 164.082 480.919 164.656 481.264 165.412C481.61 166.168 481.782 167.064 481.782 168.1C481.782 169.136 481.61 170.032 481.264 170.788C480.919 171.544 480.443 172.123 479.836 172.524C479.239 172.916 478.558 173.112 477.792 173.112ZM477.792 171.866C478.576 171.866 479.202 171.544 479.668 170.9C480.144 170.256 480.382 169.323 480.382 168.1C480.382 166.877 480.144 165.944 479.668 165.3C479.202 164.656 478.576 164.334 477.792 164.334C476.999 164.334 476.364 164.656 475.888 165.3C475.422 165.944 475.188 166.877 475.188 168.1C475.188 169.323 475.422 170.256 475.888 170.9C476.364 171.544 476.999 171.866 477.792 171.866ZM487.13 173.112C486.355 173.112 485.665 172.916 485.058 172.524C484.461 172.123 483.989 171.544 483.644 170.788C483.299 170.032 483.126 169.136 483.126 168.1C483.126 167.064 483.299 166.168 483.644 165.412C483.989 164.656 484.461 164.082 485.058 163.69C485.665 163.289 486.355 163.088 487.13 163.088C487.895 163.088 488.577 163.289 489.174 163.69C489.781 164.082 490.257 164.656 490.602 165.412C490.947 166.168 491.12 167.064 491.12 168.1C491.12 169.136 490.947 170.032 490.602 170.788C490.257 171.544 489.781 172.123 489.174 172.524C488.577 172.916 487.895 173.112 487.13 173.112ZM487.13 171.866C487.914 171.866 488.539 171.544 489.006 170.9C489.482 170.256 489.72 169.323 489.72 168.1C489.72 166.877 489.482 165.944 489.006 165.3C488.539 164.656 487.914 164.334 487.13 164.334C486.337 164.334 485.702 164.656 485.226 165.3C484.759 165.944 484.526 166.877 484.526 168.1C484.526 169.323 484.759 170.256 485.226 170.9C485.702 171.544 486.337 171.866 487.13 171.866ZM505.408 165.58V173H504.19V167.582L501.418 172.16H500.83L498.086 167.568V173H496.854V165.58H498.24L501.152 170.592L504.148 165.58H505.408ZM516.578 165.58V173H515.36V167.582L512.588 172.16H512L509.256 167.568V173H508.024V165.58H509.41L512.322 170.592L515.318 165.58H516.578Z" fill="white"/>
<path d="M242.818 292.2V302H241.432V293.418H239.22V292.2H242.818ZM247.762 296.106C249.162 296.106 250.189 296.372 250.842 296.904C251.505 297.427 251.836 298.145 251.836 299.06C251.836 299.639 251.696 300.161 251.416 300.628C251.145 301.085 250.73 301.449 250.17 301.72C249.619 301.981 248.938 302.112 248.126 302.112C247.435 302.112 246.768 302.009 246.124 301.804C245.48 301.589 244.948 301.295 244.528 300.922L245.172 299.816C245.508 300.133 245.937 300.39 246.46 300.586C246.983 300.773 247.533 300.866 248.112 300.866C248.849 300.866 249.419 300.712 249.82 300.404C250.231 300.087 250.436 299.657 250.436 299.116C250.436 298.528 250.212 298.085 249.764 297.786C249.316 297.478 248.551 297.324 247.468 297.324H245.242L245.76 292.2H251.29V293.418H246.936L246.67 296.106H247.762ZM257.005 302.112C256.23 302.112 255.54 301.916 254.933 301.524C254.336 301.123 253.864 300.544 253.519 299.788C253.174 299.032 253.001 298.136 253.001 297.1C253.001 296.064 253.174 295.168 253.519 294.412C253.864 293.656 254.336 293.082 254.933 292.69C255.54 292.289 256.23 292.088 257.005 292.088C257.77 292.088 258.452 292.289 259.049 292.69C259.656 293.082 260.132 293.656 260.477 294.412C260.822 295.168 260.995 296.064 260.995 297.1C260.995 298.136 260.822 299.032 260.477 299.788C260.132 300.544 259.656 301.123 259.049 301.524C258.452 301.916 257.77 302.112 257.005 302.112ZM257.005 300.866C257.789 300.866 258.414 300.544 258.881 299.9C259.357 299.256 259.595 298.323 259.595 297.1C259.595 295.877 259.357 294.944 258.881 294.3C258.414 293.656 257.789 293.334 257.005 293.334C256.212 293.334 255.577 293.656 255.101 294.3C254.634 294.944 254.401 295.877 254.401 297.1C254.401 298.323 254.634 299.256 255.101 299.9C255.577 300.544 256.212 300.866 257.005 300.866ZM267.466 302L265.324 299.158L263.154 302H261.656L264.582 298.206L261.796 294.58H263.294L265.338 297.254L267.368 294.58H268.838L266.038 298.206L268.992 302H267.466ZM276.678 300.782V302H269.636V301.048L273.626 297.198C274.111 296.731 274.438 296.33 274.606 295.994C274.774 295.649 274.858 295.303 274.858 294.958C274.858 294.445 274.676 294.048 274.312 293.768C273.957 293.479 273.444 293.334 272.772 293.334C271.689 293.334 270.854 293.689 270.266 294.398L269.314 293.572C269.697 293.105 270.196 292.741 270.812 292.48C271.437 292.219 272.133 292.088 272.898 292.088C273.925 292.088 274.741 292.335 275.348 292.83C275.955 293.315 276.258 293.978 276.258 294.818C276.258 295.341 276.146 295.835 275.922 296.302C275.698 296.769 275.273 297.301 274.648 297.898L271.652 300.782H276.678ZM281.792 302.112C281.018 302.112 280.327 301.916 279.72 301.524C279.123 301.123 278.652 300.544 278.306 299.788C277.961 299.032 277.788 298.136 277.788 297.1C277.788 296.064 277.961 295.168 278.306 294.412C278.652 293.656 279.123 293.082 279.72 292.69C280.327 292.289 281.018 292.088 281.792 292.088C282.558 292.088 283.239 292.289 283.836 292.69C284.443 293.082 284.919 293.656 285.264 294.412C285.61 295.168 285.782 296.064 285.782 297.1C285.782 298.136 285.61 299.032 285.264 299.788C284.919 300.544 284.443 301.123 283.836 301.524C283.239 301.916 282.558 302.112 281.792 302.112ZM281.792 300.866C282.576 300.866 283.202 300.544 283.668 299.9C284.144 299.256 284.382 298.323 284.382 297.1C284.382 295.877 284.144 294.944 283.668 294.3C283.202 293.656 282.576 293.334 281.792 293.334C280.999 293.334 280.364 293.656 279.888 294.3C279.422 294.944 279.188 295.877 279.188 297.1C279.188 298.323 279.422 299.256 279.888 299.9C280.364 300.544 280.999 300.866 281.792 300.866ZM291.13 302.112C290.355 302.112 289.665 301.916 289.058 301.524C288.461 301.123 287.989 300.544 287.644 299.788C287.299 299.032 287.126 298.136 287.126 297.1C287.126 296.064 287.299 295.168 287.644 294.412C287.989 293.656 288.461 293.082 289.058 292.69C289.665 292.289 290.355 292.088 291.13 292.088C291.895 292.088 292.577 292.289 293.174 292.69C293.781 293.082 294.257 293.656 294.602 294.412C294.947 295.168 295.12 296.064 295.12 297.1C295.12 298.136 294.947 299.032 294.602 299.788C294.257 300.544 293.781 301.123 293.174 301.524C292.577 301.916 291.895 302.112 291.13 302.112ZM291.13 300.866C291.914 300.866 292.539 300.544 293.006 299.9C293.482 299.256 293.72 298.323 293.72 297.1C293.72 295.877 293.482 294.944 293.006 294.3C292.539 293.656 291.914 293.334 291.13 293.334C290.337 293.334 289.702 293.656 289.226 294.3C288.759 294.944 288.526 295.877 288.526 297.1C288.526 298.323 288.759 299.256 289.226 299.9C289.702 300.544 290.337 300.866 291.13 300.866ZM309.408 294.58V302H308.19V296.582L305.418 301.16H304.83L302.086 296.568V302H300.854V294.58H302.24L305.152 299.592L308.148 294.58H309.408ZM320.578 294.58V302H319.36V296.582L316.588 301.16H316L313.256 296.568V302H312.024V294.58H313.41L316.322 299.592L319.318 294.58H320.578Z" fill="white"/>
<path d="M280.707 226.293C280.317 225.902 279.683 225.902 279.293 226.293L272.929 232.657C272.538 233.047 272.538 233.681 272.929 234.071C273.319 234.462 273.953 234.462 274.343 234.071L280 228.414L285.657 234.071C286.047 234.462 286.681 234.462 287.071 234.071C287.462 233.681 287.462 233.047 287.071 232.657L280.707 226.293ZM279.293 271.707C279.683 272.098 280.317 272.098 280.707 271.707L287.071 265.343C287.462 264.953 287.462 264.319 287.071 263.929C286.681 263.538 286.047 263.538 285.657 263.929L280 269.586L274.343 263.929C273.953 263.538 273.319 263.538 272.929 263.929C272.538 264.319 272.538 264.953 272.929 265.343L279.293 271.707ZM279 227L279 271L281 271L281 227L279 227Z" fill="white"/>
<path d="M410.707 169.707C411.098 169.317 411.098 168.683 410.707 168.293L404.343 161.929C403.953 161.538 403.319 161.538 402.929 161.929C402.538 162.319 402.538 162.953 402.929 163.343L408.586 169L402.929 174.657C402.538 175.047 402.538 175.681 402.929 176.071C403.319 176.462 403.953 176.462 404.343 176.071L410.707 169.707ZM369.293 168.293C368.902 168.683 368.902 169.317 369.293 169.707L375.657 176.071C376.047 176.462 376.681 176.462 377.071 176.071C377.462 175.681 377.462 175.047 377.071 174.657L371.414 169L377.071 163.343C377.462 162.953 377.462 162.319 377.071 161.929C376.681 161.538 376.047 161.538 375.657 161.929L369.293 168.293ZM410 168H370V170H410V168Z" fill="white"/>
<path d="M183.707 169.707C184.098 169.317 184.098 168.683 183.707 168.293L177.343 161.929C176.953 161.538 176.319 161.538 175.929 161.929C175.538 162.319 175.538 162.953 175.929 163.343L181.586 169L175.929 174.657C175.538 175.047 175.538 175.681 175.929 176.071C176.319 176.462 176.953 176.462 177.343 176.071L183.707 169.707ZM141.293 168.293C140.902 168.683 140.902 169.317 141.293 169.707L147.657 176.071C148.047 176.462 148.681 176.462 149.071 176.071C149.462 175.681 149.462 175.047 149.071 174.657L143.414 169L149.071 163.343C149.462 162.953 149.462 162.319 149.071 161.929C148.681 161.538 148.047 161.538 147.657 161.929L141.293 168.293ZM183 168H142V170H183V168Z" fill="white"/>
<rect x="1.5" y="1.5" width="550" height="325" stroke="#46515A" stroke-width="3"/>
</svg>
