<svg width="511" height="400" fill="none" xmlns="http://www.w3.org/2000/svg"><path d="M56.506 54V37.2h7.824c1.952 0 3.472.376 4.56 1.128 1.088.752 1.632 1.824 1.632 3.216 0 1.376-.512 2.448-1.536 3.216-1.024.752-2.384 1.128-4.08 1.128l.456-1.008c1.888 0 3.352.376 4.392 1.128 1.04.752 1.56 1.84 1.56 3.264 0 1.472-.56 2.632-1.68 3.48-1.104.832-2.72 1.248-4.848 1.248h-8.28zm3.864-2.88h4.272c.896 0 1.576-.176 2.04-.528.464-.352.696-.896.696-1.632 0-.704-.232-1.224-.696-1.56-.464-.352-1.144-.528-2.04-.528H60.37v4.248zm0-6.96h3.624c.848 0 1.488-.168 1.92-.504.432-.352.648-.864.648-1.536s-.216-1.176-.648-1.512c-.432-.352-1.072-.528-1.92-.528H60.37v4.08zm20.019 10.032c-1.376 0-2.6-.288-3.672-.864a6.726 6.726 0 01-2.52-2.352c-.608-1.008-.912-2.152-.912-3.432 0-1.296.304-2.44.912-3.432a6.482 6.482 0 012.52-2.352c1.072-.576 2.296-.864 3.672-.864 1.36 0 2.576.288 3.648.864 1.072.56 1.912 1.336 2.52 2.328.608.992.912 2.144.912 3.456 0 1.28-.304 2.424-.912 3.432-.608.992-1.448 1.776-2.52 2.352-1.072.576-2.288.864-3.648.864zm0-3.072c.624 0 1.184-.144 1.68-.432a3.095 3.095 0 001.176-1.224c.288-.544.432-1.184.432-1.92 0-.752-.144-1.392-.432-1.92a3.095 3.095 0 00-1.176-1.224 3.284 3.284 0 00-1.68-.432c-.624 0-1.184.144-1.68.432a3.266 3.266 0 00-1.2 1.224c-.288.528-.432 1.168-.432 1.92 0 .736.144 1.376.432 1.92.304.528.704.936 1.2 1.224a3.284 3.284 0 001.68.432zm18.587 1.2v-8.16h-4.224l-.072 1.656a65.195 65.195 0 01-.12 1.968 8.791 8.791 0 01-.288 1.704 3.72 3.72 0 01-.576 1.272c-.256.336-.6.568-1.032.696l-3.696-.528c.464 0 .84-.136 1.128-.408.288-.288.512-.68.672-1.176.16-.512.28-1.088.36-1.728.08-.656.136-1.344.168-2.064l.168-4.464h11.256V52.32h-3.744zm-10.44 4.464v-5.856h16.032v5.856h-3.48V54h-9.072v2.784h-3.48zm24.677-2.592c-1.376 0-2.6-.288-3.672-.864a6.726 6.726 0 01-2.52-2.352c-.608-1.008-.912-2.152-.912-3.432 0-1.296.304-2.44.912-3.432a6.482 6.482 0 012.52-2.352c1.072-.576 2.296-.864 3.672-.864 1.36 0 2.576.288 3.648.864 1.072.56 1.912 1.336 2.52 2.328.608.992.912 2.144.912 3.456 0 1.28-.304 2.424-.912 3.432-.608.992-1.448 1.776-2.52 2.352-1.072.576-2.288.864-3.648.864zm0-3.072c.624 0 1.184-.144 1.68-.432a3.095 3.095 0 001.176-1.224c.288-.544.432-1.184.432-1.92 0-.752-.144-1.392-.432-1.92a3.095 3.095 0 00-1.176-1.224 3.284 3.284 0 00-1.68-.432c-.624 0-1.184.144-1.68.432a3.266 3.266 0 00-1.2 1.224c-.288.528-.432 1.168-.432 1.92 0 .736.144 1.376.432 1.92.304.528.704.936 1.2 1.224a3.284 3.284 0 001.68.432zm9.895 2.88V41.088h12.84V54h-3.744V43.32l.84.84h-7.056l.84-.84V54h-3.72zm22.717.192c-1.376 0-2.6-.288-3.672-.864a6.726 6.726 0 01-2.52-2.352c-.608-1.008-.912-2.152-.912-3.432 0-1.296.304-2.44.912-3.432a6.482 6.482 0 012.52-2.352c1.072-.576 2.296-.864 3.672-.864 1.36 0 2.576.288 3.648.864 1.072.56 1.912 1.336 2.52 2.328.608.992.912 2.144.912 3.456 0 1.28-.304 2.424-.912 3.432-.608.992-1.448 1.776-2.52 2.352-1.072.576-2.288.864-3.648.864zm0-3.072c.624 0 1.184-.144 1.68-.432a3.095 3.095 0 001.176-1.224c.288-.544.432-1.184.432-1.92 0-.752-.144-1.392-.432-1.92a3.095 3.095 0 00-1.176-1.224 3.284 3.284 0 00-1.68-.432c-.624 0-1.184.144-1.68.432a3.266 3.266 0 00-1.2 1.224c-.288.528-.432 1.168-.432 1.92 0 .736.144 1.376.432 1.92.304.528.704.936 1.2 1.224a3.284 3.284 0 001.68.432zM155.72 54V41.088h10.344v3.072H158.6l.84-.816V54h-3.72zm9.999-.024l.192-3.072.288.048h.264c.448 0 .8-.128 1.056-.384s.448-.6.576-1.032c.128-.448.216-.952.264-1.512.064-.56.112-1.144.144-1.752l.192-5.184h11.04V54h-3.744V43.248l.84.912h-5.664l.792-.96-.168 3.24a29.819 29.819 0 01-.288 3.168c-.128.96-.344 1.792-.648 2.496-.304.688-.712 1.224-1.224 1.608-.512.368-1.168.552-1.968.552-.288 0-.592-.024-.912-.072a9.966 9.966 0 01-1.032-.216zm25.584.024v-2.52l-.24-.552v-4.512c0-.8-.248-1.424-.744-1.872-.48-.448-1.224-.672-2.232-.672-.688 0-1.368.112-2.04.336-.656.208-1.216.496-1.68.864l-1.344-2.616c.704-.496 1.552-.88 2.544-1.152.992-.272 2-.408 3.024-.408 1.968 0 3.496.464 4.584 1.392 1.088.928 1.632 2.376 1.632 4.344V54h-3.504zm-3.936.192c-1.008 0-1.872-.168-2.592-.504-.72-.352-1.272-.824-1.656-1.416a3.582 3.582 0 01-.576-1.992c0-.768.184-1.44.552-2.016.384-.576.984-1.024 1.8-1.344.816-.336 1.88-.504 3.192-.504h3.432V48.6h-3.024c-.88 0-1.488.144-1.824.432-.32.288-.48.648-.48 1.08 0 .48.184.864.552 1.152.384.272.904.408 1.56.408.624 0 1.184-.144 1.68-.432.496-.304.856-.744 1.08-1.32l.576 1.728c-.272.832-.768 1.464-1.488 1.896-.72.432-1.648.648-2.784.648zm19.741-3.264l-.816.864V41.088h3.744v10.704l-.864-.864h5.952l-.84.864V41.088h3.72V54H198.3V41.088h3.72v10.704l-.84-.864h5.928zm9.216 5.64v-3.432l.84.864h-2.976v-3.072h5.616v5.64h-3.48zm11.825-2.376c-1.472 0-2.768-.288-3.888-.864-1.104-.576-1.96-1.36-2.568-2.352-.608-1.008-.912-2.152-.912-3.432 0-1.296.296-2.44.888-3.432a6.353 6.353 0 012.472-2.352c1.04-.576 2.216-.864 3.528-.864 1.264 0 2.4.272 3.408.816a5.896 5.896 0 012.424 2.304c.592.992.888 2.184.888 3.576 0 .144-.008.312-.024.504l-.048.504h-10.488v-2.184h8.52l-1.44.648c0-.672-.136-1.256-.408-1.752a2.895 2.895 0 00-1.128-1.152c-.48-.288-1.04-.432-1.68-.432-.64 0-1.208.144-1.704.432-.48.272-.856.664-1.128 1.176-.272.496-.408 1.088-.408 1.776v.576c0 .704.152 1.328.456 1.872.32.528.76.936 1.32 1.224.576.272 1.248.408 2.016.408.688 0 1.288-.104 1.8-.312a4.378 4.378 0 001.44-.936l1.992 2.16c-.592.672-1.336 1.192-2.232 1.56-.896.352-1.928.528-3.096.528zm9.35-.192V41.088h3.72v5.04h5.616v-5.04h3.744V54h-3.744v-4.824h-5.616V54h-3.72zm16.904 0V41.088h3.72v7.68l6.288-7.68h3.432V54h-3.72v-7.68L257.859 54h-3.456zm23.591.192c-1.472 0-2.768-.288-3.888-.864-1.104-.576-1.96-1.36-2.568-2.352-.608-1.008-.912-2.152-.912-3.432 0-1.296.296-2.44.888-3.432a6.353 6.353 0 012.472-2.352c1.04-.576 2.216-.864 3.528-.864 1.264 0 2.4.272 3.408.816a5.896 5.896 0 012.424 2.304c.592.992.888 2.184.888 3.576 0 .144-.008.312-.024.504l-.048.504h-10.488v-2.184h8.52l-1.44.648c0-.672-.136-1.256-.408-1.752a2.895 2.895 0 00-1.128-1.152c-.48-.288-1.04-.432-1.68-.432-.64 0-1.208.144-1.704.432-.48.272-.856.664-1.128 1.176-.272.496-.408 1.088-.408 1.776v.576c0 .704.152 1.328.456 1.872.32.528.76.936 1.32 1.224.576.272 1.248.408 2.016.408.688 0 1.288-.104 1.8-.312a4.378 4.378 0 001.44-.936l1.992 2.16c-.592.672-1.336 1.192-2.232 1.56-.896.352-1.928.528-3.096.528zM294.38 54V41.088h12.84V54h-3.744V43.32l.84.84h-7.056l.84-.84V54h-3.72zm22.718.192c-1.376 0-2.6-.288-3.672-.864a6.726 6.726 0 01-2.52-2.352c-.608-1.008-.912-2.152-.912-3.432 0-1.296.304-2.44.912-3.432a6.482 6.482 0 012.52-2.352c1.072-.576 2.296-.864 3.672-.864 1.36 0 2.576.288 3.648.864 1.072.56 1.912 1.336 2.52 2.328.608.992.912 2.144.912 3.456 0 1.28-.304 2.424-.912 3.432-.608.992-1.448 1.776-2.52 2.352-1.072.576-2.288.864-3.648.864zm0-3.072c.624 0 1.184-.144 1.68-.432a3.095 3.095 0 001.176-1.224c.288-.544.432-1.184.432-1.92 0-.752-.144-1.392-.432-1.92a3.095 3.095 0 00-1.176-1.224 3.284 3.284 0 00-1.68-.432c-.624 0-1.184.144-1.68.432a3.266 3.266 0 00-1.2 1.224c-.288.528-.432 1.168-.432 1.92 0 .736.144 1.376.432 1.92.304.528.704.936 1.2 1.224a3.284 3.284 0 001.68.432zm9.895 2.88V41.088h12.84V54h-3.744V43.32l.84.84h-7.056l.84-.84V54h-3.72zm18.422 4.848a6.555 6.555 0 01-1.992-.312c-.656-.208-1.192-.496-1.608-.864l1.368-2.664c.288.256.616.456.984.6a3.2 3.2 0 001.128.216c.528 0 .944-.128 1.248-.384.32-.24.608-.648.864-1.224l.672-1.584.288-.408 4.632-11.136h3.6l-5.832 13.704c-.416 1.04-.896 1.856-1.44 2.448-.528.592-1.12 1.008-1.776 1.248-.64.24-1.352.36-2.136.36zm2.208-4.344l-5.76-13.416h3.864l4.464 10.8-2.568 2.616zm8.476-.528l.192-3.072.288.048h.264c.448 0 .8-.128 1.056-.384s.448-.6.576-1.032c.128-.448.216-.952.264-1.512.064-.56.112-1.144.144-1.752l.192-5.184h11.04V54h-3.744V43.248l.84.912h-5.664l.792-.96-.168 3.24a29.819 29.819 0 01-.288 3.168c-.128.96-.344 1.792-.648 2.496-.304.688-.712 1.224-1.224 1.608-.512.368-1.168.552-1.968.552-.288 0-.592-.024-.912-.072a9.966 9.966 0 01-1.032-.216zm25.992.024v-4.296l.528.6h-3.576c-1.856 0-3.312-.384-4.368-1.152-1.056-.768-1.584-1.872-1.584-3.312 0-1.536.552-2.712 1.656-3.528 1.12-.816 2.624-1.224 4.512-1.224h6.168V54h-3.336zm-9.192 0l3.432-4.92h3.816L376.883 54h-3.984zm9.192-5.448v-5.376l.528.96h-3.288c-.768 0-1.368.144-1.8.432-.416.288-.624.752-.624 1.392 0 1.232.792 1.848 2.376 1.848h3.336l-.528.744zm14.783 5.64c-1.088 0-2.04-.24-2.856-.72-.816-.48-1.456-1.208-1.92-2.184-.448-.992-.672-2.24-.672-3.744 0-1.52.216-2.768.648-3.744.432-.976 1.056-1.704 1.872-2.184.816-.48 1.792-.72 2.928-.72 1.216 0 2.304.28 3.264.84a5.907 5.907 0 012.304 2.304c.576.992.864 2.16.864 3.504 0 1.36-.288 2.536-.864 3.528a5.907 5.907 0 01-2.304 2.304c-.96.544-2.048.816-3.264.816zm-7.632 4.464V41.088h3.576v2.64l-.072 3.84.24 3.816v7.272h-3.744zm6.984-7.536c.624 0 1.176-.144 1.656-.432a3.095 3.095 0 001.176-1.224c.304-.544.456-1.184.456-1.92 0-.752-.152-1.392-.456-1.92a3.095 3.095 0 00-1.176-1.224c-.48-.288-1.032-.432-1.656-.432-.624 0-1.184.144-1.68.432a3.095 3.095 0 00-1.176 1.224c-.288.528-.432 1.168-.432 1.92 0 .736.144 1.376.432 1.92.288.528.68.936 1.176 1.224a3.284 3.284 0 001.68.432zM406.17 54V41.088h3.72v5.04h5.616v-5.04h3.744V54h-3.744v-4.824h-5.616V54h-3.72zm30.2 0V41.088h3.72V54h-3.72zm-6.504-8.784c1.696.016 2.968.4 3.816 1.152.864.736 1.296 1.784 1.296 3.144 0 1.424-.488 2.536-1.464 3.336-.976.784-2.36 1.176-4.152 1.176L423.074 54V41.088h3.72v4.128h3.072zm-.84 6.144c.72.016 1.272-.136 1.656-.456.384-.32.576-.8.576-1.44 0-.64-.192-1.096-.576-1.368-.384-.288-.936-.44-1.656-.456l-2.232-.024v3.744h2.232zM442.211 54l5.784-7.584-.072 2.064-5.544-7.392h4.2l3.504 4.824-1.584.048 3.624-4.872h3.984l-5.568 7.32v-2.016l5.76 7.608h-4.248l-3.672-5.136 1.56.216-3.648 4.92h-4.08zM58.009 85.192c-1.392 0-2.632-.28-3.72-.84-1.088-.576-1.944-1.368-2.568-2.376-.608-1.008-.912-2.152-.912-3.432 0-1.296.304-2.44.912-3.432a6.4 6.4 0 012.568-2.352c1.088-.576 2.328-.864 3.72-.864 1.36 0 2.544.288 3.552.864a5.132 5.132 0 012.232 2.424l-2.904 1.56c-.336-.608-.76-1.056-1.272-1.344a3.192 3.192 0 00-1.632-.432c-.64 0-1.216.144-1.728.432-.512.288-.92.696-1.224 1.224-.288.528-.432 1.168-.432 1.92s.144 1.392.432 1.92c.304.528.712.936 1.224 1.224a3.463 3.463 0 001.728.432c.592 0 1.136-.136 1.632-.408.512-.288.936-.744 1.272-1.368l2.904 1.584a5.282 5.282 0 01-2.232 2.424c-1.008.56-2.192.84-3.552.84zM69.044 85V74.296l.84.864h-5.208v-3.072h12.456v3.072h-5.208l.84-.864V85h-3.72zm17.932.192c-1.088 0-2.04-.24-2.856-.72-.816-.48-1.456-1.208-1.92-2.184-.448-.992-.672-2.24-.672-3.744 0-1.52.216-2.768.648-3.744.432-.976 1.056-1.704 1.872-2.184.816-.48 1.792-.72 2.928-.72 1.216 0 2.304.28 3.264.84a5.907 5.907 0 012.304 2.304c.576.992.864 2.16.864 3.504 0 1.36-.288 2.536-.864 3.528a5.907 5.907 0 01-2.304 2.304c-.96.544-2.048.816-3.264.816zm-7.632 4.464V72.088h3.576v2.64l-.072 3.84.24 3.816v7.272h-3.744zm6.984-7.536c.624 0 1.176-.144 1.656-.432a3.095 3.095 0 001.176-1.224c.304-.544.456-1.184.456-1.92 0-.752-.152-1.392-.456-1.92a3.095 3.095 0 00-1.176-1.224c-.48-.288-1.032-.432-1.656-.432-.624 0-1.184.144-1.68.432a3.095 3.095 0 00-1.176 1.224c-.288.528-.432 1.168-.432 1.92 0 .736.144 1.376.432 1.92.288.528.68.936 1.176 1.224a3.284 3.284 0 001.68.432zm15.992 3.072c-1.376 0-2.6-.288-3.672-.864a6.726 6.726 0 01-2.52-2.352c-.608-1.008-.912-2.152-.912-3.432 0-1.296.304-2.44.912-3.432a6.482 6.482 0 012.52-2.352c1.072-.576 2.296-.864 3.672-.864 1.36 0 2.576.288 3.648.864 1.072.56 1.912 1.336 2.52 2.328.608.992.912 2.144.912 3.456 0 1.28-.304 2.424-.912 3.432-.608.992-1.448 1.776-2.52 2.352-1.072.576-2.288.864-3.648.864zm0-3.072c.624 0 1.184-.144 1.68-.432a3.095 3.095 0 001.176-1.224c.288-.544.432-1.184.432-1.92 0-.752-.144-1.392-.432-1.92A3.095 3.095 0 00104 75.4a3.284 3.284 0 00-1.68-.432c-.624 0-1.184.144-1.68.432a3.266 3.266 0 00-1.2 1.224c-.288.528-.432 1.168-.432 1.92 0 .736.144 1.376.432 1.92.304.528.704.936 1.2 1.224a3.284 3.284 0 001.68.432zm9.895 2.88V72.088h3.72v7.68l6.288-7.68h3.432V85h-3.72v-7.68L115.671 85h-3.456zm20.039 0V74.296l.84.864h-5.208v-3.072h12.456v3.072h-5.208l.84-.864V85h-3.72zm16.097.192c-1.472 0-2.768-.288-3.888-.864-1.104-.576-1.96-1.36-2.568-2.352-.608-1.008-.912-2.152-.912-3.432 0-1.296.296-2.44.888-3.432a6.353 6.353 0 012.472-2.352c1.04-.576 2.216-.864 3.528-.864 1.264 0 2.4.272 3.408.816a5.896 5.896 0 012.424 2.304c.592.992.888 2.184.888 3.576 0 .144-.008.312-.024.504l-.048.504h-10.488v-2.184h8.52l-1.44.648c0-.672-.136-1.256-.408-1.752a2.895 2.895 0 00-1.128-1.152c-.48-.288-1.04-.432-1.68-.432-.64 0-1.208.144-1.704.432-.48.272-.856.664-1.128 1.176-.272.496-.408 1.088-.408 1.776v.576c0 .704.152 1.328.456 1.872.32.528.76.936 1.32 1.224.576.272 1.248.408 2.016.408.688 0 1.288-.104 1.8-.312a4.378 4.378 0 001.44-.936l1.992 2.16c-.592.672-1.336 1.192-2.232 1.56-.896.352-1.928.528-3.096.528zm7.601-.216l.192-3.072.288.048h.264c.448 0 .8-.128 1.056-.384s.448-.6.576-1.032c.128-.448.216-.952.264-1.512.064-.56.112-1.144.144-1.752l.192-5.184h11.04V85h-3.744V74.248l.84.912H161.4l.792-.96-.168 3.24a29.819 29.819 0 01-.288 3.168c-.128.96-.344 1.792-.648 2.496-.304.688-.712 1.224-1.224 1.608-.512.368-1.168.552-1.968.552-.288 0-.592-.024-.912-.072a9.966 9.966 0 01-1.032-.216zm24.84-8.76c1.696.016 2.984.4 3.864 1.152.896.736 1.344 1.784 1.344 3.144 0 1.424-.504 2.536-1.512 3.336-1.008.784-2.408 1.176-4.2 1.176l-6.48-.024V72.088h3.72v4.128h3.264zm-.84 6.144c.72.016 1.272-.136 1.656-.456.384-.32.576-.8.576-1.44 0-.64-.192-1.096-.576-1.368-.384-.288-.936-.44-1.656-.456l-2.424-.024v3.744h2.424zm8.627 2.64V72.088h3.72v5.04h5.616v-5.04h3.744V85h-3.744v-4.824h-5.616V85h-3.72zm30.2 0V72.088h3.72V85h-3.72zm-6.504-8.784c1.696.016 2.968.4 3.816 1.152.864.736 1.296 1.784 1.296 3.144 0 1.424-.488 2.536-1.464 3.336-.976.784-2.36 1.176-4.152 1.176L205.483 85V72.088h3.72v4.128h3.072zm-.84 6.144c.72.016 1.272-.136 1.656-.456.384-.32.576-.8.576-1.44 0-.64-.192-1.096-.576-1.368-.384-.288-.936-.44-1.656-.456l-2.232-.024v3.744h2.232zM224.62 85l5.784-7.584-.072 2.064-5.544-7.392h4.2l3.504 4.824-1.584.048 3.624-4.872h3.984l-5.568 7.32v-2.016l5.76 7.608h-4.248l-3.672-5.136 1.56.216L228.7 85h-4.08zm23.208 0V72.088h3.912l4.872 8.832h-1.56l5.208-8.832h3.504L263.812 85h-3.384v-9.072l.576.384-4.44 7.44h-1.584l-4.464-7.704.696-.168V85h-3.384zm27.539 0v-2.52l-.24-.552v-4.512c0-.8-.248-1.424-.744-1.872-.48-.448-1.224-.672-2.232-.672-.688 0-1.368.112-2.04.336-.656.208-1.216.496-1.68.864l-1.344-2.616c.704-.496 1.552-.88 2.544-1.152.992-.272 2-.408 3.024-.408 1.968 0 3.496.464 4.584 1.392 1.088.928 1.632 2.376 1.632 4.344V85h-3.504zm-3.936.192c-1.008 0-1.872-.168-2.592-.504-.72-.352-1.272-.824-1.656-1.416a3.582 3.582 0 01-.576-1.992c0-.768.184-1.44.552-2.016.384-.576.984-1.024 1.8-1.344.816-.336 1.88-.504 3.192-.504h3.432V79.6h-3.024c-.88 0-1.488.144-1.824.432-.32.288-.48.648-.48 1.08 0 .48.184.864.552 1.152.384.272.904.408 1.56.408.624 0 1.184-.144 1.68-.432.496-.304.856-.744 1.08-1.32l.576 1.728c-.272.832-.768 1.464-1.488 1.896-.72.432-1.648.648-2.784.648zM285.123 85V74.296l.84.864h-5.208v-3.072h12.456v3.072h-5.208l.84-.864V85h-3.72zm16.097.192c-1.472 0-2.768-.288-3.888-.864-1.104-.576-1.96-1.36-2.568-2.352-.608-1.008-.912-2.152-.912-3.432 0-1.296.296-2.44.888-3.432a6.353 6.353 0 012.472-2.352c1.04-.576 2.216-.864 3.528-.864 1.264 0 2.4.272 3.408.816a5.896 5.896 0 012.424 2.304c.592.992.888 2.184.888 3.576 0 .144-.008.312-.024.504l-.048.504H296.9v-2.184h8.52l-1.44.648c0-.672-.136-1.256-.408-1.752a2.895 2.895 0 00-1.128-1.152c-.48-.288-1.04-.432-1.68-.432-.64 0-1.208.144-1.704.432-.48.272-.856.664-1.128 1.176-.272.496-.408 1.088-.408 1.776v.576c0 .704.152 1.328.456 1.872.32.528.76.936 1.32 1.224.576.272 1.248.408 2.016.408.688 0 1.288-.104 1.8-.312a4.378 4.378 0 001.44-.936l1.992 2.16c-.592.672-1.336 1.192-2.232 1.56-.896.352-1.928.528-3.096.528zm16.958 0c-1.088 0-2.04-.24-2.856-.72-.816-.48-1.456-1.208-1.92-2.184-.448-.992-.672-2.24-.672-3.744 0-1.52.216-2.768.648-3.744.432-.976 1.056-1.704 1.872-2.184.816-.48 1.792-.72 2.928-.72 1.216 0 2.304.28 3.264.84a5.907 5.907 0 012.304 2.304c.576.992.864 2.16.864 3.504 0 1.36-.288 2.536-.864 3.528a5.907 5.907 0 01-2.304 2.304c-.96.544-2.048.816-3.264.816zm-7.632 4.464V72.088h3.576v2.64l-.072 3.84.24 3.816v7.272h-3.744zm6.984-7.536c.624 0 1.176-.144 1.656-.432a3.095 3.095 0 001.176-1.224c.304-.544.456-1.184.456-1.92 0-.752-.152-1.392-.456-1.92a3.095 3.095 0 00-1.176-1.224c-.48-.288-1.032-.432-1.656-.432-.624 0-1.184.144-1.68.432a3.095 3.095 0 00-1.176 1.224c-.288.528-.432 1.168-.432 1.92 0 .736.144 1.376.432 1.92.288.528.68.936 1.176 1.224a3.284 3.284 0 001.68.432zm9.944 2.88V72.088h3.72v7.68l6.288-7.68h3.432V85h-3.72v-7.68L330.93 85h-3.456zm25.007 0v-2.52l-.24-.552v-4.512c0-.8-.248-1.424-.744-1.872-.48-.448-1.224-.672-2.232-.672-.688 0-1.368.112-2.04.336-.656.208-1.216.496-1.68.864l-1.344-2.616c.704-.496 1.552-.88 2.544-1.152.992-.272 2-.408 3.024-.408 1.968 0 3.496.464 4.584 1.392 1.088.928 1.632 2.376 1.632 4.344V85h-3.504zm-3.936.192c-1.008 0-1.872-.168-2.592-.504-.72-.352-1.272-.824-1.656-1.416a3.582 3.582 0 01-.576-1.992c0-.768.184-1.44.552-2.016.384-.576.984-1.024 1.8-1.344.816-.336 1.88-.504 3.192-.504h3.432V79.6h-3.024c-.88 0-1.488.144-1.824.432-.32.288-.48.648-.48 1.08 0 .48.184.864.552 1.152.384.272.904.408 1.56.408.624 0 1.184-.144 1.68-.432.496-.304.856-.744 1.08-1.32l.576 1.728c-.272.832-.768 1.464-1.488 1.896-.72.432-1.648.648-2.784.648zm9.3-.216l.192-3.072.288.048h.264c.448 0 .8-.128 1.056-.384s.448-.6.576-1.032c.128-.448.216-.952.264-1.512.064-.56.112-1.144.144-1.752l.192-5.184h11.04V85h-3.744V74.248l.84.912h-5.664l.792-.96-.168 3.24a29.819 29.819 0 01-.288 3.168c-.128.96-.344 1.792-.648 2.496-.304.688-.712 1.224-1.224 1.608-.512.368-1.168.552-1.968.552-.288 0-.592-.024-.912-.072a9.966 9.966 0 01-1.032-.216zm23.905.216c-1.376 0-2.6-.288-3.672-.864a6.726 6.726 0 01-2.52-2.352c-.608-1.008-.912-2.152-.912-3.432 0-1.296.304-2.44.912-3.432a6.482 6.482 0 012.52-2.352c1.072-.576 2.296-.864 3.672-.864 1.36 0 2.576.288 3.648.864 1.072.56 1.912 1.336 2.52 2.328.608.992.912 2.144.912 3.456 0 1.28-.304 2.424-.912 3.432-.608.992-1.448 1.776-2.52 2.352-1.072.576-2.288.864-3.648.864zm0-3.072c.624 0 1.184-.144 1.68-.432a3.095 3.095 0 001.176-1.224c.288-.544.432-1.184.432-1.92 0-.752-.144-1.392-.432-1.92a3.095 3.095 0 00-1.176-1.224 3.284 3.284 0 00-1.68-.432c-.624 0-1.184.144-1.68.432a3.266 3.266 0 00-1.2 1.224c-.288.528-.432 1.168-.432 1.92 0 .736.144 1.376.432 1.92.304.528.704.936 1.2 1.224a3.284 3.284 0 001.68.432zm9.895 2.88V72.088h6.6c1.616 0 2.88.296 3.792.888.912.576 1.368 1.392 1.368 2.448s-.432 1.888-1.296 2.496c-.848.592-1.976.888-3.384.888l.384-.864c1.568 0 2.736.288 3.504.864.784.576 1.176 1.416 1.176 2.52 0 1.136-.432 2.032-1.296 2.688-.864.656-2.184.984-3.96.984h-6.888zm3.432-2.544h3.144c.688 0 1.2-.112 1.536-.336.352-.24.528-.6.528-1.08 0-.496-.16-.856-.48-1.08-.32-.24-.824-.36-1.512-.36h-3.216v2.856zm0-5.064h2.832c.656 0 1.144-.12 1.464-.36.336-.24.504-.584.504-1.032 0-.464-.168-.808-.504-1.032-.32-.224-.808-.336-1.464-.336h-2.832v2.76zm20.041-6.888l-3.192 1.752v-.624l3.192 1.728-1.176 1.968-2.976-1.776.336-.216.048 3.336h-2.256l.024-3.336.336.216-2.976 1.776-1.152-1.968 3.192-1.728v.624l-3.192-1.752 1.152-1.968 2.976 1.8-.336.192-.024-3.336h2.256l-.048 3.336-.336-.192 2.976-1.8 1.176 1.968zm12.332 19.152c-.96-1.456-1.704-3.136-2.232-5.04-.512-1.92-.768-3.984-.768-6.192s.256-4.272.768-6.192c.528-1.936 1.272-3.616 2.232-5.04h3.576c-1.008 1.808-1.744 3.632-2.208 5.472-.464 1.824-.696 3.744-.696 5.76 0 2.016.232 3.944.696 5.784.464 1.824 1.2 3.64 2.208 5.448h-3.576zM434.876 85l11.472-16.8h2.856L437.732 85h-2.856zm1.464-7.728c-.816 0-1.536-.184-2.16-.552a4.13 4.13 0 01-1.488-1.608c-.352-.704-.528-1.528-.528-2.472s.176-1.76.528-2.448a4.13 4.13 0 011.488-1.608c.624-.384 1.344-.576 2.16-.576.816 0 1.536.192 2.16.576a3.96 3.96 0 011.464 1.608c.352.688.528 1.504.528 2.448s-.176 1.768-.528 2.472a3.96 3.96 0 01-1.464 1.608c-.624.368-1.344.552-2.16.552zm0-1.968c.528 0 .952-.216 1.272-.648.32-.448.48-1.12.48-2.016 0-.896-.16-1.56-.48-1.992-.32-.448-.744-.672-1.272-.672-.512 0-.936.224-1.272.672-.32.432-.48 1.096-.48 1.992 0 .88.16 1.544.48 1.992.336.448.76.672 1.272.672zm11.4 9.888c-.8 0-1.52-.184-2.16-.552a3.96 3.96 0 01-1.464-1.608c-.352-.704-.528-1.528-.528-2.472s.176-1.76.528-2.448a3.96 3.96 0 011.464-1.608c.64-.384 1.36-.576 2.16-.576.832 0 1.56.192 2.184.576a3.96 3.96 0 011.464 1.608c.352.688.528 1.504.528 2.448s-.176 1.768-.528 2.472a3.96 3.96 0 01-1.464 1.608c-.624.368-1.352.552-2.184.552zm0-1.968c.528 0 .952-.216 1.272-.648.32-.448.48-1.12.48-2.016 0-.88-.16-1.544-.48-1.992-.32-.448-.744-.672-1.272-.672-.512 0-.936.224-1.272.672-.32.432-.48 1.096-.48 1.992 0 .896.16 1.568.48 2.016.336.432.76.648 1.272.648zm8.41 6.432h-3.576c1.04-1.808 1.784-3.624 2.232-5.448a23.57 23.57 0 00.696-5.784c0-2.016-.232-3.936-.696-5.76-.448-1.84-1.192-3.664-2.232-5.472h3.576c.992 1.424 1.744 3.104 2.256 5.04.512 1.92.768 3.984.768 6.192s-.256 4.272-.768 6.192c-.512 1.904-1.264 3.584-2.256 5.04z" fill="#444F57"/><path fill="#4B5760" d="M236.445 117h9.18v23h-9.18zm-11.366 0h9.18v23h-9.18zm-11.365 0h9.18v23h-9.18zm-11.366 0h9.18v23h-9.18zm-11.365 0h9.18v23h-9.18zm-11.366 0h9.18v23h-9.18zm-11.365 0h9.18v23h-9.18zm-11.366 0h9.18v23h-9.18zm-11.365 0h9.18v23h-9.18zm90.924 45h9.18v23h-9.18zm-11.365 0h9.18v23h-9.18zm-11.366 0h9.18v23h-9.18zm-11.365 0h9.18v23h-9.18zm-11.366 0h9.18v23h-9.18zm-11.365 0h9.18v23h-9.18zm-11.366 0h9.18v23h-9.18zm-11.366 0h9.18v23h-9.18zm-11.365 0h9.18v23h-9.18zm-11.366 0h9.18v23h-9.18zm-11.365 0h9.18v23h-9.18zm-11.366 0h9.18v23h-9.18zm125.021 45h9.18v23h-9.18zm-11.365 0h9.18v23h-9.18zm-11.366 0h9.18v23h-9.18zm-11.365 0h9.18v23h-9.18zm-11.366 0h9.18v23h-9.18zm-11.365 0h9.18v23h-9.18zm-11.366 0h9.18v23h-9.18zm-11.366 0h9.18v23h-9.18zm-11.365 0h9.18v23h-9.18zm-11.366 0h9.18v23h-9.18zm-11.365 0h9.18v23h-9.18zm-11.366 0h9.18v23h-9.18zm-11.365 0h9.18v23h-9.18zm-11.366 0h9.18v23h-9.18zm147.752 45h9.18v23h-9.18zm-11.365 0h9.18v23h-9.18zm-11.366 0h9.18v23h-9.18zm-11.365 0h9.18v23h-9.18zm-11.366 0h9.18v23h-9.18zm-11.365 0h9.18v23h-9.18zm-11.366 0h9.18v23h-9.18zm-11.366 0h9.18v23h-9.18zm-11.365 0h9.18v23h-9.18zm-11.365 0h9.18v23h-9.18zm-11.366 0h9.18v23h-9.18zm-11.366 0h9.18v23h-9.18zm-11.365 0h9.18v23h-9.18zm-11.366 0h9.18v23h-9.18zm-11.365 0h9.18v23h-9.18zm-11.366 0h9.18v23h-9.18zm170.483 45h9.18v23h-9.18zm-11.365 0h9.18v23h-9.18zm-11.366 0h9.18v23h-9.18zm-11.365 0h9.18v23h-9.18zm-11.366 0h9.18v23h-9.18zm-11.365 0h9.18v23h-9.18zm-11.366 0h9.18v23h-9.18zm-11.366 0h9.18v23h-9.18zm-11.365 0h9.18v23h-9.18zm-11.366 0h9.18v23h-9.18zm-11.365 0h9.18v23h-9.18zm-11.365 0h9.18v23h-9.18zm-11.366 0h9.18v23h-9.18zm-11.366 0h9.18v23h-9.18zm-11.365 0h9.18v23h-9.18zm-11.366 0h9.18v23h-9.18zm-11.365 0h9.18v23h-9.18zm-11.366 0h9.18v23h-9.18zm-11.365 0h9.18v23h-9.18zM20.5 297h9.18v23H20.5z"/><g clip-path="url(#clip0_401_381)" fill="#444F57"><path d="M273.957 129v-8.47l.518.518h-3.64V119.2h8.498v1.848h-3.64l.504-.518V129h-2.24zm8.886-5.852h4.718v1.764h-4.718v-1.764zm.168 4.032h5.334V129h-7.588v-9.8h7.406v1.82h-5.152v6.16zm7.166 1.82v-9.8h4.242c.877 0 1.633.145 2.268.434.635.28 1.125.686 1.47 1.218.345.532.518 1.167.518 1.904 0 .728-.173 1.358-.518 1.89-.345.532-.835.943-1.47 1.232-.635.28-1.391.42-2.268.42h-2.982l1.008-1.022V129h-2.268zm2.268-3.472l-1.008-1.078h2.856c.7 0 1.223-.149 1.568-.448.345-.299.518-.714.518-1.246 0-.541-.173-.961-.518-1.26-.345-.299-.868-.448-1.568-.448h-2.856l1.008-1.078v5.558zm9.812-2.38h4.718v1.764h-4.718v-1.764zm.168 4.032h5.334V129h-7.588v-9.8h7.406v1.82h-5.152v6.16zm6.216-7.98h2.618l2.03 2.968 2.03-2.968h2.66l-3.262 4.69 3.528 5.11h-2.674l-2.282-3.248-2.254 3.248h-2.618l3.5-5.012-3.276-4.788zm15.293 9.968a6.012 6.012 0 01-2.156-.378 5.174 5.174 0 01-1.708-1.064 4.982 4.982 0 01-1.12-1.61 5.097 5.097 0 01-.392-2.016c0-.728.13-1.4.392-2.016a4.871 4.871 0 011.134-1.61 5.174 5.174 0 011.708-1.064 5.86 5.86 0 012.128-.378c.774 0 1.484.126 2.128.378a5.031 5.031 0 011.694 1.064 4.9 4.9 0 011.134 1.61c.27.607.406 1.279.406 2.016 0 .728-.136 1.405-.406 2.03a4.9 4.9 0 01-1.134 1.61 5.143 5.143 0 01-1.694 1.05 5.754 5.754 0 01-2.114.378zm-.014-1.932c.438 0 .84-.075 1.204-.224a2.863 2.863 0 001.624-1.638c.158-.383.238-.807.238-1.274 0-.467-.08-.891-.238-1.274a2.863 2.863 0 00-.644-.994 2.744 2.744 0 00-.966-.644 3.261 3.261 0 00-1.218-.224c-.439 0-.845.075-1.218.224a2.917 2.917 0 00-.966.644c-.28.28-.5.611-.658.994-.15.383-.224.807-.224 1.274 0 .457.074.882.224 1.274.158.383.373.714.644.994.28.28.606.495.98.644.373.149.779.224 1.218.224zm7.109 1.764v-9.8h4.564c1.138 0 2.025.219 2.66.658.634.439.952 1.064.952 1.876 0 .803-.299 1.428-.896 1.876-.598.439-1.391.658-2.38.658l.266-.588c1.101 0 1.955.219 2.562.658.606.439.91 1.073.91 1.904 0 .859-.327 1.535-.98 2.03-.644.485-1.587.728-2.828.728h-4.83zm2.254-1.68h2.492c.522 0 .919-.103 1.19-.308.27-.205.406-.523.406-.952 0-.411-.136-.714-.406-.91-.271-.205-.668-.308-1.19-.308h-2.492v2.478zm0-4.06h2.114c.494 0 .868-.098 1.12-.294.252-.205.378-.504.378-.896s-.126-.686-.378-.882c-.252-.205-.626-.308-1.12-.308h-2.114v2.38zm12.811 5.908c-.756 0-1.46-.121-2.114-.364a5.06 5.06 0 01-1.68-1.064 4.997 4.997 0 01-1.12-1.61 5.152 5.152 0 01-.392-2.03c0-.737.131-1.414.392-2.03a4.997 4.997 0 011.12-1.61 5.043 5.043 0 011.694-1.05 5.754 5.754 0 012.114-.378c.85 0 1.615.149 2.296.448.691.289 1.27.719 1.736 1.288l-1.456 1.344a3.319 3.319 0 00-1.12-.854 3.075 3.075 0 00-1.344-.294c-.457 0-.877.075-1.26.224a2.858 2.858 0 00-.994.644c-.28.28-.499.611-.658.994a3.484 3.484 0 00-.224 1.274c0 .467.075.891.224 1.274.159.383.378.714.658.994s.612.495.994.644c.383.149.803.224 1.26.224a3.2 3.2 0 001.344-.28c.411-.196.784-.49 1.12-.882l1.456 1.344a4.538 4.538 0 01-1.736 1.302c-.681.299-1.451.448-2.31.448zm11.867-.168l-3.052-4.718 1.834-1.106 3.794 5.824h-2.576zm-6.37 0v-9.8h2.254v9.8h-2.254zm1.596-3.948v-1.89h3.416v1.89h-3.416zm3.766-.7l-2.086-.252 3.178-4.9h2.394l-3.486 5.152zm4.646 4.648v-9.8h2.254v6.384l4.676-6.384h2.128v9.8h-2.24v-6.37l-4.676 6.37h-2.142zm11.498 0v-9.8h2.254v6.384l4.676-6.384h2.128v9.8h-2.24v-6.37l-4.676 6.37h-2.142zm4.522-10.43c-.933 0-1.619-.187-2.058-.56-.429-.373-.649-.901-.658-1.582h1.554c.009.336.107.593.294.77.196.168.485.252.868.252.373 0 .658-.084.854-.252.196-.177.299-.434.308-.77h1.554c-.009.681-.233 1.209-.672 1.582-.439.373-1.12.56-2.044.56zM271.843 144v-9.8h7.91v1.806h-5.656v2.016h2.716c1.185 0 2.086.247 2.702.742.625.495.938 1.213.938 2.156 0 .971-.345 1.727-1.036 2.268-.691.541-1.666.812-2.926.812h-4.648zm2.254-1.68h2.268c.579 0 1.022-.112 1.33-.336.308-.233.462-.569.462-1.008 0-.859-.597-1.288-1.792-1.288h-2.268v2.632zm7.948 1.834c-.168 0-.346-.014-.532-.042a9.99 9.99 0 01-.588-.112l.14-1.918c.13.037.266.056.406.056.382 0 .681-.154.896-.462.214-.317.368-.77.462-1.358.093-.588.154-1.302.182-2.142l.14-3.976h7.532v9.8h-2.24v-8.47l.518.518h-4.326l.462-.546-.084 2.59a24.35 24.35 0 01-.196 2.562c-.103.747-.262 1.381-.476 1.904-.215.523-.509.919-.882 1.19-.374.271-.845.406-1.414.406zm15.775.014a6.02 6.02 0 01-2.156-.378 5.194 5.194 0 01-1.708-1.064 4.997 4.997 0 01-1.12-1.61 5.115 5.115 0 01-.392-2.016c0-.728.131-1.4.392-2.016a4.9 4.9 0 011.134-1.61 5.194 5.194 0 011.708-1.064 5.867 5.867 0 012.128-.378c.775 0 1.484.126 2.128.378a5.021 5.021 0 011.694 1.064 4.89 4.89 0 011.54 3.626c0 .728-.135 1.405-.406 2.03a4.871 4.871 0 01-1.134 1.61 5.132 5.132 0 01-1.694 1.05 5.75 5.75 0 01-2.114.378zm-.014-1.932c.439 0 .84-.075 1.204-.224a2.875 2.875 0 001.624-1.638 3.29 3.29 0 00.238-1.274 3.29 3.29 0 00-.238-1.274 2.849 2.849 0 00-.644-.994 2.726 2.726 0 00-.966-.644 3.254 3.254 0 00-1.218-.224c-.438 0-.844.075-1.218.224a2.917 2.917 0 00-.966.644c-.28.28-.499.611-.658.994a3.484 3.484 0 00-.224 1.274c0 .457.075.882.224 1.274.159.383.374.714.644.994.28.28.607.495.98.644.374.149.78.224 1.218.224zM311.257 144l-3.052-4.718 1.834-1.106 3.794 5.824h-2.576zm-6.37 0v-9.8h2.254v9.8h-2.254zm1.596-3.948v-1.89h3.416v1.89h-3.416zm3.766-.7l-2.086-.252 3.178-4.9h2.394l-3.486 5.152zM278.185 175l-3.052-4.718 1.834-1.106 3.794 5.824h-2.576zm-6.37 0v-9.8h2.254v9.8h-2.254zm1.596-3.948v-1.89h3.416v1.89h-3.416zm3.766-.7l-2.086-.252 3.178-4.9h2.394l-3.486 5.152zm4.647 4.648v-9.8h2.254v6.384l4.676-6.384h2.128v9.8h-2.24v-6.37l-4.676 6.37h-2.142zm11.498 0v-9.8h4.242c.877 0 1.633.145 2.268.434.634.28 1.124.686 1.47 1.218.345.532.518 1.167.518 1.904 0 .728-.173 1.358-.518 1.89-.346.532-.836.943-1.47 1.232-.635.28-1.391.42-2.268.42h-2.982l1.008-1.022V175h-2.268zm2.268-3.472l-1.008-1.078h2.856c.7 0 1.222-.149 1.568-.448.345-.299.518-.714.518-1.246 0-.541-.173-.961-.518-1.26-.346-.299-.868-.448-1.568-.448h-2.856l1.008-1.078v5.558zm7.726 3.472v-9.8h8.932v9.8h-2.254v-8.47l.518.518h-5.46l.518-.518V175h-2.254zm11.361 0v-9.8h2.254v6.384l4.676-6.384h2.128v9.8h-2.24v-6.37l-4.676 6.37h-2.142zm17.357-3.654a9.359 9.359 0 01-1.4.448c-.448.093-.878.14-1.288.14-1.316 0-2.324-.313-3.024-.938-.7-.635-1.05-1.545-1.05-2.73V165.2h2.24v2.814c0 .672.182 1.181.546 1.526.364.336.882.504 1.554.504.429 0 .844-.047 1.246-.14a4.915 4.915 0 001.12-.434l.056 1.876zm-.322 3.654v-9.8h2.24v9.8h-2.24zm11.396-9.8h2.268v9.8h-2.268v-9.8zm-4.452 9.8h-2.268v-9.8h2.268v9.8zm4.62-4.018h-4.788v-1.918h4.788v1.918zm9.301-2.562c1.186 0 2.1.266 2.744.798.644.523.966 1.311.966 2.366 0 1.12-.359 1.969-1.078 2.548-.709.579-1.694.868-2.954.868h-4.424v-9.8h2.254v3.22h2.492zm-.448 4.9c.579 0 1.036-.145 1.372-.434.336-.289.504-.709.504-1.26 0-.541-.168-.929-.504-1.162-.326-.243-.784-.364-1.372-.364h-2.044v3.22h2.044zm5.404 1.68v-9.8h2.254v9.8h-2.254zm4.695 0v-9.8h2.254v6.384l4.676-6.384h2.128v9.8h-2.24v-6.37L364.37 175h-2.142zm4.522-10.43c-.933 0-1.619-.187-2.058-.56-.429-.373-.649-.901-.658-1.582h1.554c.009.336.107.593.294.77.196.168.485.252.868.252.373 0 .658-.084.854-.252.196-.177.299-.434.308-.77h1.554c-.009.681-.233 1.209-.672 1.582-.439.373-1.12.56-2.044.56zM271.843 190v-9.8h6.916l-.014 1.848h-5.18l.518-.518.014 8.47h-2.254zm7.18.154c-.168 0-.345-.014-.532-.042a10.312 10.312 0 01-.588-.112l.14-1.918c.131.037.266.056.406.056.383 0 .681-.154.896-.462.215-.317.369-.77.462-1.358.093-.588.154-1.302.182-2.142l.14-3.976h7.532v9.8h-2.24v-8.47l.518.518h-4.326l.462-.546-.084 2.59a24.085 24.085 0 01-.196 2.562c-.103.747-.261 1.381-.476 1.904-.215.523-.509.919-.882 1.19-.373.271-.845.406-1.414.406zm11.086-.154v-9.8h2.254v6.384l4.676-6.384h2.128v9.8h-2.24v-6.37l-4.676 6.37h-2.142zm18.218-9.8h2.268v9.8h-2.268v-9.8zm-4.452 9.8h-2.268v-9.8h2.268v9.8zm4.62-4.018h-4.788v-1.918h4.788v1.918zM318.636 190v-3.094l.56.49h-2.688c-.849 0-1.582-.14-2.198-.42-.616-.28-1.087-.686-1.414-1.218-.327-.532-.49-1.167-.49-1.904 0-.765.173-1.419.518-1.96a3.387 3.387 0 011.484-1.26c.635-.289 1.381-.434 2.24-.434h4.228v9.8h-2.24zm-6.202 0l2.436-3.514h2.296L314.828 190h-2.394zm6.202-3.822v-4.718l.56.588h-2.492c-.644 0-1.139.149-1.484.448-.336.299-.504.742-.504 1.33 0 .569.163 1.008.49 1.316.327.308.807.462 1.442.462h2.548l-.56.574zm11.415-5.978h2.268v9.8h-2.268v-9.8zm-4.452 9.8h-2.268v-9.8h2.268v9.8zm4.62-4.018h-4.788v-1.918h4.788v1.918zm9.302-2.562c1.185 0 2.1.266 2.744.798.644.523.966 1.311.966 2.366 0 1.12-.36 1.969-1.078 2.548-.71.579-1.694.868-2.954.868h-4.424v-9.8h2.254v3.22h2.492zm-.448 4.9c.578 0 1.036-.145 1.372-.434.336-.289.504-.709.504-1.26 0-.541-.168-.929-.504-1.162-.327-.243-.784-.364-1.372-.364h-2.044v3.22h2.044zm5.404 1.68v-9.8h2.254v9.8h-2.254zm4.694 0v-9.8h2.254v6.384l4.676-6.384h2.128v9.8h-2.24v-6.37l-4.676 6.37h-2.142zm4.522-10.43c-.933 0-1.619-.187-2.058-.56-.429-.373-.648-.901-.658-1.582h1.554c.01.336.108.593.294.77.196.168.486.252.868.252.374 0 .658-.084.854-.252.196-.177.299-.434.308-.77h1.554c-.009.681-.233 1.209-.672 1.582-.438.373-1.12.56-2.044.56zM271.843 228v-9.8h8.932v9.8h-2.254v-8.47l.518.518h-5.46l.518-.518V228h-2.254zm13.447-5.852h4.718v1.764h-4.718v-1.764zm.168 4.032h5.334V228h-7.588v-9.8h7.406v1.82h-5.152v6.16zm13.886-7.98h2.268v9.8h-2.268v-9.8zm-4.452 9.8h-2.268v-9.8h2.268v9.8zm4.62-4.018h-4.788v-1.918h4.788v1.918zm9.246 4.186a6.012 6.012 0 01-2.156-.378 5.174 5.174 0 01-1.708-1.064 4.982 4.982 0 01-1.12-1.61 5.097 5.097 0 01-.392-2.016c0-.728.13-1.4.392-2.016a4.871 4.871 0 011.134-1.61 5.174 5.174 0 011.708-1.064 5.86 5.86 0 012.128-.378c.774 0 1.484.126 2.128.378a5.031 5.031 0 011.694 1.064 4.9 4.9 0 011.134 1.61c.27.607.406 1.279.406 2.016 0 .728-.136 1.405-.406 2.03a4.9 4.9 0 01-1.134 1.61 5.143 5.143 0 01-1.694 1.05 5.754 5.754 0 01-2.114.378zm-.014-1.932c.438 0 .84-.075 1.204-.224a2.863 2.863 0 001.624-1.638c.158-.383.238-.807.238-1.274 0-.467-.08-.891-.238-1.274a2.863 2.863 0 00-.644-.994 2.744 2.744 0 00-.966-.644 3.261 3.261 0 00-1.218-.224c-.439 0-.845.075-1.218.224a2.917 2.917 0 00-.966.644c-.28.28-.5.611-.658.994-.15.383-.224.807-.224 1.274 0 .457.074.882.224 1.274.158.383.373.714.644.994.28.28.606.495.98.644.373.149.779.224 1.218.224zm7.109 1.764v-9.8h7.91v1.806h-5.656v2.016h2.716c1.185 0 2.086.247 2.702.742.625.495.938 1.213.938 2.156 0 .971-.345 1.727-1.036 2.268-.691.541-1.666.812-2.926.812h-4.648zm2.254-1.68h2.268c.579 0 1.022-.112 1.33-.336.308-.233.462-.569.462-1.008 0-.859-.597-1.288-1.792-1.288h-2.268v2.632zm10.168-4.172h4.718v1.764h-4.718v-1.764zm.168 4.032h5.334V228h-7.588v-9.8h7.406v1.82h-5.152v6.16zm9.28 1.82v-8.47l.518.518h-3.64V218.2h8.498v1.848h-3.64l.504-.518V228h-2.24zm11.353.168a6.016 6.016 0 01-2.156-.378 5.184 5.184 0 01-1.708-1.064 4.997 4.997 0 01-1.12-1.61 5.115 5.115 0 01-.392-2.016c0-.728.131-1.4.392-2.016a4.9 4.9 0 011.134-1.61 5.184 5.184 0 011.708-1.064 5.864 5.864 0 012.128-.378c.775 0 1.484.126 2.128.378a5.031 5.031 0 011.694 1.064 4.89 4.89 0 011.54 3.626c0 .728-.135 1.405-.406 2.03a4.9 4.9 0 01-1.134 1.61 5.143 5.143 0 01-1.694 1.05 5.754 5.754 0 01-2.114.378zm-.014-1.932c.439 0 .84-.075 1.204-.224.373-.149.7-.364.98-.644s.495-.611.644-.994a3.29 3.29 0 00.238-1.274 3.29 3.29 0 00-.238-1.274 2.849 2.849 0 00-.644-.994 2.744 2.744 0 00-.966-.644 3.254 3.254 0 00-1.218-.224c-.439 0-.845.075-1.218.224a2.917 2.917 0 00-.966.644c-.28.28-.499.611-.658.994a3.484 3.484 0 00-.224 1.274c0 .457.075.882.224 1.274.159.383.373.714.644.994.28.28.607.495.98.644.373.149.779.224 1.218.224zm13.829-8.036h2.268v9.8h-2.268v-9.8zm-4.452 9.8h-2.268v-9.8h2.268v9.8zm4.62-4.018h-4.788v-1.918h4.788v1.918zM278.185 266l-3.052-4.718 1.834-1.106 3.794 5.824h-2.576zm-6.37 0v-9.8h2.254v9.8h-2.254zm1.596-3.948v-1.89h3.416v1.89h-3.416zm3.766-.7l-2.086-.252 3.178-4.9h2.394l-3.486 5.152zm4.647 4.648v-9.8h2.254v6.384l4.676-6.384h2.128v9.8h-2.24v-6.37l-4.676 6.37h-2.142zm11.498 0v-9.8h4.242c.877 0 1.633.145 2.268.434.634.28 1.124.686 1.47 1.218.345.532.518 1.167.518 1.904 0 .728-.173 1.358-.518 1.89-.346.532-.836.943-1.47 1.232-.635.28-1.391.42-2.268.42h-2.982l1.008-1.022V266h-2.268zm2.268-3.472l-1.008-1.078h2.856c.7 0 1.222-.149 1.568-.448.345-.299.518-.714.518-1.246 0-.541-.173-.961-.518-1.26-.346-.299-.868-.448-1.568-.448h-2.856l1.008-1.078v5.558zm7.726 3.472v-9.8h8.932v9.8h-2.254v-8.47l.518.518h-5.46l.518-.518V266h-2.254zm11.361 0v-9.8h2.254v6.384l4.676-6.384h2.128v9.8h-2.24v-6.37l-4.676 6.37h-2.142zm17.357-3.654a9.359 9.359 0 01-1.4.448c-.448.093-.878.14-1.288.14-1.316 0-2.324-.313-3.024-.938-.7-.635-1.05-1.545-1.05-2.73V256.2h2.24v2.814c0 .672.182 1.181.546 1.526.364.336.882.504 1.554.504.429 0 .844-.047 1.246-.14a4.915 4.915 0 001.12-.434l.056 1.876zm-.322 3.654v-9.8h2.24v9.8h-2.24zm-55.235 15.168a6.015 6.015 0 01-2.114-.364 5.06 5.06 0 01-1.68-1.064 4.997 4.997 0 01-1.12-1.61 5.152 5.152 0 01-.392-2.03c0-.737.131-1.414.392-2.03a4.997 4.997 0 011.12-1.61 5.033 5.033 0 011.694-1.05 5.754 5.754 0 012.114-.378c.849 0 1.615.149 2.296.448a4.414 4.414 0 011.736 1.288l-1.456 1.344a3.319 3.319 0 00-1.12-.854 3.082 3.082 0 00-1.344-.294c-.457 0-.877.075-1.26.224a2.849 2.849 0 00-.994.644c-.28.28-.499.611-.658.994a3.484 3.484 0 00-.224 1.274c0 .467.075.891.224 1.274.159.383.378.714.658.994s.611.495.994.644c.383.149.803.224 1.26.224.485 0 .933-.093 1.344-.28.411-.196.784-.49 1.12-.882l1.456 1.344a4.545 4.545 0 01-1.736 1.302c-.681.299-1.451.448-2.31.448zm5.524-.168v-9.8h2.254v6.384l4.676-6.384h2.128v9.8h-2.24v-6.37l-4.676 6.37h-2.142zm11.528.154c-.168 0-.345-.014-.532-.042a10.312 10.312 0 01-.588-.112l.14-1.918c.131.037.266.056.406.056.383 0 .681-.154.896-.462.215-.317.369-.77.462-1.358.093-.588.154-1.302.182-2.142l.14-3.976h7.532v9.8h-2.24v-8.47l.518.518h-4.326l.462-.546-.084 2.59a24.085 24.085 0 01-.196 2.562c-.103.747-.261 1.381-.476 1.904-.215.523-.509.919-.882 1.19-.373.271-.845.406-1.414.406zm11.086-.154v-9.8h2.254v6.384l4.676-6.384h2.128v9.8h-2.24v-6.37l-4.676 6.37h-2.142zm17.84 0l-3.052-4.718 1.834-1.106 3.794 5.824h-2.576zm-6.37 0v-9.8h2.254v9.8h-2.254zm1.596-3.948v-1.89h3.416v1.89h-3.416zm3.766-.7l-2.086-.252 3.178-4.9h2.394l-3.486 5.152zm3.335 4.648l4.368-9.8h2.24l4.382 9.8h-2.38l-3.584-8.652h.896L327.106 281h-2.324zm2.184-2.1l.602-1.722h5.04l.616 1.722h-6.258zm11.727 2.1v-8.47l.518.518h-3.64V271.2h8.498v1.848h-3.64l.504-.518V281h-2.24zm13.521-9.8h2.268v9.8h-2.268v-9.8zm-4.452 9.8h-2.268v-9.8h2.268v9.8zm4.62-4.018h-4.788v-1.918h4.788v1.918zm9.301-2.562c1.185 0 2.1.266 2.744.798.644.523.966 1.311.966 2.366 0 1.12-.359 1.969-1.078 2.548-.709.579-1.694.868-2.954.868h-4.424v-9.8h2.254v3.22h2.492zm-.448 4.9c.579 0 1.036-.145 1.372-.434.336-.289.504-.709.504-1.26 0-.541-.168-.929-.504-1.162-.327-.243-.784-.364-1.372-.364h-2.044v3.22h2.044zm5.404 1.68v-9.8h2.254v9.8h-2.254zm4.694 0v-9.8h2.254v6.384l4.676-6.384h2.128v9.8h-2.24v-6.37l-4.676 6.37h-2.142zm4.522-10.43c-.933 0-1.619-.187-2.058-.56-.429-.373-.648-.901-.658-1.582h1.554c.01.336.108.593.294.77.196.168.486.252.868.252.374 0 .658-.084.854-.252.196-.177.299-.434.308-.77h1.554c-.009.681-.233 1.209-.672 1.582-.438.373-1.12.56-2.044.56zM271.843 319v-9.8h6.916l-.014 1.848h-5.18l.518-.518.014 8.47h-2.254zm5.279 0l4.368-9.8h2.24l4.382 9.8h-2.38l-3.584-8.652h.896L279.446 319h-2.324zm2.184-2.1l.602-1.722h5.04l.616 1.722h-6.258zm9.223 1.232l.7-1.624c.42.252.868.448 1.344.588.486.131.957.205 1.414.224.467.009.887-.037 1.26-.14.383-.103.686-.257.91-.462a.996.996 0 00.35-.784c0-.373-.154-.649-.462-.826-.308-.187-.718-.28-1.232-.28h-2.394v-1.708h2.226c.458 0 .812-.093 1.064-.28a.894.894 0 00.392-.77c0-.28-.093-.504-.28-.672-.186-.177-.443-.308-.77-.392a3.874 3.874 0 00-1.078-.112 5.013 5.013 0 00-1.246.196c-.429.121-.84.289-1.232.504l-.686-1.75a6.923 6.923 0 012.002-.672 7.263 7.263 0 012.044-.098c.663.056 1.26.205 1.792.448.532.233.957.541 1.274.924.318.383.476.835.476 1.358 0 .467-.121.882-.364 1.246a2.335 2.335 0 01-1.022.84c-.429.196-.924.294-1.484.294l.056-.504c.654 0 1.218.112 1.694.336.486.215.859.518 1.12.91.271.383.406.826.406 1.33a2.2 2.2 0 01-.378 1.26 3.01 3.01 0 01-1.008.924 5 5 0 01-1.47.56 7.177 7.177 0 01-1.764.154 8.621 8.621 0 01-1.862-.266 7.19 7.19 0 01-1.792-.756zm14.76 1.036a6.016 6.016 0 01-2.156-.378 5.184 5.184 0 01-1.708-1.064 4.997 4.997 0 01-1.12-1.61 5.115 5.115 0 01-.392-2.016c0-.728.131-1.4.392-2.016a4.9 4.9 0 011.134-1.61 5.184 5.184 0 011.708-1.064 5.864 5.864 0 012.128-.378c.775 0 1.484.126 2.128.378a5.031 5.031 0 011.694 1.064 4.89 4.89 0 011.54 3.626c0 .728-.135 1.405-.406 2.03a4.9 4.9 0 01-1.134 1.61 5.143 5.143 0 01-1.694 1.05 5.754 5.754 0 01-2.114.378zm-.014-1.932c.439 0 .84-.075 1.204-.224.373-.149.7-.364.98-.644s.495-.611.644-.994a3.29 3.29 0 00.238-1.274 3.29 3.29 0 00-.238-1.274 2.849 2.849 0 00-.644-.994 2.744 2.744 0 00-.966-.644 3.254 3.254 0 00-1.218-.224c-.439 0-.845.075-1.218.224a2.917 2.917 0 00-.966.644c-.28.28-.499.611-.658.994a3.484 3.484 0 00-.224 1.274c0 .457.075.882.224 1.274.159.383.373.714.644.994.28.28.607.495.98.644.373.149.779.224 1.218.224zm7.109 1.764v-9.8h7.91v1.806h-5.656v2.016h2.716c1.185 0 2.086.247 2.702.742.625.495.938 1.213.938 2.156 0 .971-.345 1.727-1.036 2.268-.691.541-1.666.812-2.926.812h-4.648zm2.254-1.68h2.268c.579 0 1.022-.112 1.33-.336.308-.233.462-.569.462-1.008 0-.859-.597-1.288-1.792-1.288h-2.268v2.632zm10.168-4.172h4.718v1.764h-4.718v-1.764zm.168 4.032h5.334V319h-7.588v-9.8h7.406v1.82h-5.152v6.16zm9.28 1.82v-8.47l.518.518h-3.64V309.2h8.498v1.848h-3.64l.504-.518V319h-2.24zm11.353.168a6.02 6.02 0 01-2.156-.378 5.194 5.194 0 01-1.708-1.064 4.997 4.997 0 01-1.12-1.61 5.115 5.115 0 01-.392-2.016c0-.728.131-1.4.392-2.016a4.9 4.9 0 011.134-1.61 5.194 5.194 0 011.708-1.064 5.867 5.867 0 012.128-.378c.775 0 1.484.126 2.128.378a5.021 5.021 0 011.694 1.064 4.89 4.89 0 011.54 3.626c0 .728-.135 1.405-.406 2.03a4.871 4.871 0 01-1.134 1.61 5.132 5.132 0 01-1.694 1.05 5.75 5.75 0 01-2.114.378zm-.014-1.932c.439 0 .84-.075 1.204-.224a2.875 2.875 0 001.624-1.638 3.29 3.29 0 00.238-1.274 3.29 3.29 0 00-.238-1.274 2.849 2.849 0 00-.644-.994 2.726 2.726 0 00-.966-.644 3.254 3.254 0 00-1.218-.224c-.438 0-.844.075-1.218.224a2.917 2.917 0 00-.966.644c-.28.28-.499.611-.658.994a3.484 3.484 0 00-.224 1.274c0 .457.075.882.224 1.274.159.383.374.714.644.994.28.28.607.495.98.644.374.149.78.224 1.218.224zm13.829-8.036h2.268v9.8h-2.268v-9.8zm-4.452 9.8h-2.268v-9.8h2.268v9.8zm4.62-4.018h-4.788v-1.918h4.788v1.918z"/></g><g clip-path="url(#clip1_401_381)" fill="#4B5760"><path d="M419.305 139.28c-1.213 0-2.273-.18-3.18-.54-.907-.36-1.62-.867-2.14-1.52-.507-.667-.76-1.447-.76-2.34 0-.88.253-1.627.76-2.24.52-.627 1.233-1.1 2.14-1.42.92-.333 1.98-.5 3.18-.5 1.2 0 2.253.167 3.16.5.92.32 1.633.793 2.14 1.42.52.613.78 1.36.78 2.24 0 .893-.253 1.673-.76 2.34-.507.653-1.22 1.16-2.14 1.52-.907.36-1.967.54-3.18.54zm0-2.78c.64 0 1.147-.153 1.52-.46.387-.307.58-.733.58-1.28 0-.533-.193-.953-.58-1.26-.373-.32-.88-.48-1.52-.48s-1.153.16-1.54.48c-.373.307-.56.727-.56 1.26 0 .547.187.973.56 1.28.387.307.9.46 1.54.46zm0-3.82c-1.093 0-2.06-.153-2.9-.46-.827-.307-1.48-.747-1.96-1.32-.48-.587-.72-1.287-.72-2.1 0-.84.233-1.56.7-2.16.48-.6 1.14-1.067 1.98-1.4.84-.347 1.807-.52 2.9-.52 1.107 0 2.073.173 2.9.52.84.333 1.493.8 1.96 1.4.48.6.72 1.32.72 2.16 0 .813-.24 1.513-.72 2.1-.467.573-1.12 1.013-1.96 1.32-.84.307-1.807.46-2.9.46zm0-2.24c.507 0 .913-.127 1.22-.38.307-.267.46-.627.46-1.08 0-.48-.16-.847-.48-1.1-.307-.253-.707-.38-1.2-.38s-.893.127-1.2.38c-.307.253-.46.62-.46 1.1 0 .453.153.813.46 1.08.307.253.707.38 1.2.38zm7.694 11.7l1.5-5.2.54 2.16c-.666 0-1.213-.193-1.64-.58-.426-.4-.64-.933-.64-1.6 0-.693.214-1.24.64-1.64.44-.4.987-.6 1.64-.6.654 0 1.194.207 1.62.62.427.4.64.94.64 1.62 0 .187-.013.373-.04.56a3.615 3.615 0 01-.18.68c-.093.267-.24.62-.44 1.06l-1.26 2.92h-2.38zm7.313-3.14l5.46-12.54 1.06 1.68h-7.1l1.62-1.82v3.98h-3.38V125h11.6v2.48l-4.94 11.52h-4.32zm15.637-14.28c1.32 0 2.46.26 3.42.78.973.52 1.726 1.293 2.26 2.32.546 1.013.82 2.28.82 3.8 0 1.627-.32 3.013-.96 4.16-.627 1.133-1.5 2-2.62 2.6-1.107.6-2.4.9-3.88.9a8.87 8.87 0 01-2.24-.28c-.72-.173-1.34-.42-1.86-.74l1.44-2.84c.4.28.813.473 1.24.58.44.093.886.14 1.34.14 1.08 0 1.94-.327 2.58-.98.64-.653.96-1.607.96-2.86v-.7c0-.253-.02-.507-.06-.76l.98.82c-.24.493-.554.907-.94 1.24-.387.333-.84.587-1.36.76-.52.173-1.114.26-1.78.26-.88 0-1.687-.18-2.42-.54a4.627 4.627 0 01-1.74-1.54c-.44-.667-.66-1.447-.66-2.34 0-.973.246-1.813.74-2.52a4.825 4.825 0 011.98-1.66c.826-.4 1.746-.6 2.76-.6zm.26 2.82c-.374 0-.7.073-.98.22-.28.147-.507.353-.68.62-.16.253-.24.567-.24.94 0 .533.173.96.52 1.28.36.32.826.48 1.4.48.386 0 .726-.073 1.02-.22.293-.147.52-.353.68-.62.16-.267.24-.58.24-.94a1.648 1.648 0 00-.92-1.52c-.294-.16-.64-.24-1.04-.24zM465.697 139l9.56-14h2.88l-9.56 14h-2.88zm1.28-6.42c-.68 0-1.293-.153-1.84-.46a3.22 3.22 0 01-1.28-1.32c-.307-.587-.46-1.287-.46-2.1 0-.813.153-1.507.46-2.08a3.22 3.22 0 011.28-1.32c.547-.32 1.16-.48 1.84-.48.693 0 1.307.16 1.84.48a3.22 3.22 0 011.28 1.32c.32.573.48 1.267.48 2.08 0 .8-.16 1.493-.48 2.08a3.188 3.188 0 01-1.28 1.34c-.533.307-1.147.46-1.84.46zm.02-1.9c.333 0 .607-.153.82-.46.227-.307.34-.813.34-1.52 0-.707-.113-1.213-.34-1.52-.213-.307-.487-.46-.82-.46-.333 0-.62.153-.86.46-.227.307-.34.813-.34 1.52 0 .707.113 1.213.34 1.52.24.307.527.46.86.46zm9.86 8.5c-.693 0-1.313-.153-1.86-.46a3.262 3.262 0 01-1.26-1.32c-.307-.587-.46-1.287-.46-2.1 0-.813.153-1.507.46-2.08a3.262 3.262 0 011.26-1.32c.547-.32 1.167-.48 1.86-.48.693 0 1.307.16 1.84.48a3.22 3.22 0 011.28 1.32c.32.573.48 1.267.48 2.08 0 .813-.16 1.513-.48 2.1a3.22 3.22 0 01-1.28 1.32c-.533.307-1.147.46-1.84.46zm0-1.9c.333 0 .613-.153.84-.46.227-.307.34-.813.34-1.52 0-.707-.113-1.213-.34-1.52-.227-.307-.507-.46-.84-.46-.32 0-.6.153-.84.46-.227.307-.34.813-.34 1.52 0 .707.113 1.213.34 1.52.24.307.52.46.84.46zM415.345 184v-12.58l1.7 1.64h-4.3V170h6.56v14h-3.96zm5.986 0v-2.48l5.24-4.9c.373-.347.646-.653.82-.92.186-.267.306-.507.36-.72.066-.227.1-.433.1-.62 0-.453-.154-.807-.46-1.06-.294-.253-.74-.38-1.34-.38-.507 0-.98.113-1.42.34-.44.227-.8.567-1.08 1.02l-2.94-1.64c.52-.88 1.273-1.587 2.26-2.12.986-.533 2.166-.8 3.54-.8 1.08 0 2.026.173 2.84.52.813.347 1.446.84 1.9 1.48.466.64.7 1.393.7 2.26 0 .453-.06.907-.18 1.36-.12.44-.354.913-.7 1.42-.334.493-.834 1.047-1.5 1.66l-4.16 3.84-.66-1.4h7.58V184h-10.9zm19.933 0l9.56-14h2.88l-9.56 14h-2.88zm1.28-6.42a3.69 3.69 0 01-1.84-.46 3.213 3.213 0 01-1.28-1.32c-.307-.587-.46-1.287-.46-2.1 0-.813.153-1.507.46-2.08a3.213 3.213 0 011.28-1.32c.546-.32 1.16-.48 1.84-.48.693 0 1.306.16 1.84.48.546.307.973.747 1.28 1.32.32.573.48 1.267.48 2.08 0 .8-.16 1.493-.48 2.08a3.194 3.194 0 01-1.28 1.34c-.534.307-1.147.46-1.84.46zm.02-1.9c.333 0 .606-.153.82-.46.226-.307.34-.813.34-1.52 0-.707-.114-1.213-.34-1.52-.214-.307-.487-.46-.82-.46-.334 0-.62.153-.86.46-.227.307-.34.813-.34 1.52 0 .707.113 1.213.34 1.52.24.307.526.46.86.46zm9.86 8.5c-.694 0-1.314-.153-1.86-.46a3.249 3.249 0 01-1.26-1.32c-.307-.587-.46-1.287-.46-2.1 0-.813.153-1.507.46-2.08a3.249 3.249 0 011.26-1.32c.546-.32 1.166-.48 1.86-.48.693 0 1.306.16 1.84.48.546.307.973.747 1.28 1.32.32.573.48 1.267.48 2.08 0 .813-.16 1.513-.48 2.1a3.225 3.225 0 01-1.28 1.32c-.534.307-1.147.46-1.84.46zm0-1.9c.333 0 .613-.153.84-.46.226-.307.34-.813.34-1.52 0-.707-.114-1.213-.34-1.52-.227-.307-.507-.46-.84-.46-.32 0-.6.153-.84.46-.227.307-.34.813-.34 1.52 0 .707.113 1.213.34 1.52.24.307.52.46.84.46zM415.345 229v-12.58l1.7 1.64h-4.3V215h6.56v14h-3.96zm5.926-2.68v-2.58l6.28-8.74h4.1l-6.1 8.74-1.88-.56h10.94v3.14h-13.34zm7.4 2.68v-2.68l.12-3.14v-2.38h3.74v8.2h-3.86zm14.624 0l9.56-14h2.88l-9.56 14h-2.88zm1.28-6.42a3.69 3.69 0 01-1.84-.46 3.213 3.213 0 01-1.28-1.32c-.307-.587-.46-1.287-.46-2.1 0-.813.153-1.507.46-2.08a3.213 3.213 0 011.28-1.32c.546-.32 1.16-.48 1.84-.48.693 0 1.306.16 1.84.48.546.307.973.747 1.28 1.32.32.573.48 1.267.48 2.08 0 .8-.16 1.493-.48 2.08a3.194 3.194 0 01-1.28 1.34c-.534.307-1.147.46-1.84.46zm.02-1.9c.333 0 .606-.153.82-.46.226-.307.34-.813.34-1.52 0-.707-.114-1.213-.34-1.52-.214-.307-.487-.46-.82-.46-.334 0-.62.153-.86.46-.227.307-.34.813-.34 1.52 0 .707.113 1.213.34 1.52.24.307.526.46.86.46zm9.86 8.5c-.694 0-1.314-.153-1.86-.46a3.249 3.249 0 01-1.26-1.32c-.307-.587-.46-1.287-.46-2.1 0-.813.153-1.507.46-2.08a3.249 3.249 0 011.26-1.32c.546-.32 1.166-.48 1.86-.48.693 0 1.306.16 1.84.48.546.307.973.747 1.28 1.32.32.573.48 1.267.48 2.08 0 .813-.16 1.513-.48 2.1a3.225 3.225 0 01-1.28 1.32c-.534.307-1.147.46-1.84.46zm0-1.9c.333 0 .613-.153.84-.46.226-.307.34-.813.34-1.52 0-.707-.114-1.213-.34-1.52-.227-.307-.507-.46-.84-.46-.32 0-.6.153-.84.46-.227.307-.34.813-.34 1.52 0 .707.113 1.213.34 1.52.24.307.52.46.84.46zM415.345 274v-12.58l1.7 1.64h-4.3V260h6.56v14h-3.96zm12.546.28c-1.307 0-2.447-.26-3.42-.78-.96-.52-1.714-1.293-2.26-2.32-.534-1.027-.8-2.293-.8-3.8 0-1.627.313-3.007.94-4.14.64-1.147 1.513-2.02 2.62-2.62 1.12-.6 2.413-.9 3.88-.9.786 0 1.54.093 2.26.28.733.173 1.353.42 1.86.74l-1.44 2.84a3.42 3.42 0 00-1.26-.56 5.41 5.41 0 00-1.32-.16c-1.08 0-1.947.327-2.6.98-.64.653-.96 1.607-.96 2.86v.72c.013.24.04.487.08.74l-1-.82c.266-.493.586-.907.96-1.24.386-.333.84-.587 1.36-.76a5.744 5.744 0 011.78-.26c.88 0 1.68.187 2.4.56a4.38 4.38 0 011.76 1.54c.44.653.66 1.427.66 2.32 0 .973-.247 1.82-.74 2.54-.494.707-1.154 1.26-1.98 1.66-.827.387-1.754.58-2.78.58zm-.24-2.82c.373 0 .7-.073.98-.22.293-.147.52-.353.68-.62.16-.267.24-.58.24-.94 0-.533-.18-.96-.54-1.28-.347-.32-.807-.48-1.38-.48-.387 0-.727.073-1.02.22-.28.147-.507.353-.68.62-.16.267-.24.58-.24.94 0 .347.08.653.24.92.16.253.386.46.68.62.293.147.64.22 1.04.22zm14.628 2.54l9.56-14h2.88l-9.56 14h-2.88zm1.28-6.42c-.68 0-1.293-.153-1.84-.46a3.225 3.225 0 01-1.28-1.32c-.306-.587-.46-1.287-.46-2.1 0-.813.154-1.507.46-2.08a3.225 3.225 0 011.28-1.32c.547-.32 1.16-.48 1.84-.48.694 0 1.307.16 1.84.48.547.307.974.747 1.28 1.32.32.573.48 1.267.48 2.08 0 .8-.16 1.493-.48 2.08a3.182 3.182 0 01-1.28 1.34c-.533.307-1.146.46-1.84.46zm.02-1.9c.334 0 .607-.153.82-.46.227-.307.34-.813.34-1.52 0-.707-.113-1.213-.34-1.52-.213-.307-.486-.46-.82-.46-.333 0-.62.153-.86.46-.226.307-.34.813-.34 1.52 0 .707.114 1.213.34 1.52.24.307.527.46.86.46zm9.86 8.5c-.693 0-1.313-.153-1.86-.46a3.262 3.262 0 01-1.26-1.32c-.306-.587-.46-1.287-.46-2.1 0-.813.154-1.507.46-2.08a3.262 3.262 0 011.26-1.32c.547-.32 1.167-.48 1.86-.48.694 0 1.307.16 1.84.48.547.307.974.747 1.28 1.32.32.573.48 1.267.48 2.08 0 .813-.16 1.513-.48 2.1a3.213 3.213 0 01-1.28 1.32c-.533.307-1.146.46-1.84.46zm0-1.9c.334 0 .614-.153.84-.46.227-.307.34-.813.34-1.52 0-.707-.113-1.213-.34-1.52-.226-.307-.506-.46-.84-.46-.32 0-.6.153-.84.46-.226.307-.34.813-.34 1.52 0 .707.114 1.213.34 1.52.24.307.52.46.84.46zM413.225 319v-2.48l5.24-4.9c.373-.347.647-.653.82-.92.187-.267.307-.507.36-.72.067-.227.1-.433.1-.62 0-.453-.153-.807-.46-1.06-.293-.253-.74-.38-1.34-.38-.507 0-.98.113-1.42.34-.44.227-.8.567-1.08 1.02l-2.94-1.64c.52-.88 1.273-1.587 2.26-2.12.987-.533 2.167-.8 3.54-.8 1.08 0 2.027.173 2.84.52.813.347 1.447.84 1.9 1.48.467.64.7 1.393.7 2.26 0 .453-.06.907-.18 1.36-.12.44-.353.913-.7 1.42-.333.493-.833 1.047-1.5 1.66l-4.16 3.84-.66-1.4h7.58V319h-10.9zm18.233.28c-1.2 0-2.267-.287-3.2-.86-.92-.573-1.647-1.4-2.18-2.48-.534-1.08-.8-2.393-.8-3.94 0-1.547.266-2.86.8-3.94.533-1.08 1.26-1.907 2.18-2.48.933-.573 2-.86 3.2-.86 1.186 0 2.24.287 3.16.86.933.573 1.666 1.4 2.2 2.48.533 1.08.8 2.393.8 3.94 0 1.547-.267 2.86-.8 3.94-.534 1.08-1.267 1.907-2.2 2.48-.92.573-1.974.86-3.16.86zm0-3.24c.426 0 .8-.133 1.12-.4.333-.267.593-.693.78-1.28.186-.6.28-1.387.28-2.36 0-.987-.094-1.773-.28-2.36-.187-.587-.447-1.013-.78-1.28-.32-.267-.694-.4-1.12-.4-.427 0-.807.133-1.14.4-.32.267-.58.693-.78 1.28-.187.587-.28 1.373-.28 2.36 0 .973.093 1.76.28 2.36.2.587.46 1.013.78 1.28.333.267.713.4 1.14.4z"/></g><path d="M94.81 361.166l-1.931 1.092v-.224l1.932 1.092-.322.588-1.904-1.106.154-.07v2.142h-.644l.014-2.142.14.07-1.89 1.106-.336-.588 1.946-1.092v.224l-1.946-1.092.336-.588 1.89 1.106-.14.07-.014-2.142h.644v2.142l-.154-.07 1.904-1.106.322.588zm9.905 8.918a5.6 5.6 0 01-2.044-.364 4.93 4.93 0 01-1.624-1.05 4.914 4.914 0 01-1.078-1.582 5.132 5.132 0 01-.378-1.988c0-.719.126-1.381.378-1.988a4.914 4.914 0 011.078-1.582 4.906 4.906 0 011.638-1.036 5.422 5.422 0 012.044-.378c.71 0 1.377.121 2.002.364a3.947 3.947 0 011.582 1.064l-.658.658a3.55 3.55 0 00-1.33-.882 4.322 4.322 0 00-1.568-.28c-.588 0-1.134.103-1.638.308a3.783 3.783 0 00-1.316.854 4.012 4.012 0 00-.882 1.288 4.096 4.096 0 00-.308 1.61c0 .588.103 1.129.308 1.624.215.485.509.915.882 1.288.374.364.812.649 1.316.854a4.48 4.48 0 001.638.294c.56 0 1.083-.093 1.568-.28a3.716 3.716 0 001.33-.896l.658.658a4.082 4.082 0 01-1.582 1.078 5.514 5.514 0 01-2.016.364zm5.5-.084v-7.35h6.608V370h-.994v-6.748l.252.266h-5.124l.252-.266V370h-.994zm12.457.07a3.878 3.878 0 01-1.918-.476 3.64 3.64 0 01-1.33-1.33c-.326-.569-.49-1.218-.49-1.946 0-.737.164-1.386.49-1.946a3.53 3.53 0 011.33-1.316c.56-.317 1.2-.476 1.918-.476.728 0 1.372.159 1.932.476.57.317 1.013.756 1.33 1.316.327.56.49 1.209.49 1.946 0 .728-.163 1.377-.49 1.946a3.496 3.496 0 01-1.33 1.33c-.569.317-1.213.476-1.932.476zm0-.882c.532 0 1.004-.117 1.414-.35.411-.243.733-.579.966-1.008.243-.439.364-.943.364-1.512 0-.579-.121-1.083-.364-1.512a2.473 2.473 0 00-.966-.994 2.694 2.694 0 00-1.4-.364c-.522 0-.989.121-1.4.364a2.58 2.58 0 00-.98.994c-.242.429-.364.933-.364 1.512 0 .569.122 1.073.364 1.512.243.429.57.765.98 1.008.411.233.873.35 1.386.35zm8.957.882c-.728 0-1.382-.159-1.96-.476a3.597 3.597 0 01-1.344-1.33c-.327-.569-.49-1.218-.49-1.946 0-.737.163-1.386.49-1.946a3.49 3.49 0 011.344-1.316c.578-.317 1.232-.476 1.96-.476.625 0 1.19.121 1.694.364s.9.607 1.19 1.092l-.742.504a2.335 2.335 0 00-.938-.826 2.811 2.811 0 00-1.218-.266 2.77 2.77 0 00-1.414.364 2.54 2.54 0 00-.994.994c-.243.429-.364.933-.364 1.512s.121 1.083.364 1.512c.242.429.574.765.994 1.008.42.233.891.35 1.414.35.438 0 .844-.089 1.218-.266.373-.177.686-.448.938-.812l.742.504c-.29.476-.686.84-1.19 1.092a3.851 3.851 0 01-1.694.364zm7.709 0a3.878 3.878 0 01-1.918-.476 3.64 3.64 0 01-1.33-1.33c-.326-.569-.49-1.218-.49-1.946 0-.737.164-1.386.49-1.946a3.53 3.53 0 011.33-1.316c.56-.317 1.2-.476 1.918-.476.728 0 1.372.159 1.932.476.57.317 1.013.756 1.33 1.316.327.56.49 1.209.49 1.946 0 .728-.163 1.377-.49 1.946a3.496 3.496 0 01-1.33 1.33c-.569.317-1.213.476-1.932.476zm0-.882c.532 0 1.004-.117 1.414-.35.411-.243.733-.579.966-1.008.243-.439.364-.943.364-1.512 0-.579-.121-1.083-.364-1.512a2.473 2.473 0 00-.966-.994 2.694 2.694 0 00-1.4-.364c-.522 0-.989.121-1.4.364a2.58 2.58 0 00-.98.994c-.242.429-.364.933-.364 1.512 0 .569.122 1.073.364 1.512.243.429.57.765.98 1.008.411.233.873.35 1.386.35zm9.181.896c-.598 0-1.13-.098-1.596-.294a3.043 3.043 0 01-1.176-.896c-.327-.401-.574-.896-.742-1.484-.168-.597-.252-1.288-.252-2.072 0-.7.065-1.311.196-1.834.13-.532.312-.989.546-1.372.233-.383.504-.705.812-.966a4.082 4.082 0 011.022-.644 5.696 5.696 0 011.148-.378l3.304-.77.168.924-3.108.7a13.48 13.48 0 00-.714.196c-.271.084-.551.21-.84.378a3.01 3.01 0 00-.784.7c-.243.299-.439.686-.588 1.162-.14.467-.21 1.05-.21 1.75 0 .149.004.271.014.364l.028.28c.018.093.032.233.042.42l-.434-.364a3.417 3.417 0 01.63-1.484 3.223 3.223 0 011.19-.994 3.544 3.544 0 011.61-.364c.681 0 1.288.149 1.82.448.532.289.947.695 1.246 1.218.308.523.462 1.129.462 1.82 0 .681-.159 1.293-.476 1.834a3.27 3.27 0 01-1.316 1.274c-.57.299-1.237.448-2.002.448zm.112-.826c.522 0 .984-.117 1.386-.35a2.56 2.56 0 00.938-.98 2.76 2.76 0 00.35-1.386 2.58 2.58 0 00-.35-1.344 2.415 2.415 0 00-.938-.924c-.402-.233-.868-.35-1.4-.35-.523 0-.985.112-1.386.336a2.408 2.408 0 00-.952.91c-.224.392-.336.845-.336 1.358 0 .513.112.975.336 1.386.233.411.55.737.952.98.41.243.877.364 1.4.364zm5.812.742v-7.35h.994v3.248h4.634v-3.248h.994V370h-.994v-3.248h-4.634V370h-.994zm12.472.07c-.71 0-1.349-.159-1.918-.476a3.633 3.633 0 01-1.33-1.33c-.327-.569-.49-1.218-.49-1.946 0-.737.163-1.386.49-1.946.326-.56.77-.999 1.33-1.316.56-.317 1.199-.476 1.918-.476.728 0 1.372.159 1.932.476a3.406 3.406 0 011.33 1.316c.326.56.49 1.209.49 1.946 0 .728-.164 1.377-.49 1.946a3.51 3.51 0 01-1.33 1.33c-.57.317-1.214.476-1.932.476zm0-.882c.532 0 1.003-.117 1.414-.35.41-.243.732-.579.966-1.008.242-.439.364-.943.364-1.512 0-.579-.122-1.083-.364-1.512a2.486 2.486 0 00-.966-.994 2.699 2.699 0 00-1.4-.364c-.523 0-.99.121-1.4.364a2.566 2.566 0 00-.98.994c-.243.429-.364.933-.364 1.512 0 .569.121 1.073.364 1.512.242.429.569.765.98 1.008.41.233.872.35 1.386.35zm8.956.882c-.728 0-1.381-.159-1.96-.476a3.612 3.612 0 01-1.344-1.33c-.327-.569-.49-1.218-.49-1.946 0-.737.163-1.386.49-1.946.327-.56.775-.999 1.344-1.316.579-.317 1.232-.476 1.96-.476.625 0 1.19.121 1.694.364s.901.607 1.19 1.092l-.742.504a2.335 2.335 0 00-.938-.826 2.805 2.805 0 00-1.218-.266 2.77 2.77 0 00-1.414.364c-.42.233-.751.565-.994.994-.243.429-.364.933-.364 1.512s.121 1.083.364 1.512c.243.429.574.765.994 1.008.42.233.891.35 1.414.35.439 0 .845-.089 1.218-.266.373-.177.686-.448.938-.812l.742.504a2.86 2.86 0 01-1.19 1.092 3.851 3.851 0 01-1.694.364zm6.072-.07v-6.748l.252.266h-3.038v-.868h6.566v.868h-3.038l.252-.266V370h-.994zm8.381-4.76c.924.009 1.624.215 2.1.616.485.401.728.98.728 1.736 0 .784-.261 1.386-.784 1.806-.513.42-1.26.625-2.24.616L187.16 370v-7.35h.994v2.562l2.17.028zm-.252 4.018c.681.009 1.195-.126 1.54-.406.355-.289.532-.709.532-1.26s-.173-.952-.518-1.204c-.345-.261-.863-.397-1.554-.406l-1.918-.028v3.276l1.918.028zm8.641.742v-7.35h3.248c.83 0 1.484.159 1.96.476.485.317.728.784.728 1.4 0 .597-.229 1.059-.686 1.386-.458.317-1.06.476-1.806.476l.196-.294c.877 0 1.521.163 1.932.49.41.327.616.798.616 1.414 0 .635-.234 1.129-.7 1.484-.458.345-1.172.518-2.142.518h-3.346zm.966-.784h2.338c.625 0 1.096-.098 1.414-.294.326-.205.49-.532.49-.98 0-.448-.145-.775-.434-.98-.29-.205-.747-.308-1.372-.308h-2.436v2.562zm0-3.304h2.212c.569 0 1.003-.107 1.302-.322.308-.215.462-.527.462-.938 0-.411-.154-.719-.462-.924-.299-.205-.733-.308-1.302-.308h-2.212v2.492zM207.23 370v-7.35h6.608V370h-.994v-6.748l.252.266h-5.124l.252-.266V370h-.994zm9.434 0v-7.35h.994v5.838l4.914-5.838h.882V370h-.994v-5.852l-4.9 5.852h-.896zm11.039 0v-6.748l.252.266h-3.038v-.868h6.566v.868h-3.038l.252-.266V370h-.994zm12.385 0v-7.35h.994V370h-.994zm-4.074-4.76c.924.009 1.629.215 2.114.616.485.401.728.98.728 1.736 0 .784-.261 1.386-.784 1.806-.523.42-1.269.625-2.24.616L232.92 370v-7.35h.994v2.562l2.1.028zm-.252 4.018c.691.009 1.209-.126 1.554-.406.355-.289.532-.709.532-1.26s-.173-.952-.518-1.204c-.345-.261-.868-.397-1.568-.406l-1.848-.028v3.276l1.848.028zm8.15.742v-7.35h3.248c.831 0 1.484.159 1.96.476.485.317.728.784.728 1.4 0 .597-.229 1.059-.686 1.386-.457.317-1.059.476-1.806.476l.196-.294c.877 0 1.521.163 1.932.49.411.327.616.798.616 1.414 0 .635-.233 1.129-.7 1.484-.457.345-1.171.518-2.142.518h-3.346zm.966-.784h2.338c.625 0 1.097-.098 1.414-.294.327-.205.49-.532.49-.98 0-.448-.145-.775-.434-.98-.289-.205-.747-.308-1.372-.308h-2.436v2.562zm0-3.304h2.212c.569 0 1.003-.107 1.302-.322.308-.215.462-.527.462-.938 0-.411-.154-.719-.462-.924-.299-.205-.733-.308-1.302-.308h-2.212v2.492zM256.994 370v-1.624l-.042-.266v-2.716c0-.625-.178-1.106-.532-1.442-.346-.336-.864-.504-1.554-.504-.476 0-.929.079-1.358.238-.43.159-.794.369-1.092.63l-.448-.742c.373-.317.821-.56 1.344-.728a5.111 5.111 0 011.652-.266c.952 0 1.684.238 2.198.714.522.467.784 1.181.784 2.142V370h-.952zm-2.534.07c-.551 0-1.032-.089-1.442-.266-.402-.187-.71-.439-.924-.756a1.991 1.991 0 01-.322-1.12c0-.383.088-.728.266-1.036.186-.317.485-.569.896-.756.42-.196.98-.294 1.68-.294h2.534v.742h-2.506c-.71 0-1.204.126-1.484.378a1.229 1.229 0 00-.406.938c0 .42.163.756.49 1.008.326.252.784.378 1.372.378.56 0 1.04-.126 1.442-.378.41-.261.709-.635.896-1.12l.224.686a2.331 2.331 0 01-.98 1.162c-.458.289-1.036.434-1.736.434zm7.532-.07v-6.748l.252.266h-3.038v-.868h6.566v.868h-3.038l.252-.266V370h-.994zm8.381-4.76c.924.009 1.624.215 2.1.616.485.401.728.98.728 1.736 0 .784-.261 1.386-.784 1.806-.513.42-1.26.625-2.24.616l-2.968-.014v-7.35h.994v2.562l2.17.028zm-.252 4.018c.681.009 1.195-.126 1.54-.406.355-.289.532-.709.532-1.26s-.173-.952-.518-1.204c-.345-.261-.863-.397-1.554-.406l-1.918-.028v3.276l1.918.028zm8.641.742v-7.35h.994v5.838l4.914-5.838h.882V370h-.994v-5.852l-4.9 5.852h-.896zm13.428 2.786c-.345 0-.676-.056-.994-.168a2.154 2.154 0 01-.798-.504l.462-.742c.187.177.388.313.602.406.224.103.472.154.742.154a1.3 1.3 0 00.84-.28c.243-.177.472-.495.686-.952l.476-1.078.112-.154 3.024-6.818h.98l-3.682 8.232c-.205.476-.434.854-.686 1.134-.242.28-.508.476-.798.588a2.478 2.478 0 01-.966.182zm1.96-2.576l-3.388-7.56h1.036l2.996 6.748-.644.812zm10.447-.686v-6.006h-3.542l-.084 1.638c-.019.495-.052.98-.098 1.456a7.895 7.895 0 01-.21 1.316c-.094.392-.229.714-.406.966a.985.985 0 01-.686.42l-.994-.182a.865.865 0 00.714-.308c.186-.224.331-.527.434-.91.102-.383.177-.817.224-1.302.046-.495.084-.999.112-1.512l.098-2.45h5.432v6.874h-.994zm-6.328 2.254v-2.646h8.47v2.646h-.938V370h-6.594v1.778h-.938zm13.557-1.708c-.766 0-1.438-.159-2.016-.476a3.57 3.57 0 01-1.358-1.33c-.327-.569-.49-1.218-.49-1.946s.154-1.372.462-1.932c.317-.56.746-.999 1.288-1.316a3.547 3.547 0 011.848-.49c.69 0 1.302.159 1.834.476a3.27 3.27 0 011.274 1.316c.308.56.462 1.209.462 1.946a.978.978 0 01-.014.154v.154h-6.398v-.742h5.866l-.392.294c0-.532-.117-1.003-.35-1.414a2.46 2.46 0 00-.924-.98c-.392-.233-.845-.35-1.358-.35-.504 0-.957.117-1.358.35-.402.233-.714.56-.938.98-.224.42-.336.901-.336 1.442v.154c0 .56.121 1.055.364 1.484.252.42.597.751 1.036.994.448.233.956.35 1.526.35.448 0 .863-.079 1.246-.238a2.592 2.592 0 001.008-.728l.56.644a3.147 3.147 0 01-1.232.896 4.1 4.1 0 01-1.61.308zm9.298 0a3.447 3.447 0 01-1.722-.434 3.306 3.306 0 01-1.232-1.274c-.299-.56-.448-1.241-.448-2.044 0-.803.149-1.479.448-2.03.299-.56.705-.985 1.218-1.274a3.476 3.476 0 011.736-.434c.7 0 1.325.159 1.876.476.56.308.999.747 1.316 1.316.317.56.476 1.209.476 1.946 0 .747-.159 1.4-.476 1.96-.317.56-.756.999-1.316 1.316-.551.317-1.176.476-1.876.476zm-3.794 2.646V362.65h.952v2.212l-.098 1.47.14 1.484v4.9h-.994zm3.724-3.528c.523 0 .989-.117 1.4-.35a2.68 2.68 0 00.98-1.008c.243-.439.364-.943.364-1.512 0-.569-.121-1.069-.364-1.498a2.68 2.68 0 00-.98-1.008 2.696 2.696 0 00-1.4-.364 2.77 2.77 0 00-1.414.364 2.68 2.68 0 00-.98 1.008c-.233.429-.35.929-.35 1.498s.117 1.073.35 1.512c.243.429.569.765.98 1.008.42.233.891.35 1.414.35zm14.336.812l-2.52-3.64.826-.49 2.884 4.13h-1.19zm-4.172-3.276v-.854h2.324v.854h-2.324zm2.576-.294l-.952-.14 2.45-3.64h1.078l-2.576 3.78zm-7.112 3.57h-1.19l2.884-4.13.812.49-2.506 3.64zm4.844 0h-.994v-7.35h.994V370zm-.686-3.276h-2.31v-.854h2.31v.854zm-2.548-.294l-2.59-3.78h1.078l2.436 3.64-.924.14zm9.942 3.57v-7.35h.994v5.838l4.914-5.838h.882V370h-.994v-5.852l-4.9 5.852h-.896zm9.639 0v-7.35h3.248c.831 0 1.484.159 1.96.476.485.317.728.784.728 1.4 0 .597-.229 1.059-.686 1.386-.457.317-1.059.476-1.806.476l.196-.294c.877 0 1.521.163 1.932.49.411.327.616.798.616 1.414 0 .635-.233 1.129-.7 1.484-.457.345-1.171.518-2.142.518h-3.346zm.966-.784h2.338c.625 0 1.097-.098 1.414-.294.327-.205.49-.532.49-.98 0-.448-.145-.775-.434-.98-.289-.205-.747-.308-1.372-.308h-2.436v2.562zm0-3.304h2.212c.569 0 1.003-.107 1.302-.322.308-.215.462-.527.462-.938 0-.411-.154-.719-.462-.924-.299-.205-.733-.308-1.302-.308h-2.212v2.492zM360.955 370v-1.624l-.042-.266v-2.716c0-.625-.178-1.106-.532-1.442-.346-.336-.864-.504-1.554-.504-.476 0-.929.079-1.358.238-.43.159-.794.369-1.092.63l-.448-.742c.373-.317.821-.56 1.344-.728a5.111 5.111 0 011.652-.266c.952 0 1.684.238 2.198.714.522.467.784 1.181.784 2.142V370h-.952zm-2.534.07c-.551 0-1.032-.089-1.442-.266-.402-.187-.71-.439-.924-.756a1.991 1.991 0 01-.322-1.12c0-.383.088-.728.266-1.036.186-.317.485-.569.896-.756.42-.196.98-.294 1.68-.294h2.534v.742h-2.506c-.71 0-1.204.126-1.484.378a1.229 1.229 0 00-.406.938c0 .42.163.756.49 1.008.326.252.784.378 1.372.378.56 0 1.04-.126 1.442-.378.41-.261.709-.635.896-1.12l.224.686a2.331 2.331 0 01-.98 1.162c-.458.289-1.036.434-1.736.434zm7.532-.07v-6.748l.252.266h-3.038v-.868h6.566v.868h-3.038l.252-.266V370h-.994zm8.381-4.76c.924.009 1.624.215 2.1.616.485.401.728.98.728 1.736 0 .784-.261 1.386-.784 1.806-.513.42-1.26.625-2.24.616L371.17 370v-7.35h.994v2.562l2.17.028zm-.252 4.018c.681.009 1.195-.126 1.54-.406.355-.289.532-.709.532-1.26s-.173-.952-.518-1.204c-.345-.261-.863-.397-1.554-.406l-1.918-.028v3.276l1.918.028zm8.641.742v-7.35h3.248c.83 0 1.484.159 1.96.476.485.317.728.784.728 1.4 0 .597-.229 1.059-.686 1.386-.458.317-1.06.476-1.806.476l.196-.294c.877 0 1.521.163 1.932.49.41.327.616.798.616 1.414 0 .635-.234 1.129-.7 1.484-.458.345-1.172.518-2.142.518h-3.346zm.966-.784h2.338c.625 0 1.096-.098 1.414-.294.326-.205.49-.532.49-.98 0-.448-.145-.775-.434-.98-.29-.205-.747-.308-1.372-.308h-2.436v2.562zm0-3.304h2.212c.569 0 1.003-.107 1.302-.322.308-.215.462-.527.462-.938 0-.411-.154-.719-.462-.924-.299-.205-.733-.308-1.302-.308h-2.212v2.492zm6.207 4.074l.07-.854a.971.971 0 01.182.042c.066.009.122.014.168.014a.863.863 0 00.714-.336c.187-.224.327-.523.42-.896.094-.373.159-.793.196-1.26.038-.476.07-.952.098-1.428l.126-2.618h5.39V370h-.994v-6.776l.252.294h-4.004l.238-.308-.112 2.128a21.57 21.57 0 01-.154 1.82 7.232 7.232 0 01-.322 1.526c-.14.439-.336.784-.588 1.036-.252.243-.574.364-.966.364-.112 0-.228-.009-.35-.028a8.71 8.71 0 01-.364-.07zm14.754.014v-1.624l-.042-.266v-2.716c0-.625-.177-1.106-.532-1.442-.345-.336-.863-.504-1.554-.504-.476 0-.929.079-1.358.238a3.48 3.48 0 00-1.092.63l-.448-.742c.373-.317.821-.56 1.344-.728a5.116 5.116 0 011.652-.266c.952 0 1.685.238 2.198.714.523.467.784 1.181.784 2.142V370h-.952zm-2.534.07c-.551 0-1.031-.089-1.442-.266-.401-.187-.709-.439-.924-.756a1.991 1.991 0 01-.322-1.12c0-.383.089-.728.266-1.036.187-.317.485-.569.896-.756.42-.196.98-.294 1.68-.294h2.534v.742h-2.506c-.709 0-1.204.126-1.484.378a1.229 1.229 0 00-.406.938c0 .42.163.756.49 1.008.327.252.784.378 1.372.378.56 0 1.041-.126 1.442-.378.411-.261.709-.635.896-1.12l.224.686a2.326 2.326 0 01-.98 1.162c-.457.289-1.036.434-1.736.434zm6.132-.07v-7.35h5.208v.868h-4.466l.252-.252V370h-.994zm6.771 2.786a2.96 2.96 0 01-.994-.168 2.154 2.154 0 01-.798-.504l.462-.742c.186.177.387.313.602.406.224.103.471.154.742.154.326 0 .606-.093.84-.28.242-.177.471-.495.686-.952l.476-1.078.112-.154 3.024-6.818h.98l-3.682 8.232c-.206.476-.434.854-.686 1.134-.243.28-.509.476-.798.588-.29.121-.612.182-.966.182zm1.96-2.576l-3.388-7.56h1.036l2.996 6.748-.644.812z" fill="#30383E"/><path stroke="#46515A" stroke-width="3" d="M2 1.5h507v397H2z"/><defs><clipPath id="clip0_401_381"><path fill="#fff" transform="translate(270.625 117)" d="M0 0h117v209H0z"/></clipPath><clipPath id="clip1_401_381"><path fill="#fff" transform="translate(412.625 117)" d="M0 0h72.072v213H0z"/></clipPath></defs></svg>