<svg width="120" height="83" viewBox="0 0 120 83" fill="none" xmlns="http://www.w3.org/2000/svg">
<g clip-path="url(#clip0_594_766)">
<path d="M94.7901 52.0737C90.8651 51.6687 86.9381 52.821 83.8464 55.2847C80.7547 57.7484 78.7431 61.3286 78.2405 65.2617C77.7379 69.1948 78.7841 73.1697 81.156 76.3386C83.528 79.5075 87.0379 81.6197 90.9373 82.2247H91.0182C93.5253 82.5506 96.0738 82.2348 98.4272 81.3066C99.2979 80.9164 100.148 80.4822 100.975 80.0057C103.606 78.3302 105.658 75.8796 106.852 72.9885C108.045 70.0974 108.322 66.9066 107.645 63.8515C106.967 60.7964 105.368 58.0258 103.065 55.918C100.763 53.8101 97.8696 52.4676 94.78 52.0737H94.7901ZM99.3642 67.9724C99.2452 68.9314 98.9163 69.8519 98.4011 70.6679C97.8858 71.4839 97.1971 72.175 96.3845 72.6915C96.0292 72.8969 95.6636 73.0835 95.2889 73.2505C94.2749 73.6547 93.1754 73.7934 92.0934 73.6537H92.0564C90.7798 73.4863 89.5812 72.9426 88.6119 72.0913C87.6425 71.2399 86.9457 70.1191 86.6096 68.8701C86.2734 67.6212 86.3129 66.3002 86.723 65.0738C87.1332 63.8474 87.8956 62.7706 88.9141 61.9792C89.9326 61.1879 91.1615 60.7175 92.4457 60.6275C93.73 60.5374 95.0119 60.8317 96.1299 61.4733C97.2479 62.1148 98.1517 63.0748 98.7273 64.232C99.3029 65.3893 99.5246 66.692 99.3642 67.9758V67.9724Z" fill="#30383E"/>
<path d="M88.3148 82.8815C86.0403 82.6167 83.8459 81.8773 81.8723 80.7105C79.8988 79.5437 78.1895 77.9754 76.8542 76.106C76.3602 75.4061 75.925 74.6661 75.553 73.8938C74.2888 71.2893 73.8108 68.3699 74.1778 65.4955C74.6535 61.8181 76.3952 58.4241 79.1006 55.9024C81.8061 53.3807 85.3046 51.8906 88.989 51.6904C82.6216 52.8694 77.6632 58.5134 76.7969 65.5192C75.7351 74.0937 81.5463 81.899 89.7845 83.0001C89.3058 83.0001 88.8137 82.9425 88.3148 82.8815Z" fill="#46515A"/>
<path d="M93.6607 62.1043C95.294 62.4877 96.7125 63.4997 97.6113 64.9229C97.765 65.176 97.8959 65.4425 98.0023 65.7191C98.366 66.6198 98.4287 67.6149 98.1809 68.5546C97.5371 70.987 95.0225 72.5996 92.2012 72.3455C93.3496 72.325 94.4605 71.9305 95.3667 71.2213C96.273 70.512 96.9258 69.5263 97.227 68.4123C97.9484 65.6411 96.1147 62.7717 93.1248 61.9756C93.3034 62.0196 93.4821 62.0603 93.6607 62.1043Z" fill="#46515A"/>
<path d="M38.4707 52.0737C34.5458 51.6687 30.6187 52.821 27.527 55.2847C24.4354 57.7484 22.4237 61.3286 21.9211 65.2617C21.4185 69.1948 22.4648 73.1697 24.8367 76.3386C27.2086 79.5075 30.7185 81.6197 34.6179 82.2247H34.6988C37.2148 82.5552 39.7732 82.2394 42.1348 81.3066C43.0055 80.9164 43.856 80.4822 44.6831 80.0057C47.3137 78.3302 49.3659 75.8796 50.5594 72.9885C51.753 70.0974 52.0298 66.9066 51.3522 63.8515C50.6745 60.7964 49.0754 58.0258 46.7731 55.918C44.4707 53.8101 41.5772 52.4676 38.4876 52.0737H38.4707ZM43.0449 67.9724C42.9259 68.9314 42.5969 69.8519 42.0817 70.6679C41.5665 71.4839 40.8778 72.175 40.0651 72.6915C39.709 72.8974 39.3422 73.084 38.9662 73.2505C37.9534 73.6548 36.855 73.7935 35.7741 73.6537H35.7303C34.4538 73.4863 33.2552 72.9426 32.2858 72.0913C31.3164 71.2399 30.6197 70.1191 30.2835 68.8701C29.9473 67.6212 29.9868 66.3002 30.397 65.0738C30.8071 63.8474 31.5696 62.7706 32.5881 61.9792C33.6065 61.1879 34.8354 60.7175 36.1197 60.6275C37.4039 60.5374 38.6859 60.8317 39.8038 61.4733C40.9218 62.1148 41.8256 63.0748 42.4012 64.232C42.9769 65.3893 43.1985 66.692 43.0382 67.9758L43.0449 67.9724Z" fill="#30383E"/>
<path d="M32.0024 82.8815C29.7278 82.6172 27.5332 81.8779 25.5596 80.711C23.5859 79.5442 21.8768 77.9757 20.5417 76.106C20.0466 75.4069 19.6113 74.6668 19.2406 73.8938C17.9744 71.2863 17.4963 68.363 17.8653 65.4854C18.3428 61.812 20.0835 58.422 22.786 55.9027C25.4884 53.3833 28.9825 51.8932 32.6631 51.6904C26.2957 52.8694 21.3339 58.5134 20.4709 65.5192C19.4226 74.0937 25.2339 81.899 33.4721 83.0001C32.9833 83.0001 32.4945 82.9425 32.0024 82.8815Z" fill="#46515A"/>
<path d="M37.3414 62.1043C38.9747 62.4877 40.3931 63.4997 41.2919 64.9229C41.4457 65.176 41.5766 65.4425 41.683 65.7191C42.0467 66.6198 42.1094 67.6149 41.8616 68.5546C41.2178 70.987 38.7032 72.5996 35.8818 72.3455C37.03 72.3254 38.1406 71.931 39.0464 71.2216C39.9522 70.5122 40.6042 69.5263 40.9043 68.4123C41.629 65.6411 39.7953 62.7717 36.8054 61.9756C36.9841 62.0196 37.1627 62.0603 37.3414 62.1043Z" fill="#46515A"/>
<path d="M79.1158 45.8398H8.37988V63.8153H79.1158V45.8398Z" fill="#CD342B"/>
<path d="M94.5134 6.30469H70.4258V63.7068H119.663V36.869L94.5134 6.30469ZM78.1617 38.258V13.4596H91.7258L110.842 38.258H78.1617Z" fill="#CD342B"/>
<path d="M6.50208 63.9846L0.336914 56.2368V40.7412L6.50208 47.1644V63.9846Z" fill="#C71D14"/>
<path d="M1.12598 38.4238L8.50463 45.8125H70.463L59.9024 38.4238H1.12598Z" fill="#30383E"/>
<path d="M70.4631 45.7346L60.0137 38.4611V2.44922L70.426 6.30448L70.4631 45.7346Z" fill="#30383E"/>
<path d="M60.2393 0L71.2988 4.31261H93.5629L82.6954 0H60.2393Z" fill="#D5554F"/>
<path d="M70.7965 24.4727H15.8291V45.7444H70.7965V24.4727Z" fill="#606971"/>
<path d="M15.829 45.741L4.5874 34.4428V15.3867L15.829 24.4727V45.741Z" fill="#46515A"/>
<path d="M4.5874 15.3867H57.7885L70.7964 24.4727H15.829L4.5874 15.3867Z" fill="#697279"/>
<path d="M56.3395 18.1956H11.1238C10.976 18.1944 10.8327 18.1444 10.716 18.0534C10.6141 17.9648 10.541 17.8477 10.5061 17.717C10.4711 17.5863 10.4758 17.4481 10.5197 17.3202C10.5636 17.1922 10.6446 17.0804 10.7523 16.9992C10.8599 16.9179 10.9893 16.8709 11.1238 16.8643H56.3395C56.4702 16.865 56.5979 16.9038 56.707 16.9761C56.818 17.0594 56.9008 17.175 56.9441 17.3073C56.9874 17.4396 56.9891 17.5821 56.949 17.7154C56.9088 17.8487 56.8288 17.9663 56.7197 18.0522C56.6107 18.1382 56.4779 18.1882 56.3395 18.1956Z" fill="#30383E"/>
<path d="M59.6627 20.2626H14.4402C14.2928 20.2623 14.1495 20.2136 14.0324 20.1237C13.9305 20.0351 13.8574 19.918 13.8225 19.7873C13.7875 19.6566 13.7922 19.5184 13.8361 19.3905C13.88 19.2626 13.961 19.1508 14.0687 19.0695C14.1763 18.9883 14.3057 18.9413 14.4402 18.9346H59.6627C59.7936 18.9336 59.9217 18.9726 60.0301 19.0464C60.1399 19.1301 60.2215 19.2455 60.264 19.3772C60.3065 19.5089 60.3078 19.6506 60.2678 19.7831C60.2278 19.9156 60.1483 20.0326 60.0401 20.1183C59.9319 20.204 59.8002 20.2544 59.6627 20.2626Z" fill="#30383E"/>
<path d="M62.5111 22.6273H17.3055C17.1577 22.6261 17.0144 22.5761 16.8976 22.485C16.7958 22.3965 16.7227 22.2793 16.6877 22.1486C16.6527 22.0179 16.6575 21.8797 16.7014 21.7518C16.7452 21.6239 16.8262 21.5121 16.9339 21.4308C17.0416 21.3496 17.171 21.3026 17.3055 21.2959H62.5111C62.6417 21.2966 62.7694 21.3354 62.8785 21.4077C62.9895 21.491 63.0724 21.6067 63.1157 21.739C63.159 21.8713 63.1606 22.0137 63.1205 22.147C63.0803 22.2803 63.0003 22.3979 62.8912 22.4839C62.7822 22.5698 62.6494 22.6199 62.5111 22.6273Z" fill="#30383E"/>
</g>
<defs>
<clipPath id="clip0_594_766">
<rect width="120" height="83" fill="white"/>
</clipPath>
</defs>
</svg>
