<svg width="120" height="100" viewBox="0 0 120 100" fill="none" xmlns="http://www.w3.org/2000/svg">
<g clip-path="url(#clip0_170_788)">
<path d="M34.6992 19.7055L60.0176 30.5955L84.8991 19.9509L59.7992 8.83087L34.6992 19.7055Z" fill="#46515A"/>
<path d="M33.2891 22.1366L58.7798 33.157V90.1914L33.2891 80.6626V22.1366Z" fill="#30383E"/>
<path d="M86.4586 22.1366L61.8721 32.8655V90.1914L86.4586 80.0874V22.1366Z" fill="#444F57"/>
<path d="M60.0709 100L25.1279 86.2763V15.8825L60.0364 0L94.8645 15.7598V85.126L60.0709 100ZM28.1701 84.1942L60.0364 96.71L91.8376 83.1282V17.7231L60.0364 3.33985L28.1701 17.8419V84.1942Z" fill="#C22422"/>
<path d="M67.0331 52.6055H66.5504C66.389 52.6081 66.2287 52.5783 66.0791 52.5177C65.9294 52.4572 65.7934 52.3673 65.6791 52.2532C65.5647 52.1392 65.4744 52.0033 65.4135 51.8538C65.3526 51.7042 65.3222 51.5439 65.3243 51.3823V34.9975C65.3238 34.8367 65.3552 34.6775 65.4168 34.529C65.4784 34.3806 65.5689 34.2459 65.683 34.1327C65.7971 34.0196 65.9325 33.9303 66.0815 33.8701C66.2304 33.8099 66.3898 33.7799 66.5504 33.782H67.0485C67.3706 33.782 67.6795 33.91 67.9073 34.138C68.1351 34.3659 68.2631 34.6751 68.2631 34.9975V51.3823C68.2631 51.5418 68.2316 51.6996 68.1705 51.8469C68.1094 51.9942 68.0199 52.1279 67.9071 52.2405C67.7942 52.3531 67.6603 52.4422 67.513 52.5029C67.3656 52.5636 67.2078 52.5945 67.0485 52.594" fill="#30383E"/>
<path d="M75.447 55.2168H74.9489C74.6268 55.2168 74.3179 55.0888 74.0901 54.8608C73.8623 54.6329 73.7344 54.3237 73.7344 54.0013V32.5664C73.7354 32.2447 73.8638 31.9365 74.0915 31.7094C74.3191 31.4823 74.6275 31.3547 74.9489 31.3547H75.447C75.7682 31.3547 76.0761 31.4824 76.3032 31.7096C76.5302 31.9369 76.6578 32.2451 76.6578 32.5664V53.9936C76.6583 54.1531 76.6273 54.3111 76.5667 54.4585C76.5061 54.606 76.417 54.74 76.3045 54.8529C76.192 54.9658 76.0584 55.0554 75.9113 55.1166C75.7641 55.1777 75.6064 55.2092 75.447 55.2092" fill="#30383E"/>
<path d="M75.447 81.1649H74.9489C74.7896 81.1654 74.6318 81.1345 74.4844 81.0738C74.3371 81.0131 74.2032 80.924 74.0903 80.8114C73.9775 80.6988 73.888 80.5651 73.8269 80.4178C73.7658 80.2706 73.7344 80.1127 73.7344 79.9532V58.526C73.7344 58.3666 73.7658 58.2087 73.8269 58.0615C73.888 57.9142 73.9775 57.7804 74.0903 57.6679C74.2032 57.5553 74.3371 57.4661 74.4844 57.4055C74.6318 57.3448 74.7896 57.3138 74.9489 57.3143H75.447C75.6062 57.3138 75.7639 57.3448 75.911 57.4055C76.0581 57.4663 76.1918 57.5555 76.3043 57.6681C76.4168 57.7807 76.506 57.9145 76.5667 58.0617C76.6273 58.209 76.6583 58.3668 76.6578 58.526V79.9532C76.6583 80.1125 76.6273 80.2703 76.5667 80.4175C76.506 80.5648 76.4168 80.6986 76.3043 80.8112C76.1918 80.9238 76.0581 81.013 75.911 81.0737C75.7639 81.1345 75.6062 81.1655 75.447 81.1649Z" fill="#30383E"/>
<path d="M67.0324 84.5124H66.5496C66.3905 84.5129 66.2328 84.4819 66.0857 84.4212C65.9386 84.3605 65.8049 84.2713 65.6924 84.1586C65.5798 84.046 65.4907 83.9122 65.43 83.765C65.3693 83.6178 65.3384 83.46 65.3389 83.3007V66.9044C65.3384 66.7449 65.3693 66.587 65.4299 66.4395C65.4906 66.2921 65.5797 66.158 65.6921 66.0451C65.8046 65.9322 65.9383 65.8426 66.0854 65.7814C66.2325 65.7203 66.3903 65.6888 66.5496 65.6888H67.0477C67.3698 65.6888 67.6788 65.8169 67.9065 66.0449C68.1343 66.2728 68.2623 66.582 68.2623 66.9044V83.3007C68.2623 83.4602 68.2308 83.618 68.1698 83.7653C68.1087 83.9126 68.0191 84.0463 67.9063 84.1589C67.7935 84.2714 67.6596 84.3606 67.5122 84.4213C67.3649 84.482 67.207 84.5129 67.0477 84.5124" fill="#30383E"/>
<path d="M67.0324 63.9212H66.5496C66.3903 63.9212 66.2325 63.8897 66.0854 63.8286C65.9383 63.7675 65.8046 63.6779 65.6921 63.5649C65.5797 63.452 65.4906 63.318 65.4299 63.1705C65.3693 63.0231 65.3384 62.8651 65.3389 62.7056V55.0366C65.3384 54.8772 65.3693 54.7192 65.4299 54.5718C65.4906 54.4243 65.5797 54.2903 65.6921 54.1774C65.8046 54.0644 65.9383 53.9748 66.0854 53.9137C66.2325 53.8526 66.3903 53.8211 66.5496 53.8211H67.0477C67.3698 53.8211 67.6788 53.9492 67.9065 54.1771C68.1343 54.4051 68.2623 54.7143 68.2623 55.0366V62.7056C68.2623 63.028 68.1343 63.3372 67.9065 63.5652C67.6788 63.7931 67.3698 63.9212 67.0477 63.9212" fill="#30383E"/>
<path d="M82.7653 46.4511H82.2595C81.9374 46.4511 81.6284 46.3231 81.4007 46.0951C81.1729 45.8672 81.0449 45.558 81.0449 45.2356V28.8393C81.0449 28.6798 81.0764 28.5219 81.1374 28.3747C81.1985 28.2274 81.2881 28.0937 81.4009 27.9811C81.5137 27.8685 81.6476 27.7794 81.795 27.7187C81.9423 27.658 82.1002 27.6271 82.2595 27.6276H82.7576C82.9167 27.6271 83.0744 27.6581 83.2215 27.7188C83.3686 27.7795 83.5023 27.8687 83.6148 27.9813C83.7274 28.094 83.8165 28.2277 83.8772 28.375C83.9379 28.5222 83.9688 28.68 83.9683 28.8393V45.2471C83.9688 45.4066 83.9379 45.5645 83.8773 45.712C83.8167 45.8594 83.7275 45.9935 83.6151 46.1064C83.5026 46.2193 83.369 46.3089 83.2218 46.37C83.0747 46.4312 82.9169 46.4626 82.7576 46.4626" fill="#30383E"/>
<path d="M82.7653 78.3581H82.2595C81.9374 78.3581 81.6284 78.23 81.4007 78.002C81.1729 77.7741 81.0449 77.4649 81.0449 77.1425V60.7462C81.0449 60.5867 81.0764 60.4289 81.1374 60.2816C81.1985 60.1343 81.2881 60.0006 81.4009 59.888C81.5137 59.7755 81.6476 59.6863 81.795 59.6256C81.9423 59.565 82.1002 59.534 82.2595 59.5345H82.7576C82.9167 59.534 83.0744 59.565 83.2215 59.6257C83.3686 59.6864 83.5023 59.7756 83.6148 59.8883C83.7274 60.0009 83.8165 60.1347 83.8772 60.2819C83.9379 60.4291 83.9688 60.5869 83.9683 60.7462V77.1425C83.9688 77.302 83.9379 77.46 83.8773 77.6074C83.8167 77.7549 83.7275 77.8889 83.6151 78.0018C83.5026 78.1147 83.369 78.2043 83.2218 78.2655C83.0747 78.3266 82.9169 78.3581 82.7576 78.3581" fill="#30383E"/>
<path d="M82.7653 57.7629H82.2595C81.938 57.763 81.6297 57.6354 81.402 57.4083C81.1743 57.1812 81.0459 56.873 81.0449 56.5512V48.8822C81.0449 48.7228 81.0764 48.5649 81.1374 48.4177C81.1985 48.2704 81.2881 48.1366 81.4009 48.0241C81.5137 47.9115 81.6476 47.8223 81.795 47.7617C81.9423 47.701 82.1002 47.67 82.2595 47.6705H82.7576C82.9167 47.67 83.0744 47.701 83.2215 47.7617C83.3686 47.8225 83.5023 47.9117 83.6148 48.0243C83.7274 48.1369 83.8165 48.2707 83.8772 48.4179C83.9379 48.5652 83.9688 48.723 83.9683 48.8822V56.5512C83.9683 56.8726 83.8408 57.1808 83.6137 57.4081C83.3867 57.6353 83.0787 57.7629 82.7576 57.7629" fill="#30383E"/>
</g>
<defs>
<clipPath id="clip0_170_788">
<rect width="119.469" height="100" fill="white" transform="translate(0.265625)"/>
</clipPath>
</defs>
</svg>
