<svg width="120" height="100" viewBox="0 0 120 100" fill="none" xmlns="http://www.w3.org/2000/svg">
<g clip-path="url(#clip0_170_806)">
<path d="M119.778 50.5368L98.9961 50.115L107.623 39.9157L99.4179 39.7239L87.9531 53.2592L98.881 67.2163L107.125 67.3696L98.881 56.8635L119.663 57.3236L119.778 50.5368Z" fill="#C22422"/>
<path d="M21.1582 39.9924L12.9144 39.839L21.1582 50.3451L0.337687 49.885L0.222656 56.6335L21.0432 57.0936L12.4159 67.293L20.6214 67.4464L32.0862 53.9494L21.1582 39.9924Z" fill="#C22422"/>
<path d="M32.9678 18.0215L59.9616 29.6012L86.4954 18.2515L59.7316 6.44171L32.9678 18.0215Z" fill="#46515A"/>
<path d="M31.5107 21.089L58.658 32.8221V93.5583L31.5107 82.6688V21.089Z" fill="#30383E"/>
<path d="M88.183 21.089L61.9561 32.5154V93.5583L88.183 82.1319V21.089Z" fill="#444F57"/>
<path d="M67.4772 53.566H66.9404C66.2119 53.566 65.6367 52.9908 65.6367 52.2623V34.7776C65.6367 34.0491 66.2119 33.4739 66.9404 33.4739H67.4772C68.2057 33.4739 68.7809 34.0491 68.7809 34.7393V52.1856C68.7809 52.9525 68.2057 53.566 67.4772 53.566Z" fill="#30383E"/>
<path d="M76.4118 55.4448H75.875C75.1464 55.4448 74.5713 54.8696 74.5713 54.1795V31.3267C74.5713 30.5982 75.1464 30.023 75.875 30.023H76.4118C77.1403 30.023 77.7155 30.5982 77.7155 31.3267V54.1411C77.7155 54.8696 77.1403 55.4448 76.4118 55.4448Z" fill="#30383E"/>
<path d="M76.4118 83.9724H75.875C75.1464 83.9724 74.5713 83.3972 74.5713 82.6687V59.8543C74.5713 59.1258 75.1464 58.5506 75.875 58.5506H76.4118C77.1403 58.5506 77.7155 59.1258 77.7155 59.8543V82.6687C77.7155 83.3972 77.1403 83.9724 76.4118 83.9724Z" fill="#30383E"/>
<path d="M67.4772 87.5384H66.9404C66.2119 87.5384 65.6367 86.9632 65.6367 86.2347V68.7884C65.6367 68.0598 66.2119 67.4847 66.9404 67.4847H67.4772C68.2057 67.4847 68.7809 68.0598 68.7809 68.7884V86.2347C68.7809 86.9632 68.2057 87.5384 67.4772 87.5384Z" fill="#30383E"/>
<path d="M67.4772 65.8742H66.9404C66.2119 65.8742 65.6367 65.2991 65.6367 64.5705V56.4034C65.6367 55.6748 66.2119 55.0997 66.9404 55.0997H67.4772C68.2057 55.0997 68.7809 55.6748 68.7809 56.4034V64.5705C68.7809 65.2991 68.2057 65.8742 67.4772 65.8742Z" fill="#30383E"/>
<path d="M84.2331 47.0092H83.6963C82.9677 47.0092 82.3926 46.434 82.3926 45.7055V28.2592C82.3926 27.5307 82.9677 26.9555 83.6963 26.9555H84.2331C84.9616 26.9555 85.5367 27.5307 85.5367 28.2592V45.7055C85.4984 46.434 84.9233 47.0092 84.2331 47.0092Z" fill="#30383E"/>
<path d="M84.2331 80.9816H83.6963C82.9677 80.9816 82.3926 80.4064 82.3926 79.6779V62.2316C82.3926 61.5031 82.9677 60.9279 83.6963 60.9279H84.2331C84.9616 60.9279 85.5367 61.5031 85.5367 62.2316V79.6779C85.4984 80.4064 84.9233 80.9816 84.2331 80.9816Z" fill="#30383E"/>
<path d="M84.2331 59.0491H83.6963C82.9677 59.0491 82.3926 58.4739 82.3926 57.7454V49.5782C82.3926 48.888 82.9677 48.3129 83.6963 48.3129H84.2331C84.9616 48.3129 85.5367 48.888 85.5367 49.6165V57.7837C85.4984 58.4739 84.9233 59.0491 84.2331 59.0491Z" fill="#30383E"/>
</g>
<defs>
<clipPath id="clip0_170_806">
<rect width="119.555" height="100" fill="white" transform="translate(0.222656)"/>
</clipPath>
</defs>
</svg>
