<svg width="120" height="83" viewBox="0 0 120 83" fill="none" xmlns="http://www.w3.org/2000/svg">
<g clip-path="url(#clip0_594_788)">
<path d="M111.26 82.5604L98.1406 71.3458L97.5776 34.6318H111.26V82.5604Z" fill="#30383E"/>
<path d="M21.5024 34.7153V82.5597H13.5811V29.1653L65.6327 6.05859L119.663 29.6741V82.5597H111.175V34.7153H21.5024Z" fill="#C71D14"/>
<path d="M11.0223 81.0033L0.336914 74.0042V23.6123L11.0223 28.94V81.0033Z" fill="#C71D14"/>
<path d="M1.06494 21.7116L12.5964 27.4167L63.802 4.81881L48.8627 0L1.06494 21.7116Z" fill="#D34F48"/>
<path d="M111.084 67.9453H73.6382V82.3579H111.084V67.9453Z" fill="#606971"/>
<path d="M73.6384 82.3583L63.6406 75.6524V61.7891L73.6384 67.9457V82.3583Z" fill="#46515A"/>
<path d="M63.6406 61.7891H99.4822L111.088 67.9457H73.6384L63.6406 61.7891Z" fill="#697279"/>
<path d="M99.0135 63.5008H68.2146C68.1139 63.5014 68.0161 63.4669 67.9382 63.403C67.865 63.345 67.8116 63.2658 67.7853 63.1761C67.759 63.0865 67.7612 62.991 67.7915 62.9026C67.8219 62.8143 67.8788 62.7376 67.9546 62.6829C68.0303 62.6283 68.1212 62.5985 68.2146 62.5977H99.0135C99.1025 62.598 99.1894 62.625 99.2629 62.6752C99.3427 62.7291 99.4032 62.8072 99.4355 62.898C99.4678 62.9888 99.4701 63.0875 99.4423 63.1798C99.4144 63.272 99.3578 63.3529 99.2806 63.4107C99.2034 63.4684 99.1098 63.5 99.0135 63.5008Z" fill="#30383E"/>
<path d="M102.135 65.0911H71.3293C71.2282 65.0909 71.13 65.0578 71.0495 64.9968C70.9761 64.9386 70.9226 64.859 70.8964 64.7691C70.8702 64.6791 70.8727 64.5833 70.9034 64.4948C70.9342 64.4063 70.9917 64.3296 71.0679 64.2752C71.1442 64.2209 71.2356 64.1916 71.3293 64.1914H102.135C102.223 64.1917 102.31 64.2174 102.384 64.2655C102.464 64.3195 102.525 64.3976 102.557 64.4884C102.589 64.5792 102.592 64.6779 102.564 64.7702C102.536 64.8624 102.479 64.9433 102.402 65.0011C102.325 65.0588 102.231 65.0904 102.135 65.0911Z" fill="#30383E"/>
<path d="M104.784 66.6951H73.9889C73.8873 66.6952 73.7886 66.6607 73.7091 66.5974C73.6357 66.5392 73.5822 66.4596 73.5561 66.3697C73.5299 66.2797 73.5323 66.1839 73.5631 66.0954C73.5938 66.0069 73.6513 65.9302 73.7276 65.8758C73.8039 65.8215 73.8952 65.7922 73.9889 65.792H104.784C104.875 65.7918 104.963 65.8188 105.037 65.8695C105.117 65.9236 105.178 66.002 105.21 66.0931C105.242 66.1843 105.244 66.2833 105.216 66.3757C105.188 66.4681 105.131 66.549 105.053 66.6065C104.975 66.664 104.881 66.695 104.784 66.6951Z" fill="#30383E"/>
<path d="M111.084 53.6807H73.6382V68.0933H111.084V53.6807Z" fill="#606971"/>
<path d="M73.6384 68.0933L63.6406 61.6705V47.8105L73.6384 53.6774V68.0933Z" fill="#46515A"/>
<path d="M63.6406 47.8108L99.4822 47.5244L111.088 53.6777H73.6384L63.6406 47.8108Z" fill="#697279"/>
<path d="M99.0135 49.2327H68.2146C68.1145 49.233 68.0172 49.1998 67.9382 49.1384C67.865 49.0804 67.8116 49.0011 67.7853 48.9115C67.759 48.8219 67.7612 48.7263 67.7915 48.638C67.8219 48.5497 67.8788 48.4729 67.9546 48.4183C68.0303 48.3637 68.1212 48.3339 68.2146 48.333H99.0135C99.1025 48.3333 99.1894 48.3603 99.2629 48.4105C99.3435 48.4637 99.4048 48.5415 99.4376 48.6324C99.4704 48.7232 99.473 48.8222 99.445 48.9146C99.4169 49.0071 99.3598 49.088 99.282 49.1453C99.2043 49.2026 99.1101 49.2333 99.0135 49.2327Z" fill="#30383E"/>
<path d="M102.135 50.8265H71.3293C71.2282 50.8263 71.13 50.7932 71.0495 50.7322C70.9761 50.674 70.9226 50.5944 70.8964 50.5045C70.8702 50.4145 70.8727 50.3187 70.9034 50.2302C70.9342 50.1417 70.9917 50.065 71.0679 50.0106C71.1442 49.9563 71.2356 49.927 71.3293 49.9268H102.135C102.224 49.9255 102.311 49.9514 102.384 50.0009C102.464 50.0549 102.525 50.133 102.557 50.2238C102.589 50.3146 102.592 50.4133 102.564 50.5056C102.536 50.5978 102.479 50.6787 102.402 50.7365C102.325 50.7942 102.231 50.8258 102.135 50.8265Z" fill="#30383E"/>
<path d="M104.784 52.4271H73.9889C73.8879 52.4268 73.7897 52.3937 73.7091 52.3327C73.6357 52.2745 73.5822 52.195 73.5561 52.105C73.5299 52.0151 73.5323 51.9192 73.5631 51.8308C73.5938 51.7423 73.6513 51.6655 73.7276 51.6112C73.8039 51.5568 73.8952 51.5275 73.9889 51.5273H104.784C104.874 51.5276 104.962 51.5533 105.037 51.6015C105.117 51.6556 105.178 51.734 105.21 51.8251C105.242 51.9162 105.244 52.0153 105.216 52.1077C105.188 52.2001 105.131 52.281 105.053 52.3385C104.975 52.396 104.881 52.427 104.784 52.4271Z" fill="#30383E"/>
<path d="M69.5664 82.4214V44.9863H58.5136V82.4214H69.5664Z" fill="#606971"/>
<path d="M69.5663 44.9866L58.9214 41.7617H48.4214L58.5135 44.9866H69.5663Z" fill="#46515A"/>
<path d="M48.4213 41.7617L48.1348 76.3594L58.5134 82.4217V44.9866L48.4213 41.7617Z" fill="#697279"/>
<path d="M50.2248 76.2614C49.9714 76.1576 49.7545 75.9807 49.6021 75.7533C49.4496 75.5258 49.3683 75.2581 49.3687 74.9843V45.5963C49.3692 45.4711 49.4006 45.3479 49.4599 45.2376C49.5192 45.1273 49.6047 45.0333 49.7089 44.9637C49.8131 44.8942 49.9327 44.8513 50.0574 44.8388C50.182 44.8263 50.3078 44.8445 50.4237 44.892C50.6767 44.9965 50.893 45.1736 51.0453 45.4009C51.1977 45.6282 51.2793 45.8955 51.2799 46.1691V75.5571C51.2793 75.6824 51.248 75.8055 51.1886 75.9158C51.1293 76.0261 51.0438 76.1201 50.9396 76.1897C50.8355 76.2592 50.7158 76.3021 50.5912 76.3146C50.4665 76.3271 50.3408 76.3089 50.2248 76.2614Z" fill="#30383E"/>
<path d="M56.1809 78.8535C55.9286 78.7484 55.713 78.5711 55.5613 78.3439C55.4095 78.1166 55.3284 77.8496 55.3281 77.5763V48.1883C55.3281 48.0632 55.3589 47.9401 55.4179 47.8297C55.4768 47.7194 55.562 47.6252 55.6659 47.5556C55.7699 47.486 55.8894 47.443 56.0139 47.4306C56.1384 47.4181 56.2641 47.4365 56.3798 47.4841C56.6333 47.5878 56.8501 47.7647 57.0026 47.9922C57.1551 48.2197 57.2363 48.4874 57.236 48.7612V78.1458C57.2359 78.2713 57.205 78.3949 57.1459 78.5056C57.0868 78.6164 57.0014 78.7109 56.8971 78.7808C56.7929 78.8507 56.673 78.8939 56.5481 78.9066C56.4232 78.9193 56.2971 78.901 56.1809 78.8535Z" fill="#30383E"/>
<path d="M53.2585 77.5053C53.0053 77.4011 52.7888 77.2241 52.6363 76.9967C52.4839 76.7694 52.4025 76.5018 52.4023 76.2281V46.8401C52.4021 46.7146 52.4329 46.591 52.492 46.4802C52.5511 46.3695 52.6367 46.2751 52.7411 46.2054C52.8455 46.1357 52.9656 46.0928 53.0905 46.0807C53.2155 46.0686 53.3415 46.0875 53.4574 46.1358C53.7103 46.2404 53.9267 46.4174 54.079 46.6447C54.2314 46.872 54.313 47.1394 54.3136 47.413V76.7976C54.3135 76.9231 54.2826 77.0467 54.2235 77.1574C54.1644 77.2681 54.079 77.3626 53.9747 77.4326C53.8705 77.5025 53.7506 77.5457 53.6257 77.5584C53.5008 77.5711 53.3747 77.5528 53.2585 77.5053Z" fill="#30383E"/>
<path d="M58.938 82.4214V44.9863H47.8852V82.4214H58.938Z" fill="#606971"/>
<path d="M58.9384 44.9866L48.2935 41.7617H37.7935L47.8856 44.9866H58.9384Z" fill="#46515A"/>
<path d="M37.7934 41.7617L37.5068 76.3594L47.8855 82.4217V44.9866L37.7934 41.7617Z" fill="#697279"/>
<path d="M39.5965 76.2617C39.3439 76.157 39.128 75.9798 38.9762 75.7525C38.8244 75.5251 38.7435 75.2579 38.7437 74.9845V45.5965C38.7437 45.4715 38.7745 45.3483 38.8334 45.2379C38.8923 45.1276 38.9775 45.0334 39.0815 44.9638C39.1854 44.8942 39.3049 44.8512 39.4295 44.8388C39.554 44.8263 39.6796 44.8447 39.7953 44.8923C40.0483 44.9958 40.2647 45.1722 40.4172 45.399C40.5696 45.6258 40.6512 45.8928 40.6515 46.166V75.554C40.6523 75.6798 40.6219 75.8039 40.563 75.9151C40.5042 76.0263 40.4187 76.1211 40.3142 76.1912C40.2097 76.2613 40.0894 76.3044 39.9642 76.3167C39.8389 76.329 39.7126 76.3101 39.5965 76.2617Z" fill="#30383E"/>
<path d="M45.553 78.8529C45.2997 78.7488 45.0832 78.5718 44.9308 78.3444C44.7783 78.117 44.6969 77.8495 44.6968 77.5758V48.1878C44.6965 48.0623 44.7274 47.9386 44.7865 47.8279C44.8456 47.7171 44.9311 47.6227 45.0355 47.553C45.14 47.4833 45.26 47.4405 45.385 47.4284C45.5099 47.4162 45.636 47.4352 45.7518 47.4835C46.0053 47.5873 46.2221 47.7642 46.3746 47.9916C46.5271 48.2191 46.6084 48.4868 46.608 48.7606V78.1453C46.608 78.2708 46.577 78.3943 46.5179 78.5051C46.4588 78.6158 46.3734 78.7103 46.2692 78.7802C46.1649 78.8501 46.045 78.8934 45.9201 78.906C45.7952 78.9187 45.6691 78.9005 45.553 78.8529Z" fill="#30383E"/>
<path d="M42.6302 77.5048C42.3778 77.3998 42.1622 77.2225 42.0105 76.9952C41.8587 76.768 41.7776 76.5009 41.7773 76.2277V46.8397C41.7773 46.7146 41.8082 46.5914 41.8671 46.4811C41.926 46.3707 42.0112 46.2766 42.1152 46.207C42.2191 46.1374 42.3386 46.0944 42.4631 46.0819C42.5877 46.0694 42.7133 46.0878 42.829 46.1354C43.0825 46.2392 43.2993 46.4161 43.4518 46.6436C43.6043 46.871 43.6856 47.1387 43.6852 47.4126V76.7972C43.6852 76.9227 43.6542 77.0463 43.5951 77.157C43.536 77.2677 43.4506 77.3622 43.3464 77.4321C43.2421 77.5021 43.1222 77.5453 42.9973 77.558C42.8724 77.5706 42.7463 77.5524 42.6302 77.5048Z" fill="#30383E"/>
</g>
<defs>
<clipPath id="clip0_594_788">
<rect width="120" height="82.56" fill="white"/>
</clipPath>
</defs>
</svg>
