<svg width="310" height="60" viewBox="0 0 310 60" fill="none" xmlns="http://www.w3.org/2000/svg">
<path d="M72.3744 37.7845V13.4393H66.6094V7.30713H84.5286V13.4393H79.1308V37.7845H72.3744Z" fill="white"/>
<path d="M87.4297 37.7845V7.30713H104.504V13.0721H94.7736V18.9473H103.77V24.7123H94.7736V31.9828H104.504V37.7845H87.4297Z" fill="white"/>
<path d="M107.956 37.7845V7.30713H118.605C121.212 7.30713 123.231 7.85792 124.627 8.99624C126.536 10.5385 127.491 13.0354 127.491 16.5972C127.491 20.0121 126.573 22.5091 124.7 24.0513C123.231 25.2631 121.212 25.8873 118.641 25.8873H115.337V37.7845H107.956ZM115.3 20.3793H116.622C117.65 20.3793 118.458 20.1223 119.045 19.5715C119.743 18.9106 120.11 17.8824 120.11 16.4871C120.11 15.0917 119.817 14.1003 119.192 13.5862C118.568 13.0354 117.687 12.7784 116.512 12.7784H115.3V20.3793Z" fill="white"/>
<path d="M130.832 37.7845V7.30713H147.907V13.0721H138.176V18.9473H147.172V24.7123H138.176V31.9828H147.907V37.7845H130.832Z" fill="white"/>
<path d="M156.683 22.3622L150.221 7.30713H157.307L160.833 16.2667L164.358 7.30713H171.445L164.982 22.3622L171.738 37.7478H163.99L160.833 28.4577L157.014 37.7845H149.927L156.683 22.3622Z" fill="white"/>
<path d="M174.309 15.2019C174.309 12.6683 175.08 10.6487 176.659 9.14318C178.384 7.49079 180.918 6.64624 184.26 6.64624C187.528 6.64624 190.061 7.49079 191.787 9.14318C193.329 10.6854 194.137 12.705 194.137 15.2387V28.8984C194.137 32.0563 193.329 34.4063 191.75 36.022C190.135 37.6377 187.638 38.4088 184.26 38.4088C180.918 38.4088 178.421 37.601 176.806 35.9853C175.19 34.3696 174.345 32.0196 174.345 28.9351V15.2019H174.309ZM184.186 12.1175C183.489 12.1175 182.901 12.3378 182.387 12.8152C181.873 13.2558 181.616 13.9167 181.616 14.7246V30.2203C181.616 31.1016 181.873 31.7625 182.35 32.2399C182.828 32.7172 183.452 32.9376 184.149 32.9376C184.847 32.9376 185.471 32.7172 185.949 32.2399C186.426 31.7992 186.683 31.1016 186.683 30.1836V14.7246C186.683 13.9167 186.426 13.2558 185.912 12.8152C185.471 12.3378 184.884 12.1175 184.186 12.1175Z" fill="white"/>
<path d="M208.347 37.7845H198.103V7.30713H209.816C211.872 7.30713 213.562 7.89464 214.92 9.03296C216.536 10.4283 217.344 12.3744 217.344 14.9081C217.344 16.8175 216.866 18.3598 215.912 19.5715C215.14 20.5262 214.222 21.1137 213.194 21.3341C214.7 21.9583 215.801 22.8396 216.536 23.9412C217.27 25.0427 217.637 26.6584 217.637 28.7147C217.637 31.6156 216.866 33.8188 215.287 35.3977C213.745 36.9767 211.432 37.7845 208.347 37.7845ZM205.189 12.7784V19.0574H207.356C208.421 19.0574 209.155 18.8004 209.596 18.2496C210.036 17.6988 210.257 16.8175 210.257 15.6058C210.257 14.6878 210.036 13.9901 209.559 13.5128C209.118 13.0354 208.384 12.7784 207.356 12.7784H205.189ZM205.189 24.5654V32.2765H206.842C208.2 32.2765 209.118 31.9828 209.633 31.432C210.147 30.8812 210.404 29.8897 210.404 28.4577C210.404 27.1358 210.147 26.1443 209.633 25.5201C209.118 24.8959 208.237 24.5654 206.989 24.5654H205.189Z" fill="white"/>
<path d="M232.693 25.7038H240.037V28.5312C240.037 31.9461 239.229 34.4431 237.613 36.022C235.998 37.601 233.501 38.4088 230.086 38.4088C226.671 38.4088 224.174 37.601 222.558 36.022C220.943 34.4431 220.135 31.9094 220.135 28.4945V15.2387C220.135 12.6683 220.906 10.6487 222.485 9.14318C224.211 7.49079 226.744 6.64624 230.086 6.64624C233.354 6.64624 235.888 7.49079 237.65 9.1799C239.229 10.7221 240.037 12.7417 240.037 15.2754V18.0293H232.693V14.6144C232.693 13.88 232.399 13.2925 231.848 12.8886C231.298 12.4847 230.673 12.2644 230.012 12.2644C229.315 12.2644 228.764 12.448 228.287 12.8152C227.809 13.1823 227.552 13.7331 227.552 14.5043V29.7797C227.552 30.918 227.772 31.7258 228.176 32.2032C228.58 32.6805 229.205 32.9376 230.012 32.9376C230.82 32.9376 231.481 32.6805 231.959 32.1664C232.436 31.6524 232.693 30.8445 232.693 29.7429V25.7038Z" fill="white"/>
<path d="M243.929 37.7845V7.30713H250.942V19.4246L256.083 7.30713H264.088L257.331 20.7465L264.088 37.7478H256.34L252.925 27.1358L250.942 30.6609V37.7845H243.929Z" fill="white"/>
<path d="M278.996 37.7845V30.6609C279.437 26.842 279.877 23.0232 280.318 19.2043L273.965 37.7845H266.842V7.30713H273.892V14.9081C273.892 15.7159 273.635 18.1762 273.121 22.2153C272.901 24.0146 272.79 25.4467 272.79 26.4748L278.996 7.30713H286.009V37.7845H278.996Z" fill="white"/>
<path d="M302.423 37.7846V30.661C302.864 26.8421 303.304 23.0233 303.745 19.2044L297.429 37.7846H290.306V7.2705H297.319V14.9082C297.319 15.6059 297.062 18.0661 296.548 22.2154C296.364 23.8311 296.254 25.2264 296.254 26.4382L302.46 7.2705H309.473V37.7846H302.423ZM295.263 4.22277C296.328 5.0306 297.87 5.47124 299.853 5.47124C301.652 5.47124 303.121 5.0306 304.369 4.11261C305.691 3.12117 306.352 1.76255 306.352 0H303.635C303.378 0.881273 302.937 1.46879 302.276 1.83599C301.762 2.09302 301.028 2.20318 300.036 2.20318C299.008 2.20318 298.2 2.09302 297.613 1.83599C296.805 1.50551 296.328 0.881273 296.254 0H293.464C293.427 1.87271 294.051 3.26805 295.263 4.22277Z" fill="white"/>
<path d="M69.6201 53.721L70.5748 53.5006C70.7217 54.1616 71.0155 54.6757 71.3827 54.9694C71.7499 55.2632 72.3007 55.4101 72.9249 55.4101C73.5491 55.4101 74.0265 55.2632 74.357 54.9327C74.6874 54.6022 74.8343 54.235 74.8343 53.721C74.8343 52.6561 74.2468 52.142 73.035 52.142H72.2272V51.224H72.9616C73.439 51.224 73.8429 51.1139 74.1366 50.8568C74.4304 50.5998 74.5773 50.2326 74.5773 49.792C74.5773 49.3513 74.4304 49.0208 74.0999 48.7271C73.7694 48.47 73.3655 48.3232 72.8514 48.3232C71.7131 48.3232 71.0522 48.874 70.8319 49.9388L69.8037 49.8287C70.1709 48.2497 71.1623 47.4419 72.8147 47.4419C73.696 47.4419 74.3937 47.6622 74.9078 48.0661C75.4218 48.47 75.6789 49.0208 75.6789 49.6818C75.6789 50.6365 75.1281 51.2975 74.0265 51.5912C75.275 51.8115 75.8992 52.4725 75.8992 53.6475C75.8992 54.3452 75.6421 54.9694 75.1281 55.4835C74.614 55.9976 73.8429 56.2546 72.8147 56.2546C71.8967 56.2546 71.1991 56.0343 70.6483 55.5937C70.1342 55.153 69.8037 54.5288 69.6201 53.721Z" fill="white"/>
<path d="M87.2094 56.071H86.1445L85.2999 53.6108H82.1788L81.4076 56.071H80.5264L83.2803 47.6255H84.4921L87.2094 56.071ZM85.0429 52.803L83.7577 48.7271L82.4358 52.803H85.0429Z" fill="white"/>
<path d="M92.1299 56.071V47.6255H95.4714C96.3159 47.6255 96.9402 47.8458 97.3441 48.2497C97.748 48.6536 97.9683 49.131 97.9683 49.6818C97.9683 50.6365 97.4542 51.2607 96.4628 51.5912C97.0503 51.7381 97.491 52.0319 97.7847 52.3991C98.0785 52.803 98.2254 53.2436 98.2254 53.721C98.2254 54.3819 98.005 54.9327 97.5644 55.3733C97.1238 55.814 96.4261 56.0343 95.5081 56.0343H92.1299V56.071ZM93.1213 51.2607H94.9573C95.7284 51.2607 96.2425 51.1139 96.4995 50.8201C96.7566 50.5263 96.8667 50.1959 96.8667 49.7919C96.8667 49.388 96.7199 49.0943 96.4628 48.8372C96.2058 48.5802 95.7651 48.47 95.2511 48.47H93.1213V51.2607ZM93.1213 55.153H95.3979C95.9487 55.153 96.3894 55.0061 96.6831 54.7491C96.9769 54.4921 97.1238 54.1249 97.1238 53.6842C97.1238 53.3905 97.0503 53.0967 96.9034 52.8397C96.7566 52.5826 96.573 52.399 96.3159 52.2522C96.0589 52.1053 95.6917 52.0319 95.2143 52.0319H93.0846V55.153H93.1213Z" fill="white"/>
<path d="M107.369 56.2546C106.267 56.2546 105.423 55.814 104.835 54.9694C104.211 54.1249 103.917 53.0967 103.917 51.8483C103.917 50.5631 104.247 49.4982 104.872 48.6904C105.496 47.8825 106.34 47.4419 107.405 47.4419C108.434 47.4419 109.278 47.8458 109.902 48.6536C110.527 49.4615 110.857 50.4896 110.857 51.7381C110.857 52.9498 110.563 53.978 109.939 54.8593C109.315 55.814 108.47 56.2546 107.369 56.2546ZM107.405 55.3733C108.14 55.3733 108.727 55.0429 109.131 54.3452C109.535 53.6842 109.755 52.803 109.755 51.7381C109.755 50.6365 109.535 49.792 109.094 49.2044C108.654 48.6169 108.103 48.2864 107.369 48.2864C106.634 48.2864 106.083 48.6169 105.643 49.2779C105.202 49.9388 105.019 50.7834 105.019 51.8483C105.019 52.8764 105.239 53.721 105.68 54.3819C106.083 55.0796 106.671 55.3733 107.405 55.3733Z" fill="white"/>
<path d="M115.74 55.153L118.2 47.6255H119.963L122.46 55.153H122.937V57.8703H122.093L121.946 56.1077H116.217L116.107 57.8703H115.263V55.153H115.74ZM116.731 55.153H121.285L119.228 48.47H118.788L116.731 55.153Z" fill="white"/>
<path d="M134.688 56.071V47.6255H139.535V48.5435H135.679V51.1139H137.184C137.992 51.1139 138.58 51.1873 138.984 51.2975C139.388 51.4076 139.755 51.7014 140.012 52.1053C140.269 52.5092 140.416 53.0233 140.416 53.6475C140.416 54.3819 140.195 54.9694 139.718 55.4101C139.277 55.8507 138.58 56.071 137.662 56.071H134.688ZM135.679 55.153H137.625C138.763 55.153 139.351 54.639 139.351 53.5741C139.351 53.06 139.204 52.6561 138.91 52.4358C138.617 52.2154 138.139 52.0686 137.441 52.0686H135.679V55.153Z" fill="white"/>
<path d="M151.543 55.153V56.071H146.071V47.6255H151.432V48.5435H147.136V51.224H150.551V52.0686H147.136V55.1163H151.543V55.153Z" fill="white"/>
<path d="M159.217 56.071H158.152V48.5435H155.729V47.6255H161.64V48.5435H159.217V56.071Z" fill="white"/>
<path d="M169.351 56.2546C168.249 56.2546 167.405 55.814 166.817 54.9694C166.193 54.1249 165.899 53.0967 165.899 51.8483C165.899 50.5631 166.23 49.4982 166.854 48.6904C167.478 47.8825 168.323 47.4419 169.388 47.4419C170.416 47.4419 171.26 47.8458 171.885 48.6536C172.509 49.4615 172.839 50.4896 172.839 51.7381C172.839 52.9498 172.546 53.978 171.921 54.8593C171.334 55.814 170.453 56.2546 169.351 56.2546ZM169.388 55.3733C170.122 55.3733 170.71 55.0429 171.114 54.3452C171.518 53.6842 171.738 52.803 171.738 51.7381C171.738 50.6365 171.518 49.792 171.077 49.2044C170.636 48.6169 170.085 48.2864 169.351 48.2864C168.617 48.2864 168.066 48.6169 167.625 49.2779C167.185 49.9388 167.001 50.7834 167.001 51.8483C167.001 52.8764 167.221 53.721 167.662 54.3819C168.103 55.0429 168.653 55.3733 169.388 55.3733Z" fill="white"/>
<path d="M184.296 56.071H183.231V52.0319H179.302V56.071H178.237V47.6255H179.302V51.1139H183.231V47.6255H184.296V56.071Z" fill="white"/>
<path d="M196.23 56.071H195.165V52.0319H191.236V56.071H190.208V47.6255H191.273V51.1139H195.202V47.6255H196.267V56.071H196.23Z" fill="white"/>
<path d="M202.325 56.071V47.6255H203.39V51.0037H204.785C205.703 51.0037 206.364 51.0771 206.768 51.2607C207.135 51.4443 207.466 51.7014 207.686 52.1053C207.907 52.5092 208.053 52.9866 208.053 53.5741C208.053 54.3819 207.833 55.0062 207.356 55.4468C206.878 55.8874 206.217 56.1077 205.299 56.1077H202.325V56.071ZM203.39 55.153H205.189C205.814 55.153 206.254 55.0061 206.511 54.7491C206.768 54.4554 206.915 54.0882 206.915 53.5374C206.915 52.4725 206.328 51.9217 205.189 51.9217H203.39V55.153ZM209.192 56.071V47.6255H210.257V56.071H209.192Z" fill="white"/>
<path d="M221.97 47.6255L219.584 51.4811L222.301 56.071H221.089L218.959 52.4725L216.756 56.071H215.765L218.482 51.7014L216.058 47.6255H217.233L219.069 50.7467L220.979 47.6255H221.97Z" fill="white"/>
<path d="M235.814 55.3733V56.071H234.749V47.6255H235.814V53.0967C235.814 53.4639 235.814 53.8311 235.777 54.1983C236.071 53.6842 236.401 53.1334 236.805 52.5826L239.853 48.47V47.6622H240.918V56.1077H239.853V51.1873C239.853 50.8935 239.853 50.3795 239.89 49.6818C239.669 50.1224 239.302 50.6732 238.862 51.2975L235.814 55.3733Z" fill="white"/>
<path d="M245.912 53.721L246.867 53.5006C247.014 54.1616 247.307 54.6757 247.675 54.9694C248.042 55.2632 248.593 55.4101 249.217 55.4101C249.841 55.4101 250.318 55.2632 250.649 54.9327C250.979 54.6022 251.126 54.235 251.126 53.721C251.126 52.6561 250.539 52.142 249.327 52.142H248.519V51.224H249.254C249.731 51.224 250.135 51.1139 250.429 50.8568C250.722 50.5998 250.869 50.2326 250.869 49.792C250.869 49.3513 250.722 49.0208 250.392 48.7271C250.061 48.47 249.658 48.3232 249.143 48.3232C248.005 48.3232 247.344 48.874 247.124 49.9388L246.096 49.8287C246.463 48.2497 247.454 47.4419 249.107 47.4419C249.988 47.4419 250.686 47.6622 251.2 48.0661C251.714 48.47 251.971 49.0208 251.971 49.6818C251.971 50.6365 251.42 51.2975 250.318 51.5912C251.567 51.8115 252.191 52.4725 252.191 53.6475C252.191 54.3452 251.934 54.9694 251.42 55.4835C250.906 55.9976 250.135 56.2546 249.107 56.2546C248.189 56.2546 247.491 56.0343 246.94 55.5937C246.426 55.153 246.059 54.5288 245.912 53.721Z" fill="white"/>
<path d="M257.478 55.153L259.939 47.6255H261.701L264.198 55.153H264.675V57.8703H263.831L263.684 56.1077H257.956L257.846 57.8703H257.001V55.153H257.478ZM258.47 55.153H263.023L260.967 48.47H260.526L258.47 55.153Z" fill="white"/>
<path d="M275.031 55.153V56.071H269.56V47.6255H274.921V48.5435H270.624V51.224H274.039V52.0686H270.624V55.1163H275.031V55.153Z" fill="white"/>
<path d="M280.025 56.071H279.033L281.824 47.6255H283.329L286.047 56.071H284.872L282.668 48.7271H282.338L280.025 56.071Z" fill="white"/>
<path d="M291.996 55.3733V56.071H290.931V47.6255H291.996V53.0967C291.996 53.4639 291.996 53.8311 291.959 54.1983C292.253 53.6842 292.583 53.1334 292.987 52.5826L296.035 48.47V47.6622H297.1V56.1077H296.035V51.1873C296.035 50.8935 296.035 50.3795 296.071 49.6818C295.851 50.1224 295.484 50.6732 295.043 51.2975L291.996 55.3733Z" fill="white"/>
<path d="M303.965 55.3734V56.071H302.9V47.6255H303.965V53.0967C303.965 53.4639 303.965 53.8311 303.929 54.1983C304.222 53.6843 304.553 53.1335 304.957 52.5827L308.004 48.4701V47.6622H309.069V56.1078H308.004V51.1873C308.004 50.8936 308.004 50.3795 308.041 49.6818C307.821 50.1224 307.454 50.6732 307.013 51.2975L303.965 55.3734ZM304.112 45.1653H304.81C304.92 45.7161 305.287 46.0098 305.948 46.0098C306.609 46.0098 307.013 45.7161 307.123 45.1653H307.821C307.637 46.2302 307.05 46.7442 306.058 46.7442C304.92 46.781 304.259 46.2302 304.112 45.1653Z" fill="white"/>
<path d="M31.6159 53.0968L29.0088 52.6929V21.3342H31.6159V53.0968Z" fill="#30383E"/>
<path d="M29.486 10.8323H18.6904V59.1921L29.486 53.0599V10.8323Z" fill="#C71D14"/>
<path d="M18.6898 59.1921L11.0889 54.1615V16.891V10.8323H18.6898V59.1921Z" fill="#8F1807"/>
<path d="M43.2187 46.8542V16.8542H31.6152V53.0966L43.2187 46.8542Z" fill="#576470"/>
<path d="M49.4982 1.94604H0V10.8322H55.0796L49.4982 1.94604Z" fill="#C71D14"/>
<path d="M0 12.8518V21.3341H60.8813L55.1163 12.8518H0Z" fill="#576470"/>
</svg>
