<svg width="340" height="66" fill="none" xmlns="http://www.w3.org/2000/svg"><path d="M79.513 41.653V14.919H73.18V8.185h19.686v6.734h-5.93v26.734h-7.423zm16.541 0V8.185h18.759v6.33h-10.691v6.453h9.884v6.33h-9.884v7.984h10.691v6.371h-18.76zm22.55 0V8.185h11.7c2.864 0 5.083.605 6.616 1.855 2.097 1.694 3.146 4.436 3.146 8.347 0 3.75-1.008 6.492-3.066 8.185-1.613 1.331-3.832 2.017-6.656 2.017h-3.631v13.064h-8.109zm8.069-19.113h1.452c1.13 0 2.017-.282 2.663-.887.766-.726 1.17-1.855 1.17-3.387s-.323-2.621-1.009-3.185c-.686-.605-1.654-.888-2.945-.888h-1.331v8.347zm17.064 19.113V8.185h18.759v6.33h-10.69v6.453h9.883v6.33h-9.883v7.984h10.69v6.371h-18.759zm28.401-16.935l-7.1-16.533h7.786l3.872 9.839 3.873-9.839h7.786l-7.1 16.533 7.423 16.895h-8.512l-3.47-10.202-4.195 10.242h-7.786l7.423-16.935zm19.364-7.863c0-2.782.847-5 2.582-6.653 1.896-1.815 4.679-2.742 8.351-2.742 3.59 0 6.374.927 8.27 2.742 1.694 1.693 2.581 3.91 2.581 6.693v15c0 3.468-.887 6.049-2.622 7.823-1.775 1.774-4.518 2.62-8.229 2.62-3.672 0-6.415-.886-8.19-2.66-1.775-1.775-2.703-4.355-2.703-7.742V16.855h-.04zm10.852-3.387c-.767 0-1.412.242-1.977.766-.565.484-.847 1.21-.847 2.097v17.016c0 .968.282 1.693.807 2.218.524.524 1.21.766 1.977.766.766 0 1.452-.242 1.976-.766.525-.484.807-1.25.807-2.258V16.33c0-.887-.282-1.613-.847-2.097-.484-.524-1.13-.766-1.896-.766zm26.545 28.185h-11.255V8.185h12.869c2.259 0 4.114.645 5.607 1.896 1.775 1.532 2.663 3.669 2.663 6.451 0 2.097-.525 3.79-1.574 5.121-.847 1.048-1.855 1.694-2.985 1.936 1.654.685 2.864 1.653 3.671 2.862.807 1.21 1.21 2.984 1.21 5.242 0 3.186-.847 5.605-2.582 7.34-1.694 1.733-4.235 2.62-7.624 2.62zm-3.469-27.46v6.896h2.38c1.17 0 1.976-.283 2.461-.888.484-.604.726-1.572.726-2.903 0-1.008-.242-1.774-.767-2.298-.484-.524-1.291-.807-2.42-.807h-2.38zm0 12.944v8.468h1.815c1.493 0 2.501-.323 3.066-.928s.847-1.693.847-3.266c0-1.452-.282-2.54-.847-3.226-.565-.685-1.533-1.048-2.905-1.048h-1.976zm30.216 1.25h8.068v3.105c0 3.75-.888 6.492-2.663 8.226-1.775 1.734-4.518 2.62-8.27 2.62s-6.495-.886-8.27-2.62c-1.775-1.734-2.662-4.516-2.662-8.266V16.895c0-2.822.847-5.04 2.582-6.693 1.896-1.815 4.679-2.742 8.35-2.742 3.591 0 6.374.927 8.311 2.782 1.734 1.693 2.622 3.911 2.622 6.694v3.024h-8.068v-3.75c0-.807-.323-1.452-.928-1.895-.605-.444-1.291-.686-2.017-.686-.767 0-1.372.202-1.897.605-.524.403-.806 1.008-.806 1.855v16.774c0 1.25.242 2.137.685 2.661.444.524 1.13.807 2.018.807.887 0 1.613-.283 2.138-.847.524-.565.807-1.452.807-2.661v-4.436zm12.344 13.266V8.185h7.706v13.307l5.647-13.307h8.795l-7.423 14.758 7.423 18.67h-8.512l-3.752-11.654-2.178 3.872v7.822h-7.706zm38.526 0v-7.822l1.453-12.581-6.98 20.403h-7.826V8.185h7.746v8.347c0 .887-.283 3.589-.847 8.024-.243 1.976-.364 3.549-.364 4.678l6.818-21.049h7.705v33.468h-7.705zm25.738 0v-7.822l1.452-12.58-6.938 20.402h-7.827V8.145h7.706v8.387c0 .767-.283 3.468-.848 8.024-.201 1.775-.322 3.307-.322 4.638l6.818-21.049H340v33.508h-7.746zm-7.866-36.855c1.169.888 2.864 1.371 5.042 1.371 1.977 0 3.591-.483 4.962-1.491 1.453-1.09 2.179-2.581 2.179-4.517h-2.986c-.282.968-.766 1.613-1.492 2.017-.565.282-1.372.403-2.461.403-1.13 0-2.017-.121-2.663-.403-.887-.363-1.412-1.049-1.492-2.017h-3.066c-.041 2.057.645 3.59 1.977 4.637zm-247.9 54.356l1.049-.243c.161.726.484 1.29.887 1.613.404.323 1.009.484 1.694.484.686 0 1.21-.161 1.574-.524.363-.363.524-.766.524-1.33 0-1.17-.645-1.734-1.976-1.734h-.888v-1.01h.807c.524 0 .968-.12 1.29-.403.324-.282.485-.685.485-1.17 0-.483-.161-.846-.525-1.168-.363-.283-.806-.444-1.371-.444-1.25 0-1.977.605-2.219 1.774l-1.13-.12c.404-1.735 1.493-2.622 3.309-2.622.968 0 1.734.242 2.299.686.565.443.847 1.048.847 1.774 0 1.048-.605 1.774-1.815 2.097 1.371.242 2.057.968 2.057 2.258 0 .766-.282 1.451-.847 2.016s-1.412.847-2.541.847c-1.009 0-1.776-.242-2.38-.726-.565-.484-.928-1.17-1.13-2.056zm19.323 2.58h-1.17l-.927-2.702h-3.43l-.847 2.702h-.968l3.026-9.274h1.331l2.985 9.274zm-2.38-3.589L92.02 53.67l-1.452 4.476h2.864zm7.787 3.589V52.46h3.671c.928 0 1.614.242 2.057.685.444.444.686.968.686 1.573 0 1.048-.565 1.734-1.654 2.097.646.16 1.13.483 1.452.887.323.443.485.927.485 1.451 0 .726-.243 1.33-.727 1.815-.484.484-1.25.726-2.259.726h-3.711v.04zm1.089-5.282h2.017c.847 0 1.412-.162 1.694-.484.283-.323.404-.686.404-1.13 0-.443-.162-.765-.444-1.048-.282-.282-.766-.403-1.331-.403h-2.34v3.065zm0 4.274h2.501c.605 0 1.089-.161 1.412-.444.323-.282.484-.685.484-1.17 0-.322-.08-.644-.242-.927a1.653 1.653 0 00-.645-.645c-.283-.16-.686-.242-1.211-.242h-2.339v3.428h.04zm15.652 1.21c-1.21 0-2.138-.484-2.783-1.412-.686-.927-1.009-2.056-1.009-3.427 0-1.411.363-2.58 1.049-3.468.686-.887 1.614-1.37 2.783-1.37 1.13 0 2.058.443 2.744 1.33.685.887 1.049 2.016 1.049 3.387 0 1.33-.323 2.46-1.009 3.428-.686 1.048-1.614 1.532-2.824 1.532zm.04-.968c.807 0 1.453-.363 1.897-1.13.443-.725.685-1.693.685-2.862 0-1.21-.242-2.137-.726-2.782s-1.089-1.008-1.896-1.008c-.807 0-1.412.363-1.896 1.088-.484.726-.686 1.654-.686 2.823 0 1.129.242 2.056.726 2.782.444.766 1.09 1.089 1.896 1.089zm9.158-.242l2.703-8.266h1.937l2.743 8.266h.524v2.984h-.928l-.161-1.936h-6.293l-.121 1.936h-.928v-2.984h.524zm1.089 0h5.003l-2.259-7.339h-.484l-2.26 7.339zm19.728 1.008V52.46h5.325v1.008h-4.236v2.822h1.654c.887 0 1.533.081 1.977.202.443.12.847.444 1.129.887.283.444.444 1.008.444 1.694 0 .806-.242 1.451-.767 1.935-.484.484-1.25.726-2.259.726h-3.267zm1.089-1.008h2.138c1.251 0 1.896-.565 1.896-1.734 0-.564-.161-1.008-.484-1.25-.323-.242-.847-.403-1.614-.403h-1.936v3.387zm17.427 0v1.008h-6.011V52.46h5.89v1.008h-4.72v2.943h3.752v.928h-3.752v3.346h4.841v.04zm8.431 1.008h-1.17v-8.266h-2.662V52.46h6.495v1.008h-2.663v8.266zm11.135.202c-1.21 0-2.138-.484-2.784-1.412-.686-.927-1.008-2.056-1.008-3.427 0-1.411.363-2.58 1.049-3.468.685-.887 1.613-1.37 2.783-1.37 1.13 0 2.058.443 2.743 1.33.686.887 1.049 2.016 1.049 3.387 0 1.33-.322 2.46-1.008 3.428-.646 1.048-1.614 1.532-2.824 1.532zm.04-.968c.807 0 1.452-.363 1.896-1.13.444-.725.686-1.693.686-2.862 0-1.21-.242-2.137-.726-2.782s-1.089-1.008-1.896-1.008c-.807 0-1.412.363-1.896 1.088-.484.726-.686 1.654-.686 2.823 0 1.129.242 2.056.726 2.782s1.089 1.089 1.896 1.089zm16.379.766h-1.17V57.3h-4.317v4.435h-1.17V52.46h1.17v3.83h4.317v-3.83h1.17v9.274zm13.111 0h-1.17V57.3h-4.317v4.435h-1.129V52.46h1.17v3.83h4.316v-3.83h1.17v9.274h-.04zm6.697 0V52.46h1.17v3.71h1.533c1.009 0 1.735.08 2.179.282.403.201.766.483 1.008.927.242.444.404.968.404 1.613 0 .887-.243 1.573-.767 2.056-.524.484-1.251.726-2.259.726h-3.268v-.04zm1.17-1.008h1.977c.686 0 1.17-.161 1.452-.444.283-.322.444-.725.444-1.33 0-1.17-.646-1.774-1.896-1.774h-1.977v3.548zm6.374 1.008V52.46h1.17v9.274h-1.17zm14.039-9.274l-2.623 4.234 2.986 5.04h-1.332l-2.339-3.952-2.421 3.952h-1.089l2.985-4.799-2.662-4.475h1.291l2.017 3.427 2.097-3.427h1.09zm15.208 8.508v.766h-1.17V52.46h1.17v6.008c0 .403 0 .806-.04 1.21a18.48 18.48 0 011.129-1.775l3.349-4.516V52.5h1.17v9.274h-1.17v-5.403c0-.323 0-.887.04-1.653-.242.484-.645 1.088-1.129 1.774l-3.349 4.476zm11.094-1.814l1.049-.243c.162.726.484 1.29.888 1.613.403.323 1.008.484 1.694.484.686 0 1.21-.161 1.574-.524.363-.363.524-.766.524-1.33 0-1.17-.645-1.734-1.977-1.734h-.887v-1.01h.807c.524 0 .968-.12 1.29-.403.323-.282.485-.685.485-1.17 0-.483-.162-.846-.525-1.168-.363-.283-.807-.444-1.371-.444-1.251 0-1.977.605-2.219 1.774l-1.13-.12c.404-1.735 1.493-2.622 3.308-2.622.968 0 1.735.242 2.3.686.564.443.847 1.048.847 1.774 0 1.048-.605 1.774-1.816 2.097 1.372.242 2.058.968 2.058 2.258 0 .766-.283 1.451-.847 2.016-.565.565-1.412.847-2.542.847-1.008 0-1.775-.242-2.38-.726-.565-.484-.968-1.17-1.13-2.056zm12.708 1.572l2.703-8.266h1.936l2.744 8.266h.524v2.984h-.928l-.161-1.936H283.4l-.121 1.936h-.927v-2.984h.524zm1.089 0h5.003l-2.26-7.339h-.484l-2.259 7.339zm18.033 0v1.008h-6.011V52.46h5.89v1.008h-4.72v2.943h3.752v.928h-3.752v3.346h4.841v.04zm5.648 1.008h-1.089l3.066-9.274h1.654l2.985 9.274h-1.291l-2.421-8.065h-.363l-2.541 8.065zm13.151-.766v.766h-1.17V52.46h1.17v6.008c0 .403 0 .806-.04 1.21.323-.565.686-1.17 1.13-1.775l3.348-4.516V52.5h1.17v9.274h-1.17v-5.403c0-.323 0-.887.04-1.653-.242.484-.645 1.088-1.129 1.774l-3.349 4.476zm13.112 0v.766h-1.17V52.46h1.17v6.008c0 .403 0 .806-.041 1.21.323-.565.686-1.17 1.13-1.775l3.348-4.516V52.5h1.17v9.274h-1.17v-5.403c0-.323 0-.887.041-1.653-.242.484-.646 1.088-1.13 1.774l-3.348 4.476zm.201-11.21h.767c.121.605.524.927 1.25.927.727 0 1.17-.322 1.291-.927h.767c-.202 1.17-.847 1.734-1.936 1.734-1.251.04-1.977-.565-2.139-1.734z" fill="#4B5760"/><path d="M34.734 58.468l-2.864-.444V23.59h2.864v34.879z" fill="#30383E"/><path d="M32.395 12.057h-11.86v53.105l11.86-6.734V12.057z" fill="#C71D14"/><path d="M20.534 65.162l-8.35-5.525v-47.58h8.35v53.105z" fill="#8F1807"/><path d="M47.482 51.613V18.669H34.734v39.799l12.748-6.855z" fill="#576470"/><path d="M54.38 2.298H0v9.758h60.513L54.38 2.298z" fill="#C71D14"/><path d="M0 14.274v9.315h66.887l-6.334-9.315H0z" fill="#576470"/></svg>