<svg width="120" height="100" viewBox="0 0 120 100" fill="none" xmlns="http://www.w3.org/2000/svg">
<g clip-path="url(#clip0_170_673)">
<path d="M112.815 34.3558C112.815 33.1672 112.738 31.9785 112.585 30.7899C110.631 15.6825 96.8054 5.06136 81.7154 7.05523C69.2681 8.704 59.4635 18.5583 57.9698 31.0583C57.8166 32.1703 57.7783 33.2822 57.7783 34.3942C57.7783 34.6626 57.7783 34.8926 57.7783 35.1227C57.8166 38.7653 58.2762 42.2546 58.9656 45.6288C58.7358 43.8267 58.6209 41.9862 58.5826 40.1074C58.5826 39.8773 58.5826 39.6473 58.5826 39.3788C58.5826 38.3052 58.6592 37.2316 58.7741 36.158C60.2295 24.0414 69.7277 14.4555 81.8303 12.8834C96.4607 10.9663 109.865 21.2807 111.742 35.9279C111.895 37.0782 111.972 38.2669 111.972 39.4172C111.972 39.6473 111.972 39.8773 111.972 40.1074C111.934 41.4111 111.857 42.7147 111.704 43.9801C112.355 41.0276 112.738 38.0752 112.815 35.0844C112.815 34.8543 112.815 34.5859 112.815 34.3558Z" fill="#D5554F"/>
<path d="M100.138 38.3052C100.099 37.5383 99.9843 36.8098 99.7928 36.0813C97.38 43.75 89.2988 48.2362 81.4474 46.1273C76.3153 44.7469 72.2939 40.7975 70.8385 35.6978C70.6087 36.5414 70.4938 37.4233 70.4172 38.3052C70.3789 38.6503 70.3789 39.0337 70.3789 39.3788C70.3789 47.6227 77.043 54.2945 85.2774 54.2945V54.2561C93.4734 54.2561 100.138 47.5843 100.176 39.3788C100.176 39.0337 100.138 38.6886 100.138 38.3052Z" fill="#9E161A"/>
<path d="M111.743 35.8896C109.828 21.2423 96.4228 10.9279 81.8307 12.8451C69.7281 14.4172 60.2299 24.0031 58.7745 36.1196C58.6596 37.1932 58.583 38.2669 58.583 39.3405C58.583 39.5705 58.583 39.8006 58.583 40.069C58.6213 41.9478 58.7362 43.7883 58.966 45.5905C61.8002 68.75 79.686 86.0046 85.2777 92.2162C89.9502 86.2347 109.215 65.6442 111.704 43.9417C111.857 42.638 111.934 41.3727 111.972 40.069C111.972 39.8389 111.972 39.6089 111.972 39.3788C111.972 38.2285 111.896 37.0399 111.743 35.8896ZM99.7931 36.0813C99.9463 36.8098 100.061 37.5383 100.138 38.3052C100.176 38.6503 100.176 39.0337 100.176 39.3788C100.176 47.5843 93.512 54.2561 85.2777 54.2561V54.2945C77.0433 54.2945 70.3792 47.6227 70.3792 39.3788C70.3792 39.0337 70.3792 38.6503 70.4175 38.3052C70.4941 37.4233 70.609 36.5414 70.8388 35.6978C72.4857 29.2561 78.3072 24.5015 85.2777 24.5015C92.3631 24.5015 98.2995 29.4478 99.7931 36.0813Z" fill="#C71D14"/>
<path d="M7.18457 17.4463L30.6621 31.2883V93.2132L16.1083 85.5445V38.1902L7.18457 32.7454V17.4463Z" fill="#30383E"/>
<path d="M33.458 30.9049V92.8298L48.7395 85.5445V21.8175L33.458 30.9049Z" fill="#444F57"/>
<path d="M25.0704 7.1319L8.75488 14.6472L32.2324 28.4893L47.5139 19.3635L25.0704 7.1319Z" fill="#46515A"/>
</g>
<defs>
<clipPath id="clip0_170_673">
<rect width="119.417" height="100" fill="white" transform="translate(0.291016)"/>
</clipPath>
</defs>
</svg>
