<svg width="121" height="100" viewBox="0 0 121 100" fill="none" xmlns="http://www.w3.org/2000/svg">
<g clip-path="url(#clip0_170_683)">
<path d="M68.1764 5.55982C46.8256 3.18252 27.6137 18.6733 25.2456 40.1074C22.9539 61.0046 37.5443 79.9463 58.2458 83.0138L58.4749 83.0522C64.9298 83.8957 71.4993 83.0522 77.5723 80.6365C79.8639 79.7163 84.1035 77.3006 84.1417 77.3006C102.284 65.7592 107.708 41.6411 96.2112 23.4279C89.9473 13.5736 79.7112 7.01688 68.1764 5.55982Z" fill="#30383E"/>
<path d="M41.3643 27.7607L63.5553 37.5383L85.5173 28.3359L63.5172 18.3282L41.3643 27.7607Z" fill="#C71D14"/>
<path d="M39.531 30.8666L61.8749 40.7976L61.6457 68.3282L39.2637 59.0874L39.531 30.8666Z" fill="white"/>
<path d="M87.4649 31.2883L65.7321 40.5675L65.5029 68.3282L87.2357 59.0491L87.4649 31.2883Z" fill="white"/>
<path d="M77.3814 58.704L70.3918 53.5276L70.3154 48.0061L76.4648 52.5307L85.9752 37.9985L85.8607 45.5138L77.3814 58.704Z" fill="#C71D14"/>
<path d="M22.0753 67.2546C21.6551 66.6794 21.2732 66.1043 20.8912 65.4908L8.3252 77.3773L24.3669 80.2914L30.5927 94.3251L40.3705 81.7868C32.8462 78.7193 26.5058 73.5813 22.0753 67.2546Z" fill="#C71D14"/>
<path d="M21.8846 40.1074C24.138 22.1242 36.8951 7.63037 53.2806 4.60123C33.7249 5.6365 17.7213 20.5521 15.2005 40.0307C14.2456 47.3926 15.4679 54.908 18.7144 61.5798C19.3637 62.9218 20.0894 64.2255 20.8915 65.4908C21.2734 66.1043 21.6554 66.6795 22.0755 67.2546C26.5443 73.5813 32.8464 78.681 40.3708 81.7868C43.8465 83.2055 47.5896 84.2025 51.5236 84.7009C52.784 84.8543 54.0445 84.9693 55.3049 85.0077C34.1068 82.1702 19.1727 62.1166 21.8846 40.1074Z" fill="#46515A"/>
<path d="M112.711 72.0859L99.8398 77.2239L97.1662 91.296L84.7529 80.2147C85.0203 80.023 85.3259 79.8313 85.5932 79.6012H85.6314C92.0481 75.4218 96.4023 69.977 99.7252 62.8451L112.711 72.0859Z" fill="#C71D14"/>
</g>
<defs>
<clipPath id="clip0_170_683">
<rect width="119.091" height="100" fill="white" transform="translate(0.954102)"/>
</clipPath>
</defs>
</svg>
