<svg width="120" height="100" viewBox="0 0 120 100" fill="none" xmlns="http://www.w3.org/2000/svg">
<g clip-path="url(#clip0_170_823)">
<path d="M60.4218 20.8973C59.4249 20.7439 58.3896 20.7439 57.3926 20.8973V18.0215C51.0276 18.2516 44.816 20.4371 39.6779 24.5783L36.6488 21.204C38.5276 17.4463 37.6457 12.8835 34.5399 10.046C30.4755 6.36506 24.2638 6.51843 20.3911 10.3911C16.7101 14.0721 16.7101 20.0154 20.3911 23.6963C20.5061 23.8114 20.6212 23.9264 20.7362 24.0414C23.9187 26.9172 28.5583 27.5307 32.3543 25.5368L35.3451 28.8344C30.7822 34.3559 28.5199 41.181 28.5583 48.0445C29.5936 48.0445 30.4755 48.0829 31.089 48.0829H31.1273C31.089 48.3129 31.0506 48.543 31.0123 48.773C30.9739 49.1565 30.9356 49.5399 30.9356 49.9233C30.9356 50.4985 30.9739 51.0737 31.0506 51.6488H30.8589L28.75 51.6105C29.4402 57.4387 31.7408 63.1902 35.7285 68.0598C35.8436 68.2516 35.9586 68.4433 36.0736 68.635L36.1503 68.5583L36.9555 67.7531L37.8374 66.8712C34.9617 62.4617 33.2745 57.247 33.2745 51.6105C33.2745 36.1964 45.8129 23.658 61.227 23.658C67.0169 23.658 72.385 25.4218 76.8328 28.4509L77.6764 27.6074L78.5199 26.7638L79.4018 25.8819C73.8804 21.089 67.1702 18.4816 60.4218 18.0598V20.8973Z" fill="#30383E"/>
<path d="M87.7606 36.9632C86.6486 34.5476 85.2299 32.2086 83.5044 30.0614L83.006 30.5599L82.1624 31.4034L81.3188 32.247C82.8526 33.8574 84.1946 35.6212 85.3449 37.5384H86.7253H87.9906H88.029C87.9523 37.3467 87.8373 37.155 87.7606 36.9632Z" fill="#30383E"/>
<path d="M70.2375 80.5982C69.8925 80.2914 69.5857 79.9463 69.279 79.6396C69.0489 79.4095 68.8572 79.1795 68.6655 78.9877C68.5504 78.8727 68.4737 78.796 68.3587 78.681C66.3648 79.2178 64.2559 79.5246 62.0704 79.6012C61.7636 79.6012 61.4952 79.6396 61.1885 79.6396C60.4216 79.6396 59.6547 79.6012 58.9262 79.5245C53.0596 79.0644 47.7299 76.7638 43.4354 73.2362L42.5918 74.0798L42.4001 74.2715L41.7866 74.885C46.5029 78.8344 52.4461 81.365 58.9645 81.8635V85.4678C56.7023 86.158 55.0535 88.2285 55.0535 90.6825C55.0535 93.7117 57.5075 96.1273 60.4983 96.1273C63.4891 96.1273 65.9431 93.6733 65.9431 90.6825C65.9431 88.2285 64.2943 86.1196 62.032 85.4678V81.9402C64.9078 81.8635 67.6302 81.4034 70.2375 80.5982Z" fill="#30383E"/>
<path d="M90.368 43.2899H89.8695H89.141H87.914L63.9492 43.3282C63.9492 43.3282 63.7959 48.658 64.1793 55.138C64.2176 55.5598 64.2176 55.9816 64.256 56.4034C64.2943 56.9785 64.3327 57.5153 64.371 58.0905C64.4861 59.5092 64.6011 60.9663 64.7928 62.4233C64.8695 62.9985 64.9462 63.5353 65.0229 64.0721C65.0612 64.4939 65.1379 64.9157 65.2146 65.2991C65.483 67.1012 65.8281 68.8267 66.2499 70.3604C66.9784 73.1212 68.4354 75.7669 70.1992 78.1058C70.2759 78.2209 70.3526 78.3359 70.4676 78.4509C70.621 78.681 70.8127 78.9111 71.0045 79.1028C71.2729 79.4479 71.5413 79.7546 71.8097 80.0614C77.5612 86.6565 85.345 91.0276 85.7667 91.2577C86.5719 90.8359 87.3772 90.3758 88.144 89.8773C92.3235 87.1933 100.874 80.6365 103.903 69.977C105.399 64.8006 106.204 56.7868 106.664 50.8819C106.971 46.4724 107.086 43.2132 107.086 43.2132L90.368 43.2899ZM83.5045 72.7377L83.2361 72.4693L82.3925 71.6258L81.9707 71.204L81.5489 70.7822L73.4584 62.6534L76.6026 59.5092L83.5045 66.4111L86.6103 63.3052L88.3741 61.5414L88.7575 61.158L90.5213 59.3942L95.8894 54.0261L99.0336 57.1703L83.5045 72.7377Z" fill="#C71D14"/>
<path d="M97.6532 37.6151L88.0674 37.5384H87.9907H86.7253H85.345L68.2054 37.4233H60.3833H60.4216L63.8342 41.3727H87.2238H88.4891H89.371H89.7545H106.472H106.549L97.6532 37.6151Z" fill="#D5554F"/>
<path d="M63.3739 67.0245C63.2972 66.7178 63.2588 66.411 63.2205 66.1043C63.1821 65.7975 63.1055 65.4908 63.0671 65.1457C62.8754 63.9187 62.6837 62.615 62.5303 61.1963C62.3386 59.5475 62.2236 57.6304 62.1085 55.6365C62.1085 55.3298 62.0702 54.9847 62.0702 54.6779C62.0702 54.3712 62.0318 54.0644 62.0318 53.7577C61.8401 48.3512 61.8785 43.1748 61.8785 43.1748L57.584 38.0368L57.8907 53.2209V53.7193V54.0644V54.908L57.9674 58.3205C57.9674 58.5506 58.0058 58.7807 58.0441 59.0107V59.0491C58.3892 61.4264 59.0027 63.7653 59.9229 65.9509C59.9996 66.181 60.1147 66.411 60.1913 66.6028C60.3064 66.8712 60.4214 67.1012 60.5364 67.3696C60.6515 67.638 60.7665 67.8681 60.9199 68.1365C61.265 68.8267 61.6484 69.4785 62.0318 70.1304C62.2236 70.4755 62.4536 70.7822 62.6453 71.1273C63.6039 72.5844 64.6392 74.1181 65.8662 75.7285C64.9076 73.1595 64.064 70.4755 63.3739 67.0245Z" fill="#9E161A"/>
<path d="M45.9661 67.3697L41.7099 71.6258L40.8664 72.4694L40.483 72.8528L40.0228 73.3129L36.5336 76.8022L36.917 77.5691C38.144 80.0231 38.144 82.9372 36.917 85.3911C34.7698 89.6473 29.555 91.3344 25.2989 89.1872C23.2284 88.1519 21.6946 86.3497 21.0044 84.1642C20.2759 81.9786 20.4676 79.6396 21.5029 77.5691C23.6501 73.3129 28.8649 71.6258 33.121 73.773L33.8879 74.1565L37.4922 70.5522L37.7222 70.3221L38.3357 69.7086L39.1793 68.8651L46.6563 61.3881L47.4615 60.5829L46.6179 59.7393L45.7744 58.8958L37.7989 66.9096L36.917 67.7915L36.1118 68.5967L36.0351 68.6734L33.351 71.3574C28.098 69.1718 21.963 71.3958 19.3173 76.5338C17.9753 79.1412 17.7452 82.1319 18.6655 84.931C19.5857 87.7301 21.5412 89.9924 24.1486 91.3344C25.759 92.1396 27.4461 92.5231 29.1333 92.5231C33.1593 92.5231 37.032 90.3375 38.9876 86.5031C40.4446 83.6273 40.5596 80.2531 39.371 77.3007L41.7483 74.9234L42.3618 74.3099L42.5535 74.1181L43.3971 73.2746L47.5765 69.0951L46.733 68.2516L45.9661 67.3697Z" fill="#46515A"/>
<path d="M91.1732 15.1074C87.6072 13.3053 83.236 14.6856 81.4339 18.2516C80.4753 20.0921 80.3986 22.2393 81.1271 24.1565L79.44 25.8436L78.5581 26.7255L77.6762 27.6074L76.8327 28.451L72.96 32.3237L73.6501 33.0138L74.3403 33.704L75.0305 33.0138L78.4431 29.6013L79.2866 28.7577L80.1302 27.9142L80.8971 27.1473L83.5044 24.5399L83.1977 23.8881C82.4308 22.3927 82.4308 20.5905 83.1977 19.0951C84.5397 16.4878 87.7222 15.4908 90.2912 16.7945C92.8986 18.1365 93.8955 21.3191 92.5919 23.8881C91.2498 26.4954 88.0673 27.4924 85.4983 26.1887L84.8465 25.8436L82.2391 28.4893L81.6256 29.1028L80.7821 29.9464L79.9385 30.7899L78.4431 32.2853L79.1333 32.9755L79.8235 33.6657L81.3572 32.1319L82.2008 31.2884L83.0443 30.4448L83.5428 29.9464L85.3066 28.1826C88.7192 29.5246 92.6686 28.0675 94.394 24.7316C96.1195 21.3191 94.7391 16.9479 91.1732 15.1074Z" fill="#46515A"/>
<path d="M23.3433 51.4954L28.7497 51.6104L30.8586 51.6488H31.0503C30.9353 51.0736 30.8969 50.4985 30.9353 49.9233C30.9353 49.5399 30.9736 49.1564 31.012 48.773C31.0503 48.5429 31.0887 48.3129 31.127 48.0828H31.0887C30.4752 48.0828 29.5933 48.0828 28.558 48.0445C26.9859 48.0061 25.1071 47.9678 23.4199 47.9678C22.6914 45.8972 20.6975 44.4402 18.3202 44.4402C15.3678 44.4402 12.9521 46.7791 12.9521 49.6549C12.9521 52.5307 15.3678 54.8696 18.3202 54.8696C20.6209 54.8696 22.5764 53.4893 23.3433 51.4954Z" fill="#46515A"/>
<path d="M60.2299 66.6411C60.1149 66.4111 60.0382 66.181 59.9615 65.9509C59.0796 63.727 58.4278 61.4264 58.121 59.0491V59.0108C58.0827 58.7807 58.0827 58.5506 58.0443 58.3206L57.9677 54.908V54.0644V53.7194V53.2209C54.2483 53.7577 51.3726 56.9402 51.3726 60.7746C51.3726 64.9924 54.7851 68.4049 58.9646 68.4049H59.0029C59.6931 68.4049 60.345 68.2899 60.9584 68.1365C60.8434 67.8681 60.7284 67.6381 60.575 67.3697C60.46 67.1396 60.345 66.9095 60.2299 66.6411Z" fill="#46515A"/>
<path d="M53.0595 41.3727C53.0595 38.727 50.9123 36.5798 48.2666 36.5798C45.6209 36.5798 43.4736 38.727 43.4736 41.3727C43.4736 44.0184 45.6209 46.1657 48.2666 46.1657C50.9123 46.1657 53.0595 44.0184 53.0595 41.3727Z" fill="#46515A"/>
<path d="M58.8876 3.79602C55.9735 3.79602 53.5962 6.17332 53.5962 9.08743C53.5962 11.5031 55.2066 13.5353 57.3922 14.1871V18.0215V20.8972C58.3891 20.7439 59.4244 20.7439 60.4213 20.8972V18.0598V14.1871C62.6069 13.5353 64.179 11.5031 64.179 9.12577C64.179 6.17332 61.8017 3.79602 58.8876 3.79602Z" fill="#46515A"/>
</g>
<defs>
<clipPath id="clip0_170_823">
<rect width="119.555" height="100" fill="white" transform="translate(0.222168)"/>
</clipPath>
</defs>
</svg>
