<svg width="121" height="100" viewBox="0 0 121 100" fill="none" xmlns="http://www.w3.org/2000/svg">
<g clip-path="url(#clip0_170_852)">
<path d="M86.4582 25.4218L75.6837 25.6518L71.7343 29.6779L77.7543 29.5245L70.5073 36.6948L72.8079 39.0337L86.4582 25.4218Z" fill="#C71D14"/>
<path d="M86.4584 25.4218L86.19 36.1963L82.2023 40.1074L82.3173 34.1258L75.1471 41.3727L72.8081 39.0337L86.4584 25.4218Z" fill="#30383E"/>
<path d="M107.471 14.2255C122.808 30.6365 119.741 52.454 109.119 64.1104L98.8433 64.7239L99.3034 64.2638C113.26 50.8436 114.526 27.9908 100.262 13.5353" fill="#46515A"/>
<path d="M100.262 13.5736C94.2039 7.63037 86.4968 3.71933 78.0996 3.18252C87.072 3.14417 99.2652 6.17332 107.471 14.2638" fill="#D5554F"/>
<path d="M40.8142 54.1235C46.2947 48.6431 46.2947 39.7575 40.8142 34.277C35.3337 28.7966 26.4482 28.7966 20.9677 34.277C15.4872 39.7575 15.4872 48.6431 20.9677 54.1235C26.4482 59.604 35.3337 59.604 40.8142 54.1235Z" fill="#C71D14"/>
<path d="M22.4686 61.0768L19.7407 70.1066L25.834 71.9473L28.5619 62.9176L22.4686 61.0768Z" fill="#C71D14"/>
<path d="M37.6043 16.8793L34.3491 25.7327L40.3233 27.9293L43.5785 19.0759L37.6043 16.8793Z" fill="#C71D14"/>
<path d="M4.81342 33.0219L2.97266 39.1151L12.0024 41.843L13.8432 35.7498L4.81342 33.0219Z" fill="#C71D14"/>
<path d="M13.0394 50.1157L4.72559 54.5716L7.73243 60.1817L16.0462 55.7258L13.0394 50.1157Z" fill="#C71D14"/>
<path d="M54.1478 28.0972L45.834 32.5532L48.8408 38.1633L57.1546 33.7074L54.1478 28.0972Z" fill="#C71D14"/>
<path d="M20.4309 17.7701L14.8208 20.7769L19.2767 29.0908L24.8869 26.0839L20.4309 17.7701Z" fill="#C71D14"/>
<path d="M99.1887 14.1871C93.2454 8.16717 85.2316 4.56288 76.7577 4.1411C67.0951 3.64263 57.6626 7.20858 50.7991 14.0337L49.3804 15.4141L55.0169 21.1273L57.816 18.3666L54.9785 15.4908C60.0399 11.0813 66.2132 8.66564 72.5015 8.12883L72.4632 11.6564H76.3742L76.4126 8.05214C82.931 8.35889 89.3344 10.7745 94.5491 15.2224L92.4018 17.3696L94.1656 19.1334L97.5015 15.8742L99.1887 14.1871Z" fill="#C71D14"/>
<path d="M88.299 70.8206L76.2591 74.8083L69.6256 71.0506L75.1855 65.8359L88.2223 66.7561L88.5674 61.6948L80.2851 61.0813L85.7683 55.9816L82.279 52.2623L76.9109 57.2469L77.0643 48.6963L71.9646 48.6196L71.7345 62.0782L66.2514 67.2163L63.3756 60.4678L68.0152 47.6611L63.2223 45.8972L60.4232 53.6043L57.5858 47.0476L52.9079 49.0414L55.9753 56.1733L47.9615 53.3359L46.2361 58.1288L58.6977 62.5767L61.6118 69.3635L54.8634 70.0154L44.3572 61.3497L41.098 65.2991L47.6931 70.7055L40.0244 71.4724L40.5229 76.5338L48.3833 75.7669L43.0919 82.5537L47.0796 85.6979L55.4002 75.0767L62.1103 74.4249L60.5766 81.7101L49.3802 88.5353L52.0259 92.8681L59.1578 88.5736L57.6241 95.7822L62.6088 96.8558L64.1042 89.6856L68.7054 96.2423L72.8848 93.2899L65.5612 82.8604L67.095 75.4985L73.7284 79.2178L76.2974 91.5261L81.3204 90.4908L79.6333 82.592L85.8833 86.1196L88.414 81.6718L82.2407 78.1825L89.871 75.6902L88.299 70.8206Z" fill="#30383E"/>
<path d="M99.2267 14.1871L97.5013 15.8742L94.1654 19.1334L95.9292 20.8972L98.0764 18.75C102.409 23.9264 104.748 30.2531 105.055 36.6564H101.182L101.144 40.5675H104.978C104.441 46.9325 101.949 53.2208 97.4246 58.2822L93.9353 54.7546L91.1362 57.5153L97.4246 63.8804L98.3448 62.9218L98.8049 62.4616C112.264 49.2715 112.455 27.569 99.2267 14.1871Z" fill="#30383E"/>
</g>
<defs>
<clipPath id="clip0_170_852">
<rect width="119.555" height="100" fill="white" transform="translate(0.722168)"/>
</clipPath>
</defs>
</svg>
