<svg width="41" height="40" viewBox="0 0 41 40" fill="none" xmlns="http://www.w3.org/2000/svg">
<path d="M39.2724 36.4197C35.8428 33.0085 32.4208 29.5927 29.0062 26.1723C28.7954 25.9628 28.7051 25.8411 28.9234 25.5374C31.9109 21.378 32.803 16.7933 31.4969 11.8434C29.6875 4.98001 23.449 0.0439154 16.0851 0C15.0062 0.0166428 13.9308 0.125362 12.8705 0.324974C3.98449 2.04771 -1.75714 11.1231 0.487566 19.9125C3.31321 30.9729 16.2896 35.6693 25.4955 28.9553C25.8067 28.7282 25.9497 28.7633 26.2044 29.0193C29.5027 32.3368 32.8068 35.6463 36.1168 38.9479C36.3305 39.1764 36.5589 39.3905 36.8006 39.5891C37.0555 39.785 37.3541 39.916 37.6709 39.9709C37.9876 40.0258 38.313 40.0028 38.6189 39.9041C38.9248 39.8053 39.2022 39.6337 39.427 39.4039C39.6519 39.1742 39.8176 38.8933 39.9098 38.5853C40.1633 37.7371 39.8847 37.0345 39.2724 36.4197ZM16.06 28.0481C12.8756 28.0525 9.81987 26.7922 7.56444 24.5443C5.309 22.2964 4.03848 19.2448 4.03217 16.0605C4.02338 9.45185 9.42749 4.04022 16.0449 4.03143C19.1823 4.10115 22.1678 5.39592 24.3627 7.63874C26.5576 9.88156 27.7876 12.8943 27.7895 16.0324C27.7915 19.1706 26.5653 22.1848 24.3732 24.4304C22.1811 26.676 19.1972 27.9745 16.06 28.0481Z" fill="white" fill-opacity="0.7"/>
<path d="M21.9436 14.0529C20.7855 14.0529 19.6287 14.0404 18.4718 14.0604C18.1544 14.0604 18.049 14.0002 18.0552 13.6589C18.0791 12.487 18.0753 11.3139 18.0552 10.1457C18.0402 8.91356 17.1656 8.03274 16.0075 8.05157C14.8783 8.07039 14.0514 8.9625 14.0464 10.1846C14.0464 11.3415 14.0338 12.4983 14.0539 13.6552C14.0539 13.9739 13.9924 14.0768 13.6524 14.0705C12.4654 14.0466 11.276 14.063 10.0877 14.0604C9.81432 14.0428 9.5402 14.0814 9.28225 14.1737C9.0243 14.266 8.78798 14.4102 8.58783 14.5973C8.38768 14.7843 8.22795 15.0104 8.11846 15.2616C8.00897 15.5127 7.95204 15.7836 7.95118 16.0576C7.95032 16.3315 8.00555 16.6028 8.11347 16.8546C8.22138 17.1064 8.3797 17.3335 8.57867 17.5219C8.77765 17.7102 9.01306 17.8558 9.27043 17.9497C9.5278 18.0437 9.80167 18.0839 10.0752 18.068C11.2785 18.0869 12.483 18.0818 13.6863 18.068C13.9661 18.068 14.0627 18.1233 14.0539 18.4231C14.0276 19.0317 14.0451 19.6427 14.0464 20.2525C14.0464 20.8309 14.0464 21.4094 14.0464 21.9878C14.045 22.1593 14.0614 22.3304 14.0953 22.4985C14.3224 23.4784 15.2459 24.166 16.192 24.0707C17.2773 23.9602 18.0326 23.1509 18.0515 22.0242C18.0728 20.8372 18.0665 19.6477 18.0515 18.4595C18.0515 18.1647 18.1142 18.0618 18.4279 18.0668C19.5998 18.0869 20.773 18.0844 21.9411 18.0668C23.1645 18.0542 24.0742 17.1621 24.0528 16.0291C24.0315 14.8961 23.1544 14.0529 21.9436 14.0529Z" fill="white" fill-opacity="0.7"/>
</svg>
