<svg width="340" height="66" viewBox="0 0 340 66" fill="none" xmlns="http://www.w3.org/2000/svg">
<path d="M79.5133 41.653V14.9192H73.1797V8.1853H92.8664V14.9192H86.9362V41.653H79.5133Z" fill="#4B5760"/>
<path d="M96.0537 41.653V8.1853H114.813V14.5159H104.122V20.9676H114.006V27.2982H104.122V35.2821H114.813V41.653H96.0537Z" fill="#4B5760"/>
<path d="M118.604 41.653V8.1853H130.304C133.168 8.1853 135.387 8.79014 136.92 10.0401C139.017 11.7337 140.066 14.4756 140.066 18.3869C140.066 22.1369 139.058 24.8789 137 26.5724C135.387 27.903 133.168 28.5885 130.344 28.5885H126.713V41.653H118.604ZM126.673 22.5401H128.125C129.255 22.5401 130.142 22.2579 130.788 21.653C131.554 20.9272 131.958 19.7982 131.958 18.2659C131.958 16.7337 131.635 15.645 130.949 15.0805C130.263 14.4756 129.295 14.1934 128.004 14.1934H126.673V22.5401Z" fill="#4B5760"/>
<path d="M143.737 41.653V8.1853H162.496V14.5159H151.806V20.9676H161.689V27.2982H151.806V35.2821H162.496V41.653H143.737Z" fill="#4B5760"/>
<path d="M172.138 24.7176L165.038 8.1853H172.824L176.696 18.024L180.569 8.1853H188.355L181.255 24.7176L188.678 41.6127H180.166L176.696 31.4111L172.501 41.653H164.715L172.138 24.7176Z" fill="#4B5760"/>
<path d="M191.502 16.8549C191.502 14.0726 192.349 11.8549 194.084 10.2017C195.98 8.38714 198.763 7.45972 202.435 7.45972C206.025 7.45972 208.809 8.38714 210.705 10.2017C212.399 11.8952 213.286 14.1129 213.286 16.8952V31.8952C213.286 35.3629 212.399 37.9436 210.664 39.7178C208.889 41.492 206.146 42.3387 202.435 42.3387C198.763 42.3387 196.02 41.4516 194.245 39.6775C192.47 37.9033 191.542 35.3226 191.542 31.9355V16.8549H191.502ZM202.354 13.4678C201.587 13.4678 200.942 13.7097 200.377 14.2339C199.812 14.7178 199.53 15.4436 199.53 16.3307V33.3468C199.53 34.3146 199.812 35.0404 200.337 35.5646C200.861 36.0887 201.547 36.3307 202.314 36.3307C203.08 36.3307 203.766 36.0887 204.29 35.5646C204.815 35.0807 205.097 34.3146 205.097 33.3065V16.3307C205.097 15.4436 204.815 14.7178 204.25 14.2339C203.766 13.7097 203.12 13.4678 202.354 13.4678Z" fill="#4B5760"/>
<path d="M228.899 41.653H217.644V8.1853H230.513C232.772 8.1853 234.627 8.83046 236.12 10.0805C237.895 11.6127 238.783 13.7498 238.783 16.5321C238.783 18.6289 238.258 20.3224 237.209 21.653C236.362 22.7014 235.354 23.3466 234.224 23.5885C235.878 24.274 237.088 25.2418 237.895 26.4514C238.702 27.6611 239.105 29.4353 239.105 31.6934C239.105 34.8789 238.258 37.2982 236.523 39.0321C234.829 40.7659 232.288 41.653 228.899 41.653ZM225.43 14.1934V21.0885H227.81C228.98 21.0885 229.786 20.8063 230.271 20.2014C230.755 19.5966 230.997 18.6289 230.997 17.2982C230.997 16.2901 230.755 15.524 230.23 14.9998C229.746 14.4756 228.939 14.1934 227.81 14.1934H225.43ZM225.43 27.1369V35.6047H227.245C228.738 35.6047 229.746 35.2821 230.311 34.6772C230.876 34.0724 231.158 32.9837 231.158 31.4111C231.158 29.9595 230.876 28.8708 230.311 28.1853C229.746 27.4998 228.778 27.1369 227.406 27.1369H225.43Z" fill="#4B5760"/>
<path d="M255.646 28.3871H263.714V31.492C263.714 35.242 262.826 37.9839 261.051 39.7178C259.276 41.4516 256.533 42.3387 252.781 42.3387C249.029 42.3387 246.286 41.4516 244.511 39.7178C242.736 37.9839 241.849 35.2016 241.849 31.4516V16.8952C241.849 14.0726 242.696 11.8549 244.431 10.2017C246.327 8.38714 249.11 7.45972 252.781 7.45972C256.372 7.45972 259.155 8.38714 261.092 10.242C262.826 11.9355 263.714 14.1533 263.714 16.9355V19.9597H255.646V16.2097C255.646 15.4033 255.323 14.7581 254.718 14.3146C254.113 13.871 253.427 13.6291 252.701 13.6291C251.934 13.6291 251.329 13.8307 250.804 14.2339C250.28 14.6371 249.998 15.242 249.998 16.0887V32.8629C249.998 34.1129 250.24 35 250.683 35.5242C251.127 36.0484 251.813 36.3307 252.701 36.3307C253.588 36.3307 254.314 36.0484 254.839 35.4839C255.363 34.9194 255.646 34.0323 255.646 32.8226V28.3871Z" fill="#4B5760"/>
<path d="M267.99 41.653V8.1853H275.696V21.4918L281.343 8.1853H290.138L282.715 22.9434L290.138 41.6127H281.626L277.874 29.9595L275.696 33.8305V41.653H267.99Z" fill="#4B5760"/>
<path d="M306.516 41.653V33.8305C307 29.6369 307.484 25.4434 307.969 21.2498L300.989 41.653H293.163V8.1853H300.909V16.5321C300.909 17.4192 300.626 20.1208 300.062 24.5563C299.819 26.5321 299.698 28.1047 299.698 29.2337L306.516 8.1853H314.221V41.653H306.516Z" fill="#4B5760"/>
<path d="M332.254 41.6533V33.8307C332.738 29.6372 333.222 25.4436 333.706 21.2501L326.768 41.6533H318.941V8.14525H326.647V16.5323C326.647 17.2985 326.364 20.0001 325.799 24.5565C325.598 26.3307 325.477 27.863 325.477 29.1936L332.295 8.14525H340V41.6533H332.254ZM324.388 4.79847C325.557 5.68557 327.252 6.16944 329.43 6.16944C331.407 6.16944 333.021 5.68557 334.392 4.67751C335.845 3.5888 336.571 2.09686 336.571 0.161377H333.585C333.303 1.12912 332.819 1.77428 332.093 2.17751C331.528 2.45976 330.721 2.58073 329.632 2.58073C328.502 2.58073 327.615 2.45976 326.969 2.17751C326.082 1.8146 325.557 1.12912 325.477 0.161377H322.411C322.37 2.21783 323.056 3.75009 324.388 4.79847Z" fill="#4B5760"/>
<path d="M76.4878 59.1535L77.5367 58.9115C77.698 59.6373 78.0208 60.2018 78.4242 60.5244C78.8276 60.847 79.4327 61.0083 80.1185 61.0083C80.8044 61.0083 81.3288 60.847 81.6919 60.4841C82.0549 60.1212 82.2163 59.718 82.2163 59.1535C82.2163 57.9841 81.5708 57.4196 80.2396 57.4196H79.3521V56.4115H80.1589C80.6833 56.4115 81.1271 56.2906 81.4498 56.0083C81.7726 55.726 81.9339 55.3228 81.9339 54.8389C81.9339 54.3551 81.7726 53.9922 81.4095 53.6696C81.0464 53.3873 80.6026 53.226 80.0379 53.226C78.7873 53.226 78.0611 53.8309 77.8191 55.0002L76.6895 54.8793C77.0929 53.1454 78.1821 52.2583 79.9975 52.2583C80.9657 52.2583 81.7322 52.5002 82.297 52.9438C82.8618 53.3873 83.1442 53.9922 83.1442 54.718C83.1442 55.7664 82.5391 56.4922 81.3288 56.8148C82.7004 57.0567 83.3862 57.7825 83.3862 59.0728C83.3862 59.8389 83.1038 60.5244 82.5391 61.0889C81.9743 61.6535 81.1271 61.9357 79.9975 61.9357C78.989 61.9357 78.2225 61.6938 77.6174 61.2099C77.0526 60.726 76.6895 60.0406 76.4878 59.1535Z" fill="#4B5760"/>
<path d="M95.8114 61.7339H94.6415L93.7137 59.0323H90.2846L89.4374 61.7339H88.4692L91.4949 52.4597H92.8261L95.8114 61.7339ZM93.4313 58.1452L92.0193 53.6694L90.567 58.1452H93.4313Z" fill="#4B5760"/>
<path d="M101.218 61.7339V52.4597H104.889C105.817 52.4597 106.503 52.7017 106.946 53.1452C107.39 53.5887 107.632 54.1129 107.632 54.7178C107.632 55.7662 107.067 56.4517 105.978 56.8146C106.624 56.9758 107.108 57.2984 107.43 57.7017C107.753 58.1452 107.915 58.6291 107.915 59.1533C107.915 59.8791 107.672 60.4839 107.188 60.9678C106.704 61.4516 105.938 61.6936 104.929 61.6936H101.218V61.7339ZM102.307 56.4516H104.324C105.171 56.4516 105.736 56.2904 106.018 55.9678C106.301 55.6452 106.422 55.2823 106.422 54.8387C106.422 54.3952 106.26 54.0726 105.978 53.7904C105.696 53.5081 105.212 53.3871 104.647 53.3871H102.307V56.4516ZM102.307 60.7258H104.808C105.413 60.7258 105.897 60.5646 106.22 60.2823C106.543 60 106.704 59.5968 106.704 59.1129C106.704 58.7904 106.624 58.4678 106.462 58.1855C106.301 57.9033 106.099 57.7016 105.817 57.5404C105.534 57.3791 105.131 57.2984 104.606 57.2984H102.267V60.7258H102.307Z" fill="#4B5760"/>
<path d="M117.959 61.9357C116.749 61.9357 115.821 61.4518 115.176 60.5244C114.49 59.597 114.167 58.468 114.167 57.097C114.167 55.6857 114.53 54.5164 115.216 53.6293C115.902 52.7422 116.83 52.2583 117.999 52.2583C119.129 52.2583 120.057 52.7019 120.743 53.5889C121.428 54.476 121.792 55.6051 121.792 56.976C121.792 58.3067 121.469 59.4357 120.783 60.4035C120.097 61.4518 119.169 61.9357 117.959 61.9357ZM117.999 60.968C118.806 60.968 119.452 60.6051 119.896 59.8389C120.339 59.1131 120.581 58.1454 120.581 56.976C120.581 55.7664 120.339 54.8389 119.855 54.1938C119.371 53.5486 118.766 53.1857 117.959 53.1857C117.152 53.1857 116.547 53.5486 116.063 54.2744C115.579 55.0002 115.377 55.9277 115.377 57.097C115.377 58.226 115.619 59.1535 116.103 59.8793C116.547 60.6454 117.193 60.968 117.999 60.968Z" fill="#4B5760"/>
<path d="M127.157 60.7258L129.86 52.4597H131.797L134.54 60.7258H135.064V63.7097H134.136L133.975 61.7742H127.682L127.561 63.7097H126.633V60.7258H127.157ZM128.246 60.7258H133.249L130.99 53.3871H130.506L128.246 60.7258Z" fill="#4B5760"/>
<path d="M147.974 61.7339V52.4597H153.299V53.4678H149.063V56.2904H150.717C151.604 56.2904 152.25 56.371 152.694 56.492C153.137 56.6129 153.541 56.9355 153.823 57.3791C154.106 57.8226 154.267 58.3871 154.267 59.0726C154.267 59.8791 154.025 60.5242 153.5 61.0081C153.016 61.492 152.25 61.7339 151.241 61.7339H147.974ZM149.063 60.7258H151.201C152.452 60.7258 153.097 60.1613 153.097 58.992C153.097 58.4275 152.936 57.9839 152.613 57.742C152.29 57.5 151.766 57.3387 150.999 57.3387H149.063V60.7258Z" fill="#4B5760"/>
<path d="M166.49 60.7258V61.7339H160.479V52.4597H166.369V53.4678H161.649V56.4113H165.401V57.3387H161.649V60.6855H166.49V60.7258Z" fill="#4B5760"/>
<path d="M174.921 61.7339H173.751V53.4678H171.089V52.4597H177.584V53.4678H174.921V61.7339Z" fill="#4B5760"/>
<path d="M186.056 61.9357C184.846 61.9357 183.918 61.4518 183.272 60.5244C182.586 59.597 182.264 58.468 182.264 57.097C182.264 55.6857 182.627 54.5164 183.313 53.6293C183.998 52.7422 184.926 52.2583 186.096 52.2583C187.226 52.2583 188.154 52.7019 188.839 53.5889C189.525 54.476 189.888 55.6051 189.888 56.976C189.888 58.3067 189.566 59.4357 188.88 60.4035C188.234 61.4518 187.266 61.9357 186.056 61.9357ZM186.096 60.968C186.903 60.968 187.548 60.6051 187.992 59.8389C188.436 59.1131 188.678 58.1454 188.678 56.976C188.678 55.7664 188.436 54.8389 187.952 54.1938C187.468 53.5486 186.863 53.1857 186.056 53.1857C185.249 53.1857 184.644 53.5486 184.16 54.2744C183.676 55.0002 183.474 55.9277 183.474 57.097C183.474 58.226 183.716 59.1535 184.2 59.8793C184.684 60.6051 185.289 60.968 186.096 60.968Z" fill="#4B5760"/>
<path d="M202.475 61.7342H201.305V57.2987H196.988V61.7342H195.818V52.46H196.988V56.2906H201.305V52.46H202.475V61.7342Z" fill="#4B5760"/>
<path d="M215.586 61.7342H214.416V57.2987H210.099V61.7342H208.97V52.46H210.14V56.2906H214.456V52.46H215.626V61.7342H215.586Z" fill="#4B5760"/>
<path d="M222.283 61.7339V52.4597H223.453V56.1694H224.986C225.995 56.1694 226.721 56.25 227.165 56.4516C227.568 56.6533 227.931 56.9355 228.173 57.3791C228.415 57.8226 228.577 58.3468 228.577 58.992C228.577 59.8791 228.334 60.5646 227.81 61.0484C227.286 61.5323 226.559 61.7742 225.551 61.7742H222.283V61.7339ZM223.453 60.7258H225.43C226.116 60.7258 226.6 60.5646 226.882 60.2823C227.165 59.9597 227.326 59.5565 227.326 58.9516C227.326 57.7823 226.68 57.1775 225.43 57.1775H223.453V60.7258ZM229.827 61.7339V52.4597H230.997V61.7339H229.827Z" fill="#4B5760"/>
<path d="M243.866 52.4597L241.243 56.6936L244.229 61.7339H242.897L240.558 57.7823L238.137 61.7339H237.048L240.033 56.9355L237.371 52.4597H238.662L240.679 55.8871L242.776 52.4597H243.866Z" fill="#4B5760"/>
<path d="M259.074 60.9678V61.7339H257.904V52.4597H259.074V58.4678C259.074 58.871 259.074 59.2742 259.034 59.6775C259.357 59.1129 259.72 58.5081 260.163 57.9033L263.512 53.3871V52.5H264.682V61.7742H263.512V56.371C263.512 56.0484 263.512 55.4839 263.552 54.7178C263.31 55.2016 262.907 55.8065 262.423 56.492L259.074 60.9678Z" fill="#4B5760"/>
<path d="M270.168 59.1535L271.217 58.9115C271.379 59.6373 271.701 60.2018 272.105 60.5244C272.508 60.847 273.113 61.0083 273.799 61.0083C274.485 61.0083 275.009 60.847 275.373 60.4841C275.736 60.1212 275.897 59.718 275.897 59.1535C275.897 57.9841 275.252 57.4196 273.92 57.4196H273.033V56.4115H273.84C274.364 56.4115 274.808 56.2906 275.13 56.0083C275.453 55.726 275.615 55.3228 275.615 54.8389C275.615 54.3551 275.453 53.9922 275.09 53.6696C274.727 53.3873 274.283 53.226 273.719 53.226C272.468 53.226 271.742 53.8309 271.5 55.0002L270.37 54.8793C270.774 53.1454 271.863 52.2583 273.678 52.2583C274.646 52.2583 275.413 52.5002 275.978 52.9438C276.542 53.3873 276.825 53.9922 276.825 54.718C276.825 55.7664 276.22 56.4922 275.009 56.8148C276.381 57.0567 277.067 57.7825 277.067 59.0728C277.067 59.8389 276.784 60.5244 276.22 61.0889C275.655 61.6535 274.808 61.9357 273.678 61.9357C272.67 61.9357 271.903 61.6938 271.298 61.2099C270.733 60.726 270.33 60.0406 270.168 59.1535Z" fill="#4B5760"/>
<path d="M282.876 60.7258L285.579 52.4597H287.515L290.259 60.7258H290.783V63.7097H289.855L289.694 61.7742H283.4L283.279 63.7097H282.352V60.7258H282.876ZM283.965 60.7258H288.968L286.708 53.3871H286.224L283.965 60.7258Z" fill="#4B5760"/>
<path d="M301.998 60.7258V61.7339H295.987V52.4597H301.877V53.4678H297.157V56.4113H300.909V57.3387H297.157V60.6855H301.998V60.7258Z" fill="#4B5760"/>
<path d="M307.646 61.7339H306.557L309.623 52.4597H311.277L314.262 61.7339H312.971L310.55 53.6694H310.187L307.646 61.7339Z" fill="#4B5760"/>
<path d="M320.797 60.9678V61.7339H319.627V52.4597H320.797V58.4678C320.797 58.871 320.797 59.2742 320.757 59.6775C321.08 59.1129 321.443 58.5081 321.887 57.9033L325.235 53.3871V52.5H326.405V61.7742H325.235V56.371C325.235 56.0484 325.235 55.4839 325.275 54.7178C325.033 55.2016 324.63 55.8065 324.146 56.492L320.797 60.9678Z" fill="#4B5760"/>
<path d="M333.909 60.9677V61.7339H332.739V52.4597H333.909V58.4677C333.909 58.871 333.909 59.2742 333.868 59.6774C334.191 59.1129 334.554 58.5081 334.998 57.9032L338.346 53.3871V52.5H339.516V61.7742H338.346V56.371C338.346 56.0484 338.346 55.4839 338.387 54.7177C338.145 55.2016 337.741 55.8064 337.257 56.4919L333.909 60.9677ZM334.11 49.7581H334.877C334.998 50.3629 335.401 50.6855 336.127 50.6855C336.854 50.6855 337.297 50.3629 337.418 49.7581H338.185C337.983 50.9274 337.338 51.4919 336.249 51.4919C334.998 51.5323 334.272 50.9274 334.11 49.7581Z" fill="#4B5760"/>
<path d="M34.7344 58.4677L31.8701 58.0241V23.5886H34.7344V58.4677Z" fill="#30383E"/>
<path d="M32.3946 12.0566H20.5342V65.1615L32.3946 58.4276V12.0566Z" fill="#C71D14"/>
<path d="M20.5338 65.1615L12.1831 59.6373V18.7099V12.0566H20.5338V65.1615Z" fill="#8F1807"/>
<path d="M47.4824 51.6127V18.6692H34.7344V58.4676L47.4824 51.6127Z" fill="#576470"/>
<path d="M54.3806 2.29834H0V12.0564H60.5126L54.3806 2.29834Z" fill="#C71D14"/>
<path d="M0 14.2742V23.5887H66.8866L60.5529 14.2742H0Z" fill="#576470"/>
</svg>
