<svg width="300" height="275" viewBox="0 0 300 275" fill="none" xmlns="http://www.w3.org/2000/svg">
<g clip-path="url(#clip0_474_432)">
<path d="M46.6802 222C40.3702 221.88 34.5502 220.31 29.5002 216.4C21.7402 210.4 18.5002 202.4 18.5002 192.68C18.5602 149.627 18.5602 106.577 18.5002 63.53C18.5002 62.75 18.5002 61.97 18.5002 61.18C18.5002 60.39 18.1102 60.24 17.4502 60.08C9.7102 58.18 3.5402 61.08 -0.0498047 68.37V243.57C3.2602 250.77 7.1702 253.17 14.0702 251.64C28.9328 248.318 44.0205 246.099 59.2102 245C77.2102 243.74 95.0902 244 112.91 247C115.12 247.36 117.32 247.76 119.52 248.18C121.72 248.6 123.7 249.02 126.52 249.6C113.62 237.6 98.9202 230.84 82.8702 226.67C71.0309 223.704 58.8846 222.136 46.6802 222Z" fill="white"/>
<path d="M139.33 65.6601C127.84 48.1501 111.69 36.8901 92.0802 30.1801C77.7302 25.2601 62.9002 23.3901 47.8102 23.0001C39.9202 22.7701 35.1802 27.0001 35.1802 34.8801C35.1802 87.7135 35.1802 140.54 35.1802 193.36C35.1802 200.89 39.3602 205.31 46.8302 205.44C56.0999 205.576 65.3476 206.384 74.5002 207.86C94.0002 211.05 112.15 217.61 128.28 229.27C133.01 232.789 137.475 236.649 141.64 240.82C141.64 239.91 141.71 239.56 141.71 239.21C141.71 183.943 141.71 128.673 141.71 73.4001C141.716 70.6391 140.886 67.9408 139.33 65.6601Z" fill="white"/>
<path d="M252.88 205.41C260.34 205.3 264.81 200.98 264.81 193.9C264.81 140.68 264.81 87.46 264.81 34.24C264.81 27.24 260.01 22.73 253.07 22.93C242.723 23.059 232.411 24.1605 222.27 26.22C199.74 31.13 179.98 40.85 165.27 59.27C161.37 64.15 158.1 69.04 158.13 75.99C158.36 129.7 158.25 183.41 158.25 237.11V240.11C158.62 240.11 158.74 240.2 158.79 240.16C159.179 239.869 159.553 239.559 159.91 239.23C174.02 225.23 191.02 216.35 210.06 211.12C224.032 207.402 238.422 205.483 252.88 205.41Z" fill="white"/>
<path d="M300 72.2899C300 71.5099 300 70.7199 299.94 69.9499C299.746 67.3469 298.599 64.9067 296.719 63.0954C294.84 61.284 292.359 60.2284 289.75 60.1299C288.39 60.0699 287.02 60.1299 285.65 60.1299C281.45 60.1299 281.45 60.1299 281.45 64.2199C281.45 107.087 281.45 149.95 281.45 192.81C281.45 210.09 270.45 221.43 253.23 222.04C244.74 222.199 236.272 222.961 227.89 224.32C211.72 227.21 196.4 232.32 182.82 241.9C179.447 244.092 176.366 246.702 173.65 249.67C181.528 247.646 189.553 246.245 197.65 245.48C225.26 242.78 252.65 244.85 279.74 250.39C281.64 250.78 283.55 251.2 285.45 251.61C294.23 253.49 300.03 248.84 300.03 239.87C300.01 183.99 300 128.13 300 72.2899Z" fill="white"/>
</g>
<defs>
<clipPath id="clip0_474_432">
<rect width="300" height="275" fill="white"/>
</clipPath>
</defs>
</svg>
