<svg width="300" height="275" viewBox="0 0 300 275" fill="none" xmlns="http://www.w3.org/2000/svg">
<g clip-path="url(#clip0_474_440)">
<path d="M296.55 67.52C294.528 65.0661 291.975 63.1034 289.084 61.78C286.193 60.4565 283.039 59.8069 279.86 59.88C263.57 59.98 247.28 59.88 231 59.96C228.11 59.96 226.56 58.96 225.59 56.26C222.59 47.91 219.41 39.62 216.28 31.32C213.66 24.37 209.46 21.32 202.12 21.32C167.493 21.28 132.867 21.28 98.24 21.32C90.84 21.32 86.63 24.32 84.03 31.26C80.9834 39.38 77.9367 47.5067 74.89 55.64C73.34 59.81 73.18 59.93 68.78 59.93C52.39 59.93 36 59.93 19.62 59.93C8.34004 60 4.19579e-05 68.23 4.19579e-05 79.45C4.19579e-05 131.05 4.19579e-05 182.65 4.19579e-05 234.25C-0.151695 237.375 0.539053 240.483 2.00004 243.25C6.31004 250.72 13.06 253.68 21.32 253.68C107.153 253.68 192.987 253.68 278.82 253.68C290.89 253.68 297.76 247.99 300 236.4V77.21C299.5 73.75 299.05 70.35 296.55 67.52ZM150.1 229.7C130.783 229.627 112.276 221.928 98.6048 208.28C84.934 194.632 77.2053 176.137 77.1 156.82C76.84 117 109.68 84 149.9 83.69C189.82 83.36 223.01 116.38 223.19 156.63C223.37 196.61 190.13 229.83 150.1 229.7Z" fill="white"/>
<path d="M150.28 106.81C122.93 106.6 100.52 128.81 100.28 156.44C100.013 163.13 101.096 169.805 103.463 176.068C105.831 182.331 109.435 188.053 114.06 192.894C118.686 197.735 124.238 201.595 130.387 204.244C136.536 206.894 143.155 208.279 149.85 208.316C156.545 208.354 163.18 207.044 169.358 204.463C175.536 201.883 181.131 198.085 185.811 193.297C190.491 188.508 194.158 182.827 196.596 176.591C199.034 170.355 200.191 163.693 200 157C200.32 129.53 178 107 150.28 106.81Z" fill="white"/>
</g>
<defs>
<clipPath id="clip0_474_440">
<rect width="300" height="275" fill="white"/>
</clipPath>
</defs>
</svg>
