<svg width="553" height="328" fill="none" xmlns="http://www.w3.org/2000/svg"><path fill="#C5C5C5" d="M0 0h552v83H0z"/><path fill="#6DB04D" d="M0 83h552v245H0z"/><path d="M264.066 49.39v7.2h-2.79V52h-17.28l-.03 4.59h-2.79l.03-7.2h1.02c1.32-.08 2.25-1.12 2.79-3.12.54-2.02.87-4.86.99-8.52l.21-6.75h14.76v18.39h3.09zm-15.42-11.37c-.1 2.96-.34 5.41-.72 7.35-.36 1.94-.95 3.28-1.77 4.02h11.85V33.61h-9.21l-.15 4.41zm28.971 14.22c-2.12 0-4.03-.46-5.73-1.38-1.7-.94-3.04-2.23-4.02-3.87-.96-1.64-1.44-3.47-1.44-5.49s.48-3.85 1.44-5.49a10.31 10.31 0 014.02-3.84c1.7-.94 3.61-1.41 5.73-1.41 2.1 0 4 .47 5.7 1.41 1.7.92 3.03 2.2 3.99 3.84.96 1.62 1.44 3.45 1.44 5.49s-.48 3.88-1.44 5.52c-.96 1.62-2.29 2.9-3.99 3.84-1.7.92-3.6 1.38-5.7 1.38zm0-2.67c1.54 0 2.92-.35 4.14-1.05 1.24-.7 2.21-1.66 2.91-2.88.72-1.24 1.08-2.62 1.08-4.14 0-1.52-.36-2.89-1.08-4.11a7.536 7.536 0 00-2.91-2.91c-1.22-.7-2.6-1.05-4.14-1.05-1.54 0-2.94.35-4.2 1.05a7.75 7.75 0 00-2.94 2.91c-.7 1.22-1.05 2.59-1.05 4.11 0 1.52.35 2.9 1.05 4.14.72 1.22 1.7 2.18 2.94 2.88 1.26.7 2.66 1.05 4.2 1.05zm35.45 2.43l-.03-15.3-7.59 12.75h-1.38l-7.59-12.66V52h-2.88V31h2.46l8.76 14.76 8.64-14.76h2.46l.03 21h-2.88z" fill="#fff"/><path fill="#4B5760" d="M139 83h273v188H139z"/><path fill="#666F7C" d="M183 83h186v144H183z"/><path d="M248.341 143l-6.22 11.54c-.493.92-1.073 1.607-1.74 2.06a3.798 3.798 0 01-2.18.68c-.613 0-1.24-.14-1.88-.42l.52-1.6c.494.173.934.26 1.32.26.88 0 1.607-.467 2.18-1.4l.32-.5-5.64-10.62h2.14l4.54 8.88 4.66-8.88h1.98zm9.864 3.4V157h-1.92v-4.28c-1.147.533-2.287.8-3.42.8-1.32 0-2.34-.307-3.06-.92-.72-.613-1.08-1.533-1.08-2.76v-3.44h1.92v3.32c0 .733.226 1.287.68 1.66.466.373 1.113.56 1.94.56.933 0 1.94-.233 3.02-.7v-4.84h1.92zm7.507-.1c1.467 0 2.587.36 3.36 1.08.787.72 1.18 1.793 1.18 3.22v6.4h-1.82v-1.4c-.32.493-.78.873-1.38 1.14-.586.253-1.286.38-2.1.38-1.186 0-2.14-.287-2.86-.86-.706-.573-1.06-1.327-1.06-2.26 0-.933.34-1.68 1.02-2.24.68-.573 1.76-.86 3.24-.86h3.04v-.38c0-.827-.24-1.46-.72-1.9-.48-.44-1.186-.66-2.12-.66-.626 0-1.24.107-1.84.32-.6.2-1.106.473-1.52.82l-.8-1.44c.547-.44 1.2-.773 1.96-1 .76-.24 1.567-.36 2.42-.36zm-.44 9.34c.734 0 1.367-.16 1.9-.48.534-.333.92-.8 1.16-1.4v-1.48h-2.96c-1.626 0-2.44.547-2.44 1.64 0 .533.207.953.62 1.26.414.307.987.46 1.72.46zm13.058 1.48c-1.08 0-2.047-.233-2.9-.7a5.175 5.175 0 01-1.98-1.92c-.48-.827-.72-1.76-.72-2.8 0-1.04.24-1.967.72-2.78a4.982 4.982 0 011.98-1.92c.853-.467 1.82-.7 2.9-.7.96 0 1.813.193 2.56.58.76.387 1.346.947 1.76 1.68l-1.46.94a3.264 3.264 0 00-1.24-1.14 3.543 3.543 0 00-1.64-.38c-.694 0-1.32.153-1.88.46-.547.307-.98.747-1.3 1.32-.307.56-.46 1.207-.46 1.94 0 .747.153 1.407.46 1.98.32.56.753.993 1.3 1.3.56.307 1.186.46 1.88.46.6 0 1.146-.127 1.64-.38a3.264 3.264 0 001.24-1.14l1.46.92c-.414.733-1 1.3-1.76 1.7-.747.387-1.6.58-2.56.58zm14.569-9.04h-3.88V157h-1.92v-8.92h-3.88v-1.68h9.68v1.68zm6.034 9.04c-1.053 0-2-.233-2.84-.7a5.175 5.175 0 01-1.98-1.92c-.466-.827-.7-1.76-.7-2.8 0-1.04.234-1.967.7-2.78a4.982 4.982 0 011.98-1.92c.84-.467 1.787-.7 2.84-.7 1.054 0 1.994.233 2.82.7a4.844 4.844 0 011.96 1.92c.48.813.72 1.74.72 2.78 0 1.04-.24 1.973-.72 2.8a5.026 5.026 0 01-1.96 1.92c-.826.467-1.766.7-2.82.7zm0-1.68c.68 0 1.287-.153 1.82-.46.547-.32.974-.76 1.28-1.32.307-.573.46-1.227.46-1.96 0-.733-.153-1.38-.46-1.94a3.213 3.213 0 00-1.28-1.32c-.533-.307-1.14-.46-1.82-.46-.68 0-1.293.153-1.84.46-.533.307-.96.747-1.28 1.32-.306.56-.46 1.207-.46 1.94 0 .733.154 1.387.46 1.96.32.56.747 1 1.28 1.32.547.307 1.16.46 1.84.46zm12.393-2.92h-2.2V157h-1.92v-10.6h1.92v4.48h2.24l3.44-4.48h2.06l-4.02 5.1 4.3 5.5h-2.26l-3.56-4.48zm-71.197 14.88V178h-1.74v-7.74l-3.96 6.54h-.84l-3.92-6.56V178h-1.76v-10.6h1.98l4.16 7.16 4.28-7.16h1.8zm8.277 10.72c-1.053 0-2-.233-2.84-.7a5.175 5.175 0 01-1.98-1.92c-.467-.827-.7-1.76-.7-2.8 0-1.04.233-1.967.7-2.78a4.982 4.982 0 011.98-1.92c.84-.467 1.787-.7 2.84-.7s1.993.233 2.82.7a4.85 4.85 0 011.96 1.92c.48.813.72 1.74.72 2.78 0 1.04-.24 1.973-.72 2.8a5.033 5.033 0 01-1.96 1.92c-.827.467-1.767.7-2.82.7zm0-1.68c.68 0 1.287-.153 1.82-.46.547-.32.973-.76 1.28-1.32.307-.573.46-1.227.46-1.96 0-.733-.153-1.38-.46-1.94a3.22 3.22 0 00-1.28-1.32c-.533-.307-1.14-.46-1.82-.46-.68 0-1.293.153-1.84.46-.533.307-.96.747-1.28 1.32-.307.56-.46 1.207-.46 1.94 0 .733.153 1.387.46 1.96.32.56.747 1 1.28 1.32.547.307 1.16.46 1.84.46zm23.372-9.04V178h-15.1v-10.6h1.92v8.92h4.68v-8.92h1.92v8.92h4.66v-8.92h1.92zm1.58 8.92v3.94h-1.8V178h-1.78v-1.68h3.58zm11.728-3.56c0 .147-.013.34-.04.58h-8.6c.12.933.527 1.687 1.22 2.26.707.56 1.58.84 2.62.84 1.267 0 2.287-.427 3.06-1.28l1.06 1.24c-.48.56-1.08.987-1.8 1.28-.706.293-1.5.44-2.38.44-1.12 0-2.113-.227-2.98-.68a5.06 5.06 0 01-2.02-1.94c-.466-.827-.7-1.76-.7-2.8 0-1.027.227-1.953.68-2.78a4.96 4.96 0 011.9-1.92c.814-.467 1.727-.7 2.74-.7 1.014 0 1.914.233 2.7.7.8.453 1.42 1.093 1.86 1.92.454.827.68 1.773.68 2.84zm-5.24-3.84c-.92 0-1.693.28-2.32.84-.613.56-.973 1.293-1.08 2.2h6.8c-.106-.893-.473-1.62-1.1-2.18-.613-.573-1.38-.86-2.3-.86zm8.219-1.52h1.92v4.5h6.04v-4.5h1.92V178h-1.92v-4.44h-6.04V178h-1.92v-10.6zm13.613 0h1.92v7.72l6.5-7.72h1.74V178h-1.92v-7.72l-6.48 7.72h-1.76v-10.6zm22.387 0V178h-1.72v-3.36h-3.3l-2.32 3.36h-2.06l2.58-3.62c-.8-.24-1.413-.633-1.84-1.18-.427-.56-.64-1.253-.64-2.08 0-1.213.413-2.133 1.24-2.76.827-.64 1.967-.96 3.42-.96h4.64zm-7.34 3.78c0 .707.22 1.233.66 1.58.453.333 1.127.5 2.02.5h2.94v-4.18h-2.86c-1.84 0-2.76.7-2.76 2.1zM38.818 162.2v9.8h-1.386v-8.582H35.22V162.2h3.598zm4.944 3.906c1.4 0 2.427.266 3.08.798.663.523.994 1.241.994 2.156 0 .579-.14 1.101-.42 1.568-.27.457-.686.821-1.246 1.092-.55.261-1.232.392-2.044.392a6.56 6.56 0 01-2.002-.308c-.644-.215-1.176-.509-1.596-.882l.644-1.106c.336.317.765.574 1.288.77.523.187 1.073.28 1.652.28.737 0 1.307-.154 1.708-.462.41-.317.616-.747.616-1.288 0-.588-.224-1.031-.672-1.33-.448-.308-1.213-.462-2.296-.462h-2.226l.518-5.124h5.53v1.218h-4.354l-.266 2.688h1.092zm9.243 6.006c-.775 0-1.465-.196-2.072-.588-.597-.401-1.069-.98-1.414-1.736s-.518-1.652-.518-2.688c0-1.036.173-1.932.518-2.688.345-.756.817-1.33 1.414-1.722.607-.401 1.297-.602 2.072-.602.765 0 1.447.201 2.044.602.607.392 1.083.966 1.428 1.722s.518 1.652.518 2.688c0 1.036-.173 1.932-.518 2.688-.345.756-.821 1.335-1.428 1.736-.597.392-1.279.588-2.044.588zm0-1.246c.784 0 1.41-.322 1.876-.966.476-.644.714-1.577.714-2.8 0-1.223-.238-2.156-.714-2.8-.467-.644-1.092-.966-1.876-.966-.793 0-1.428.322-1.904.966-.467.644-.7 1.577-.7 2.8 0 1.223.233 2.156.7 2.8.476.644 1.11.966 1.904.966zM63.466 172l-2.142-2.842-2.17 2.842h-1.498l2.926-3.794-2.786-3.626h1.498l2.044 2.674 2.03-2.674h1.47l-2.8 3.626L64.992 172h-1.526zm9.212-1.218V172h-7.042v-.952l3.99-3.85c.486-.467.812-.868.98-1.204a2.35 2.35 0 00.252-1.036c0-.513-.182-.91-.546-1.19-.355-.289-.868-.434-1.54-.434-1.083 0-1.918.355-2.506 1.064l-.952-.826c.383-.467.882-.831 1.498-1.092.626-.261 1.32-.392 2.086-.392 1.027 0 1.844.247 2.45.742.607.485.91 1.148.91 1.988 0 .523-.112 1.017-.336 1.484-.224.467-.648.999-1.274 1.596l-2.996 2.884h5.026zm5.114 1.33c-.775 0-1.465-.196-2.072-.588-.597-.401-1.069-.98-1.414-1.736s-.518-1.652-.518-2.688c0-1.036.173-1.932.518-2.688.346-.756.817-1.33 1.414-1.722.607-.401 1.297-.602 2.072-.602.766 0 1.447.201 2.044.602.607.392 1.083.966 1.428 1.722.346.756.518 1.652.518 2.688 0 1.036-.172 1.932-.518 2.688-.345.756-.821 1.335-1.428 1.736-.597.392-1.278.588-2.044.588zm0-1.246c.784 0 1.41-.322 1.876-.966.476-.644.714-1.577.714-2.8 0-1.223-.238-2.156-.714-2.8-.467-.644-1.092-.966-1.876-.966-.793 0-1.428.322-1.904.966-.467.644-.7 1.577-.7 2.8 0 1.223.233 2.156.7 2.8.476.644 1.11.966 1.904.966zm9.338 1.246c-.775 0-1.465-.196-2.072-.588-.597-.401-1.069-.98-1.414-1.736s-.518-1.652-.518-2.688c0-1.036.173-1.932.518-2.688.345-.756.817-1.33 1.414-1.722.607-.401 1.297-.602 2.072-.602.765 0 1.447.201 2.044.602.607.392 1.083.966 1.428 1.722s.518 1.652.518 2.688c0 1.036-.173 1.932-.518 2.688-.345.756-.821 1.335-1.428 1.736-.597.392-1.279.588-2.044.588zm0-1.246c.784 0 1.41-.322 1.876-.966.476-.644.714-1.577.714-2.8 0-1.223-.238-2.156-.714-2.8-.467-.644-1.092-.966-1.876-.966-.793 0-1.428.322-1.904.966-.467.644-.7 1.577-.7 2.8 0 1.223.233 2.156.7 2.8.476.644 1.11.966 1.904.966zm18.278-6.286V172h-1.218v-5.418l-2.772 4.578h-.588l-2.744-4.592V172h-1.232v-7.42h1.386l2.912 5.012 2.996-5.012h1.26zm11.17 0V172h-1.218v-5.418l-2.772 4.578H112l-2.744-4.592V172h-1.232v-7.42h1.386l2.912 5.012 2.996-5.012h1.26zm322.24-1.38v9.8h-1.386v-8.582h-2.212V163.2h3.598zm4.944 3.906c1.4 0 2.427.266 3.08.798.663.523.994 1.241.994 2.156 0 .579-.14 1.101-.42 1.568-.271.457-.686.821-1.246 1.092-.551.261-1.232.392-2.044.392a6.559 6.559 0 01-2.002-.308c-.644-.215-1.176-.509-1.596-.882l.644-1.106c.336.317.765.574 1.288.77.523.187 1.073.28 1.652.28.737 0 1.307-.154 1.708-.462.411-.317.616-.747.616-1.288 0-.588-.224-1.031-.672-1.33-.448-.308-1.213-.462-2.296-.462h-2.226l.518-5.124h5.53v1.218h-4.354l-.266 2.688h1.092zm9.243 6.006c-.775 0-1.465-.196-2.072-.588-.597-.401-1.069-.98-1.414-1.736s-.518-1.652-.518-2.688c0-1.036.173-1.932.518-2.688.345-.756.817-1.33 1.414-1.722.607-.401 1.297-.602 2.072-.602.765 0 1.447.201 2.044.602.607.392 1.083.966 1.428 1.722s.518 1.652.518 2.688c0 1.036-.173 1.932-.518 2.688-.345.756-.821 1.335-1.428 1.736-.597.392-1.279.588-2.044.588zm0-1.246c.784 0 1.409-.322 1.876-.966.476-.644.714-1.577.714-2.8 0-1.223-.238-2.156-.714-2.8-.467-.644-1.092-.966-1.876-.966-.793 0-1.428.322-1.904.966-.467.644-.7 1.577-.7 2.8 0 1.223.233 2.156.7 2.8.476.644 1.111.966 1.904.966zM463.466 173l-2.142-2.842-2.17 2.842h-1.498l2.926-3.794-2.786-3.626h1.498l2.044 2.674 2.03-2.674h1.47l-2.8 3.626 2.954 3.794h-1.526zm9.212-1.218V173h-7.042v-.952l3.99-3.85c.485-.467.812-.868.98-1.204a2.35 2.35 0 00.252-1.036c0-.513-.182-.91-.546-1.19-.355-.289-.868-.434-1.54-.434-1.083 0-1.918.355-2.506 1.064l-.952-.826c.383-.467.882-.831 1.498-1.092.625-.261 1.321-.392 2.086-.392 1.027 0 1.843.247 2.45.742.607.485.91 1.148.91 1.988 0 .523-.112 1.017-.336 1.484-.224.467-.649.999-1.274 1.596l-2.996 2.884h5.026zm5.114 1.33c-.774 0-1.465-.196-2.072-.588-.597-.401-1.068-.98-1.414-1.736-.345-.756-.518-1.652-.518-2.688 0-1.036.173-1.932.518-2.688.346-.756.817-1.33 1.414-1.722.607-.401 1.298-.602 2.072-.602.766 0 1.447.201 2.044.602.607.392 1.083.966 1.428 1.722.346.756.518 1.652.518 2.688 0 1.036-.172 1.932-.518 2.688-.345.756-.821 1.335-1.428 1.736-.597.392-1.278.588-2.044.588zm0-1.246c.784 0 1.41-.322 1.876-.966.476-.644.714-1.577.714-2.8 0-1.223-.238-2.156-.714-2.8-.466-.644-1.092-.966-1.876-.966-.793 0-1.428.322-1.904.966-.466.644-.7 1.577-.7 2.8 0 1.223.234 2.156.7 2.8.476.644 1.111.966 1.904.966zm9.338 1.246c-.775 0-1.465-.196-2.072-.588-.597-.401-1.069-.98-1.414-1.736s-.518-1.652-.518-2.688c0-1.036.173-1.932.518-2.688.345-.756.817-1.33 1.414-1.722.607-.401 1.297-.602 2.072-.602.765 0 1.447.201 2.044.602.607.392 1.083.966 1.428 1.722s.518 1.652.518 2.688c0 1.036-.173 1.932-.518 2.688-.345.756-.821 1.335-1.428 1.736-.597.392-1.279.588-2.044.588zm0-1.246c.784 0 1.409-.322 1.876-.966.476-.644.714-1.577.714-2.8 0-1.223-.238-2.156-.714-2.8-.467-.644-1.092-.966-1.876-.966-.793 0-1.428.322-1.904.966-.467.644-.7 1.577-.7 2.8 0 1.223.233 2.156.7 2.8.476.644 1.111.966 1.904.966zm18.278-6.286V173h-1.218v-5.418l-2.772 4.578h-.588l-2.744-4.592V173h-1.232v-7.42h1.386l2.912 5.012 2.996-5.012h1.26zm11.17 0V173h-1.218v-5.418l-2.772 4.578H512l-2.744-4.592V173h-1.232v-7.42h1.386l2.912 5.012 2.996-5.012h1.26zM242.818 292.2v9.8h-1.386v-8.582h-2.212V292.2h3.598zm4.944 3.906c1.4 0 2.427.266 3.08.798.663.523.994 1.241.994 2.156 0 .579-.14 1.101-.42 1.568-.271.457-.686.821-1.246 1.092-.551.261-1.232.392-2.044.392a6.559 6.559 0 01-2.002-.308c-.644-.215-1.176-.509-1.596-.882l.644-1.106c.336.317.765.574 1.288.77.523.187 1.073.28 1.652.28.737 0 1.307-.154 1.708-.462.411-.317.616-.747.616-1.288 0-.588-.224-1.031-.672-1.33-.448-.308-1.213-.462-2.296-.462h-2.226l.518-5.124h5.53v1.218h-4.354l-.266 2.688h1.092zm9.243 6.006c-.775 0-1.465-.196-2.072-.588-.597-.401-1.069-.98-1.414-1.736s-.518-1.652-.518-2.688c0-1.036.173-1.932.518-2.688.345-.756.817-1.33 1.414-1.722.607-.401 1.297-.602 2.072-.602.765 0 1.447.201 2.044.602.607.392 1.083.966 1.428 1.722s.518 1.652.518 2.688c0 1.036-.173 1.932-.518 2.688-.345.756-.821 1.335-1.428 1.736-.597.392-1.279.588-2.044.588zm0-1.246c.784 0 1.409-.322 1.876-.966.476-.644.714-1.577.714-2.8 0-1.223-.238-2.156-.714-2.8-.467-.644-1.092-.966-1.876-.966-.793 0-1.428.322-1.904.966-.467.644-.7 1.577-.7 2.8 0 1.223.233 2.156.7 2.8.476.644 1.111.966 1.904.966zM267.466 302l-2.142-2.842-2.17 2.842h-1.498l2.926-3.794-2.786-3.626h1.498l2.044 2.674 2.03-2.674h1.47l-2.8 3.626 2.954 3.794h-1.526zm9.212-1.218V302h-7.042v-.952l3.99-3.85c.485-.467.812-.868.98-1.204a2.35 2.35 0 00.252-1.036c0-.513-.182-.91-.546-1.19-.355-.289-.868-.434-1.54-.434-1.083 0-1.918.355-2.506 1.064l-.952-.826c.383-.467.882-.831 1.498-1.092.625-.261 1.321-.392 2.086-.392 1.027 0 1.843.247 2.45.742.607.485.91 1.148.91 1.988 0 .523-.112 1.017-.336 1.484-.224.467-.649.999-1.274 1.596l-2.996 2.884h5.026zm5.114 1.33c-.774 0-1.465-.196-2.072-.588-.597-.401-1.068-.98-1.414-1.736-.345-.756-.518-1.652-.518-2.688 0-1.036.173-1.932.518-2.688.346-.756.817-1.33 1.414-1.722.607-.401 1.298-.602 2.072-.602.766 0 1.447.201 2.044.602.607.392 1.083.966 1.428 1.722.346.756.518 1.652.518 2.688 0 1.036-.172 1.932-.518 2.688-.345.756-.821 1.335-1.428 1.736-.597.392-1.278.588-2.044.588zm0-1.246c.784 0 1.41-.322 1.876-.966.476-.644.714-1.577.714-2.8 0-1.223-.238-2.156-.714-2.8-.466-.644-1.092-.966-1.876-.966-.793 0-1.428.322-1.904.966-.466.644-.7 1.577-.7 2.8 0 1.223.234 2.156.7 2.8.476.644 1.111.966 1.904.966zm9.338 1.246c-.775 0-1.465-.196-2.072-.588-.597-.401-1.069-.98-1.414-1.736s-.518-1.652-.518-2.688c0-1.036.173-1.932.518-2.688.345-.756.817-1.33 1.414-1.722.607-.401 1.297-.602 2.072-.602.765 0 1.447.201 2.044.602.607.392 1.083.966 1.428 1.722s.518 1.652.518 2.688c0 1.036-.173 1.932-.518 2.688-.345.756-.821 1.335-1.428 1.736-.597.392-1.279.588-2.044.588zm0-1.246c.784 0 1.409-.322 1.876-.966.476-.644.714-1.577.714-2.8 0-1.223-.238-2.156-.714-2.8-.467-.644-1.092-.966-1.876-.966-.793 0-1.428.322-1.904.966-.467.644-.7 1.577-.7 2.8 0 1.223.233 2.156.7 2.8.476.644 1.111.966 1.904.966zm18.278-6.286V302h-1.218v-5.418l-2.772 4.578h-.588l-2.744-4.592V302h-1.232v-7.42h1.386l2.912 5.012 2.996-5.012h1.26zm11.17 0V302h-1.218v-5.418l-2.772 4.578H316l-2.744-4.592V302h-1.232v-7.42h1.386l2.912 5.012 2.996-5.012h1.26zm-39.871-68.287a.999.999 0 00-1.414 0l-6.364 6.364a.999.999 0 101.414 1.414l5.657-5.657 5.657 5.657a.999.999 0 101.414-1.414l-6.364-6.364zm-1.414 45.414a.999.999 0 001.414 0l6.364-6.364a.999.999 0 10-1.414-1.414L280 269.586l-5.657-5.657a.999.999 0 10-1.414 1.414l6.364 6.364zM279 227v44h2v-44h-2zm131.707-57.293a.999.999 0 000-1.414l-6.364-6.364a.999.999 0 10-1.414 1.414l5.657 5.657-5.657 5.657a.999.999 0 101.414 1.414l6.364-6.364zm-41.414-1.414a.999.999 0 000 1.414l6.364 6.364a.999.999 0 101.414-1.414L371.414 169l5.657-5.657a.999.999 0 10-1.414-1.414l-6.364 6.364zM410 168h-40v2h40v-2zm-226.293 1.707a.999.999 0 000-1.414l-6.364-6.364a.999.999 0 10-1.414 1.414l5.657 5.657-5.657 5.657a.999.999 0 101.414 1.414l6.364-6.364zm-42.414-1.414a.999.999 0 000 1.414l6.364 6.364a.999.999 0 101.414-1.414L143.414 169l5.657-5.657a.999.999 0 10-1.414-1.414l-6.364 6.364zM183 168h-41v2h41v-2z" fill="#fff"/><path stroke="#46515A" stroke-width="3" d="M1.5 1.5h550v325H1.5z"/></svg>