<svg width="300" height="275" viewBox="0 0 300 275" fill="none" xmlns="http://www.w3.org/2000/svg">
<g clip-path="url(#clip0_474_420)">
<path d="M254 26.1902C254 17.6102 251.32 10.4402 244.45 5.06018C240.095 1.67875 234.712 -0.107233 229.2 0.000182702C176.4 0.000182702 123.597 0.0168494 70.79 0.0501827C56.79 0.0501827 46.67 10.0502 46.06 24.0502C46.06 24.6702 46.06 25.3002 46.06 25.9202C46.02 100.294 46 174.654 46 249C46 257.71 48.9 264.86 55.9 270.23C59.39 272.91 63.49 274.04 67.68 274.98H232.32L232.91 274.86C237.83 273.8 242.41 272.06 246.16 268.51C250.499 264.557 253.215 259.133 253.78 253.29C253.93 251.78 253.96 250.29 253.96 248.73C253.987 174.557 254 100.377 254 26.1902ZM78.91 48.8302C78.91 43.4702 81.38 40.9902 86.82 40.9802C129.693 40.9802 172.557 40.9802 215.41 40.9802C220.8 40.9802 223.24 43.5002 223.26 48.9002C223.26 56.1535 223.26 63.4035 223.26 70.6502C223.26 76.0802 220.83 78.4402 215.33 78.4402H87.33C81.12 78.4402 78.96 76.2702 78.95 70.0402C78.9 63.0002 78.88 55.9002 78.91 48.8302ZM223.23 127.47C223.12 132.19 220.05 135.29 215.28 135.47C212.69 135.58 210.08 135.47 207.48 135.47C204.97 135.47 202.48 135.57 199.95 135.47C195.49 135.26 192.35 132.31 192.11 127.86C191.91 124.016 191.91 120.164 192.11 116.32C192.136 115.264 192.37 114.224 192.8 113.259C193.23 112.295 193.847 111.425 194.615 110.699C195.383 109.974 196.287 109.408 197.275 109.034C198.262 108.66 199.314 108.486 200.37 108.52C205.21 108.44 210.05 108.45 214.89 108.52C219.73 108.59 223.14 111.8 223.25 116.73C223.323 120.31 223.317 123.89 223.23 127.47ZM107.94 231.06C107.79 235.89 104.7 239.06 99.84 239.35C97.34 239.49 94.84 239.35 92.31 239.35C89.89 239.35 87.47 239.44 85.05 239.35C79.86 239.12 76.82 235.98 76.75 230.78C76.69 227.38 76.68 223.98 76.75 220.58C76.85 215.76 79.94 212.46 84.75 212.29C89.77 212.117 94.79 212.117 99.81 212.29C104.62 212.45 107.81 215.75 107.91 220.57C108.037 224.077 108.047 227.574 107.94 231.06ZM107.94 179.43C107.75 184.19 104.38 187.35 99.61 187.43C97.19 187.48 94.77 187.43 92.34 187.43C89.91 187.43 87.34 187.49 84.81 187.43C83.755 187.446 82.7074 187.251 81.7295 186.854C80.7516 186.458 79.8632 185.869 79.1171 185.123C78.371 184.377 77.7823 183.489 77.386 182.511C76.9897 181.533 76.7938 180.485 76.81 179.43C76.71 175.757 76.71 172.09 76.81 168.43C76.7708 167.369 76.9509 166.311 77.339 165.323C77.7272 164.335 78.315 163.437 79.0659 162.686C79.8167 161.935 80.7144 161.347 81.7027 160.959C82.6911 160.571 83.7489 160.391 84.81 160.43C89.81 160.3 94.81 160.31 99.87 160.43C100.929 160.396 101.984 160.577 102.971 160.962C103.958 161.348 104.856 161.929 105.612 162.671C106.368 163.413 106.966 164.301 107.37 165.28C107.773 166.26 107.974 167.311 107.96 168.37C108.07 172.09 108.07 175.77 107.92 179.43H107.94ZM107.94 127.65C107.944 128.686 107.742 129.713 107.345 130.67C106.948 131.627 106.364 132.495 105.627 133.224C104.891 133.953 104.017 134.528 103.056 134.916C102.095 135.303 101.066 135.495 100.03 135.48C94.9233 135.62 89.8133 135.62 84.7 135.48C79.96 135.35 76.9 132.16 76.79 127.48C76.71 123.81 76.7 120.14 76.79 116.48C76.7861 115.448 76.9859 114.424 77.378 113.469C77.7701 112.514 78.3468 111.646 79.0751 110.914C79.8033 110.182 80.6688 109.6 81.6221 109.203C82.5753 108.806 83.5974 108.601 84.63 108.6C87.23 108.5 89.83 108.6 92.43 108.6C94.85 108.6 97.28 108.55 99.7 108.6C100.757 108.571 101.81 108.752 102.797 109.132C103.784 109.512 104.686 110.084 105.45 110.815C106.214 111.546 106.826 112.421 107.25 113.39C107.674 114.359 107.902 115.403 107.92 116.46C108.09 120.13 108.08 123.9 107.91 127.65H107.94ZM134.47 116.16C134.52 114.168 135.332 112.271 136.738 110.859C138.144 109.448 140.038 108.628 142.03 108.57C147.39 108.41 152.77 108.4 158.12 108.57C160.112 108.649 161.998 109.49 163.388 110.92C164.778 112.349 165.566 114.257 165.59 116.25C165.717 120.09 165.717 123.93 165.59 127.77C165.567 129.806 164.746 131.751 163.305 133.189C161.863 134.627 159.916 135.442 157.88 135.46C155.21 135.6 152.52 135.46 149.83 135.46C147.24 135.46 144.64 135.57 142.06 135.46C140.068 135.427 138.166 134.627 136.75 133.226C135.334 131.825 134.514 129.931 134.46 127.94C134.29 124 134.3 120.09 134.44 116.16H134.47ZM134.47 168.41C134.458 167.38 134.65 166.357 135.035 165.402C135.419 164.446 135.989 163.575 136.711 162.84C137.433 162.105 138.293 161.52 139.242 161.118C140.191 160.717 141.21 160.507 142.24 160.5C144.83 160.38 147.43 160.5 150.02 160.5C152.61 160.5 155.22 160.4 157.8 160.5C158.831 160.499 159.852 160.701 160.805 161.096C161.757 161.491 162.622 162.071 163.35 162.801C164.078 163.532 164.654 164.399 165.045 165.353C165.437 166.307 165.635 167.329 165.63 168.36C165.73 172.11 165.74 175.86 165.63 179.61C165.612 181.692 164.771 183.683 163.291 185.148C161.811 186.612 159.812 187.433 157.73 187.43C152.63 187.54 147.53 187.53 142.43 187.43C141.377 187.44 140.332 187.239 139.358 186.84C138.383 186.442 137.497 185.853 136.752 185.108C136.008 184.363 135.419 183.477 135.02 182.503C134.621 181.528 134.421 180.483 134.43 179.43C134.323 175.744 134.32 172.07 134.42 168.41H134.47ZM223.3 230.81C223.21 236.09 220.09 239.24 214.71 239.37C210.58 239.47 206.46 239.37 202.33 239.37H178.62C167.14 239.37 155.663 239.37 144.19 239.37C137.35 239.37 134.4 236.37 134.39 229.55C134.39 226.68 134.39 223.82 134.39 220.96C134.45 215.7 137.63 212.41 142.88 212.25C145.75 212.16 148.62 212.25 151.49 212.25H213.35C220.35 212.25 223.25 215.18 223.26 222.25C223.26 225.08 223.3 228 223.25 230.81H223.3ZM223.3 179.56C223.303 180.593 223.102 181.617 222.708 182.572C222.315 183.527 221.738 184.396 221.008 185.127C220.279 185.859 219.413 186.44 218.459 186.837C217.506 187.234 216.483 187.439 215.45 187.44C212.94 187.53 210.45 187.44 207.92 187.44C205.39 187.44 202.92 187.44 200.39 187.44C195.75 187.32 192.39 184.22 192.17 179.59C191.99 175.84 192 172.06 192.17 168.31C192.169 167.283 192.37 166.265 192.764 165.315C193.157 164.366 193.734 163.503 194.462 162.778C195.189 162.052 196.053 161.477 197.004 161.086C197.954 160.695 198.972 160.496 200 160.5C205.11 160.36 210.23 160.36 215.33 160.5C220.06 160.62 223.13 163.82 223.24 168.55C223.32 172.22 223.33 175.9 223.22 179.56H223.3Z" fill="white"/>
</g>
<defs>
<clipPath id="clip0_474_420">
<rect width="300" height="275" fill="white"/>
</clipPath>
</defs>
</svg>
