<svg width="300" height="275" viewBox="0 0 300 275" fill="none" xmlns="http://www.w3.org/2000/svg">
<g clip-path="url(#clip0_474_425)">
<path d="M288.65 0H11.35C5.08 0 0 6 0 13.34V129.22C0 136.59 5.08 142.56 11.35 142.56H288.65C294.92 142.56 300 136.56 300 129.22V13.34C300 6 294.92 0 288.65 0Z" fill="white"/>
<path d="M176.81 26.7402H123.19V231.74H176.81V26.7402Z" fill="white"/>
<path d="M88.1998 216.84L144 272.51C145.594 274.095 147.751 274.985 150 274.985C152.248 274.985 154.405 274.095 156 272.51L211.82 216.84C212.568 216.094 213.077 215.142 213.284 214.106C213.491 213.07 213.386 211.996 212.983 211.02C212.579 210.044 211.895 209.209 211.017 208.622C210.139 208.034 209.106 207.72 208.05 207.72H91.9998C90.9386 207.71 89.8985 208.016 89.0126 208.6C88.1267 209.185 87.4354 210.02 87.0272 211C86.619 211.979 86.5126 213.058 86.7215 214.099C86.9304 215.139 87.4451 216.094 88.1998 216.84Z" fill="white"/>
</g>
<defs>
<clipPath id="clip0_474_425">
<rect width="300" height="275" fill="white"/>
</clipPath>
</defs>
</svg>
