<svg width="300" height="275" viewBox="0 0 300 275" fill="none" xmlns="http://www.w3.org/2000/svg">
<g clip-path="url(#clip0_474_414)">
<path d="M199.66 55.53C204.33 51.6532 207.742 46.4748 209.46 40.6536C211.178 34.8323 211.126 28.6315 209.31 22.84C205.65 11.22 193.52 1.38 181.71 0.47C181.663 0.402372 181.631 0.325182 181.618 0.243939C181.604 0.162695 181.608 0.0794015 181.63 0L171.44 0C169 0.7 166.52 1.3 164.12 2.13C142.46 9.6 135 36.05 149.94 52.34C156.184 59.2361 164.869 63.4269 174.153 64.0225C183.436 64.6181 192.586 61.5717 199.66 55.53Z" fill="white"/>
<path d="M177.77 249.56C170.77 248.39 167.39 245.43 166 238.69C164.74 232.58 165.83 226.59 166.87 220.61C168.96 208.61 172.93 197.14 176 185.41C180.7 167.51 187.2 150.08 187.95 131.2C188.49 117.53 181.79 104.2 169.43 98.1999C157.37 92.2799 144.63 91.9999 131.73 94.3099C118.83 96.6199 106.67 101.85 94.4098 106.44C93.9932 106.568 93.6199 106.809 93.3307 107.135C93.0415 107.461 92.8475 107.861 92.7698 108.29C91.6698 112.95 90.5198 117.59 89.2798 122.64C92.2798 121.64 94.9798 120.75 97.6598 119.91C104.893 117.469 112.649 117.01 120.12 118.58C125.52 119.79 128.57 123.15 129.58 128.58C130.78 135.03 130.08 141.41 128.71 147.72C124.65 166.47 118.83 184.72 113.71 203.2C110.35 215.2 107.35 227.2 107.71 239.79C108.08 253.41 114.62 263.52 126.71 269.52C141.21 276.7 156.51 276.12 171.71 272.32C182.08 269.73 191.85 265.2 201.86 261.43C202.249 261.343 202.607 261.152 202.896 260.877C203.185 260.602 203.393 260.254 203.5 259.87C204.63 255.12 205.78 250.37 207.02 245.2C205.8 245.69 205.07 246.01 204.31 246.27C195.69 249.16 187 251.1 177.77 249.56Z" fill="white"/>
</g>
<defs>
<clipPath id="clip0_474_414">
<rect width="300" height="275" fill="white"/>
</clipPath>
</defs>
</svg>
